<?xml version="1.0" encoding="utf-8"?>
<!-- Generator: Adobe Illustrator 23.0.2, SVG Export Plug-In . SVG Version: 6.00 Build 0)  -->
<svg version="1.1" id="Layer_1" xmlns="http://www.w3.org/2000/svg" xmlns:xlink="http://www.w3.org/1999/xlink" x="0px" y="0px"
	 viewBox="0 0 154 440" style="enable-background:new 0 0 154 440;" xml:space="preserve">
<style type="text/css">
	.st0{fill-rule:evenodd;clip-rule:evenodd;fill:#EEEEEE;stroke:#979797;stroke-linejoin:round;}
	.st1{fill-rule:evenodd;clip-rule:evenodd;fill:#FFFFFF;stroke:#979797;}
	.st2{fill:#AAAAAA;}
	.st3{font-family:'SFProDisplay-Bold';}
	.st4{font-size:108px;}
	.st5{letter-spacing:1;}
	.st6{fill-rule:evenodd;clip-rule:evenodd;fill:#FBD696;stroke:#979797;}
</style>
<title> flash drive</title>
<desc>Created with Sketch.</desc>
<g id="Page-1">
	<g id="Desktop-HD" transform="translate(-113.000000, -358.000000)">
		<g transform="translate(114.000000, 359.000000)">
			<path id="Combined-Shape" class="st0" d="M144,0c4.4,0,8,3.6,8,8v405c0,13.8-11.2,25-25,25H25c-13.8,0-25-11.2-25-25V8
				c0-4.4,3.6-8,8-8H144z M76,342c-13.8,0-25,11.2-25,25s11.2,25,25,25s25-11.2,25-25S89.8,342,76,342z"/>
			<rect id="Rectangle" x="6" y="7" class="st1" width="140" height="290"/>
			<text transform="matrix(1 0 0 1 26 220)" class="st2 st3 st4 st5"></text>
			<path class="st6" d="M29,25h4c4.4,0,8,3.6,8,8v50c0,4.4-3.6,8-8,8h-4c-4.4,0-8-3.6-8-8V33C21,28.6,24.6,25,29,25z"/>
			<path id="Rectangle-Copy" class="st6" d="M59,25h4c4.4,0,8,3.6,8,8v50c0,4.4-3.6,8-8,8h-4c-4.4,0-8-3.6-8-8V33
				C51,28.6,54.6,25,59,25z"/>
			<path id="Rectangle-Copy-2" class="st6" d="M89,25h4c4.4,0,8,3.6,8,8v50c0,4.4-3.6,8-8,8h-4c-4.4,0-8-3.6-8-8V33
				C81,28.6,84.6,25,89,25z"/>
			<path id="Rectangle-Copy-3" class="st6" d="M119,25h4c4.4,0,8,3.6,8,8v50c0,4.4-3.6,8-8,8h-4c-4.4,0-8-3.6-8-8V33
				C111,28.6,114.6,25,119,25z"/>
		</g>
	</g>
</g>
</svg>
