<?xml version="1.0" encoding="UTF-8" standalone="no"?>
<!-- Created with Inkscape (http://www.inkscape.org/) -->

<svg
   xmlns:dc="http://purl.org/dc/elements/1.1/"
   xmlns:cc="http://creativecommons.org/ns#"
   xmlns:rdf="http://www.w3.org/1999/02/22-rdf-syntax-ns#"
   xmlns:svg="http://www.w3.org/2000/svg"
   xmlns="http://www.w3.org/2000/svg"
   xmlns:xlink="http://www.w3.org/1999/xlink"
   xmlns:sodipodi="http://sodipodi.sourceforge.net/DTD/sodipodi-0.dtd"
   xmlns:inkscape="http://www.inkscape.org/namespaces/inkscape"
   id="svg2"
   version="1.1"
   inkscape:version="0.48.1 r9760"
   width="134.9625"
   height="114.075"
   xml:space="preserve"
   sodipodi:docname="48832B_AMDr_P_4C.eps"
   inkscape:export-filename="/tmp/48832_AMD_Radeon_logos/48832F_AMDr_L_E_RGB_.png"
   inkscape:export-xdpi="300"
   inkscape:export-ydpi="300"><metadata
     id="metadata8"><rdf:RDF><cc:Work
         rdf:about=""><dc:format>image/svg+xml</dc:format><dc:type
           rdf:resource="http://purl.org/dc/dcmitype/StillImage" /><dc:title></dc:title></cc:Work></rdf:RDF></metadata><defs
     id="defs6"><clipPath
       clipPathUnits="userSpaceOnUse"
       id="clipPath18"><path
         d="m 1044.46,31.8164 -1010.3936,0 0,845.1916 1010.3936,0 0,-845.1916 z"
         id="path20" /></clipPath><linearGradient
       x1="0"
       y1="0"
       x2="1"
       y2="0"
       gradientUnits="userSpaceOnUse"
       gradientTransform="matrix(101.039,0,0,-101.039,3.40674,45.4414)"
       spreadMethod="pad"
       id="linearGradient22"><stop
         style="stop-opacity:1;stop-color:#4b0607"
         offset="0"
         id="stop24" /><stop
         style="stop-opacity:1;stop-color:#e51b23"
         offset="0.361233"
         id="stop26" /><stop
         style="stop-opacity:1;stop-color:#e51b23"
         offset="0.361233"
         id="stop28" /><stop
         style="stop-opacity:1;stop-color:#4b0607"
         offset="0.995595"
         id="stop30" /><stop
         style="stop-opacity:1;stop-color:#4b0607"
         offset="1"
         id="stop32" /></linearGradient><clipPath
       clipPathUnits="userSpaceOnUse"
       id="clipPath40"><path
         d="m 1044.46,31.8164 -1010.3936,0 -0.0039,140.6246 c 60.7656,30.137 478.6755,218.907 1010.3775,0.762 l 0.02,-141.3866 z"
         id="path42" /></clipPath><linearGradient
       x1="0"
       y1="0"
       x2="1"
       y2="0"
       gradientUnits="userSpaceOnUse"
       gradientTransform="matrix(-5e-7,-11.5408,-11.5408,5e-7,53.9258,28.5517)"
       spreadMethod="pad"
       id="linearGradient44"><stop
         style="stop-opacity:1;stop-color:#3d3a3b"
         offset="0"
         id="stop46" /><stop
         style="stop-opacity:1;stop-color:#231f20"
         offset="1"
         id="stop48" /></linearGradient><clipPath
       clipPathUnits="userSpaceOnUse"
       id="clipPath56"><path
         d="m 1041.16,106.562 c 0,-37.5776 -30.45,-68.0268 -68.051,-68.0268 l -866.586,0 c -37.5972,0 -68.0464,30.4492 -68.0464,68.0268 l 0,699.36 c 0,37.574 30.4492,68.039 68.0464,68.039 l 866.586,0 c 37.601,0 68.051,-30.465 68.051,-68.039 l 0,-699.36 z m -68.168,806.043 -866.293,0 C 47.7539,912.605 0,864.844 0,805.926 L 0,106.719 C 0,47.7734 47.7539,0 106.699,0 l 866.293,0 c 58.928,0 106.698,47.7734 106.698,106.719 l 0,699.207 c 0,58.918 -47.77,106.679 -106.698,106.679 z"
         id="path58" /></clipPath><linearGradient
       x1="0"
       y1="0"
       x2="1"
       y2="0"
       gradientUnits="userSpaceOnUse"
       gradientTransform="matrix(-108.464,-75.947,-75.947,108.464,108.216,83.6044)"
       spreadMethod="pad"
       id="linearGradient60"><stop
         style="stop-opacity:1;stop-color:#393536"
         offset="0"
         id="stop62" /><stop
         style="stop-opacity:1;stop-color:#9e9c9c"
         offset="0.187879"
         id="stop64" /><stop
         style="stop-opacity:1;stop-color:#5a5758"
         offset="0.406061"
         id="stop66" /><stop
         style="stop-opacity:1;stop-color:#787677"
         offset="0.542125"
         id="stop68" /><stop
         style="stop-opacity:1;stop-color:#ededed"
         offset="0.717949"
         id="stop70" /><stop
         style="stop-opacity:1;stop-color:#5e5b5c"
         offset="0.898876"
         id="stop72" /><stop
         style="stop-opacity:1;stop-color:#5e5b5c"
         offset="0.898876"
         id="stop74" /><stop
         style="stop-opacity:1;stop-color:#abaaaa"
         offset="1"
         id="stop76" /></linearGradient><linearGradient
       inkscape:collect="always"
       xlink:href="#linearGradient22"
       id="linearGradient3218"
       gradientUnits="userSpaceOnUse"
       gradientTransform="matrix(101.039,0,0,-101.039,3.40674,45.4414)"
       spreadMethod="pad"
       x1="0"
       y1="0"
       x2="10.653481"
       y2="0" /><linearGradient
       inkscape:collect="always"
       xlink:href="#linearGradient60"
       id="linearGradient3222"
       gradientUnits="userSpaceOnUse"
       gradientTransform="matrix(-108.464,-75.947,-75.947,108.464,108.216,83.6044)"
       spreadMethod="pad"
       x1="-9.5657673"
       y1="0.86599332"
       x2="1"
       y2="0" /><linearGradient
       inkscape:collect="always"
       xlink:href="#linearGradient44"
       id="linearGradient3226"
       gradientUnits="userSpaceOnUse"
       gradientTransform="matrix(-5e-7,-11.5408,-11.5408,5e-7,53.9258,28.5517)"
       spreadMethod="pad"
       x1="-15.850005"
       y1="7.3001894e-07"
       x2="-11.253253"
       y2="5.3086671e-07" /></defs><sodipodi:namedview
     pagecolor="#ffffff"
     bordercolor="#666666"
     borderopacity="1"
     objecttolerance="10"
     gridtolerance="10"
     guidetolerance="10"
     inkscape:pageopacity="0"
     inkscape:pageshadow="2"
     inkscape:window-width="1280"
     inkscape:window-height="1003"
     id="namedview4"
     showgrid="false"
     inkscape:zoom="6.66"
     inkscape:cx="74.248449"
     inkscape:cy="54.926552"
     inkscape:window-x="-4"
     inkscape:window-y="-4"
     inkscape:window-maximized="1"
     inkscape:current-layer="g10" /><g
     id="g10"
     inkscape:groupmode="layer"
     inkscape:label="ink_ext_XXXXXX"
     transform="matrix(1.25,0,0,-1.25,0,114.075)"><g
       id="g14"
       transform="scale(0.1,0.1)"><g
         clip-path="url(#clipPath18)"
         id="g16"><path
           inkscape:connector-curvature="0"
           id="path34"
           style="fill:url(#linearGradient3218);fill-opacity:1;fill-rule:nonzero;stroke:none"
           d="m 34.0664,31.8164 1010.39,0 0,845.191 -1010.39,0 0,-845.191 z" /></g></g><g
       id="g36"
       transform="scale(0.1,0.1)"><g
         clip-path="url(#clipPath40)"
         id="g38"><path
           inkscape:connector-curvature="0"
           id="path50"
           style="fill:url(#linearGradient3226);fill-opacity:1;fill-rule:nonzero;stroke:none"
           d="m 1044.46,31.8164 -1010.3936,0 -0.0039,140.6246 c 60.7656,30.137 478.6755,218.907 1010.3775,0.762 l 0.02,-141.3866" /></g></g><g
       id="g52"
       transform="scale(0.1,0.1)"><g
         clip-path="url(#clipPath56)"
         id="g54"><path
           inkscape:connector-curvature="0"
           id="path78"
           style="fill:url(#linearGradient3222);fill-opacity:1;fill-rule:nonzero;stroke:none"
           d="m 1041.16,106.562 c 0,-37.5776 -30.45,-68.0268 -68.051,-68.0268 l -866.586,0 c -37.5972,0 -68.0464,30.4492 -68.0464,68.0268 l 0,699.36 c 0,37.574 30.4492,68.039 68.0464,68.039 l 866.586,0 c 37.601,0 68.051,-30.465 68.051,-68.039 l 0,-699.36 z m -68.168,806.043 -866.293,0 C 47.7539,912.605 0,864.844 0,805.926 L 0,106.719 C 0,47.7734 47.7539,0 106.699,0 l 866.293,0 c 58.928,0 106.698,47.7734 106.698,106.719 l 0,699.207 c 0,58.918 -47.77,106.679 -106.698,106.679"
           inkscape:export-xdpi="299.80112"
           inkscape:export-ydpi="299.80112" /></g></g><g
       id="g3228"><path
         d="m 15.1078,59.5449 5.2031,0 c 0.8477,0 1.1582,0.3418 1.1582,1.0703 l 0,0.2719 c 0,0.9004 -0.4531,1.0664 -1.4402,1.0664 l -4.9211,0 0,-2.4086 z m -3.123,4.9399 9.4679,0 c 2.4071,0 3.0547,-1.1875 3.0547,-3.0215 l 0,-0.5762 c 0,-1.3656 -0.3078,-2.1723 -1.7433,-2.5043 l 0,-0.0293 c 0.9257,-0.1738 1.6972,-0.5801 1.6972,-2.2539 l 0,-3.1914 -3.1191,0 0,2.6856 c 0,1.0722 -0.3172,1.4199 -1.2852,1.4199 l -4.9492,0 0,-4.1055 -3.123,0 0,11.5766"
         style="fill:#ffffff;fill-opacity:1;fill-rule:nonzero;stroke:none"
         id="path88"
         inkscape:connector-curvature="0" /><path
         d="m 44.8969,55.5234 4.3164,0 c 1.3398,0 1.8613,0.3789 1.8613,1.8301 l 0,2.7735 c 0,1.4398 -0.5215,1.8265 -1.8613,1.8265 l -4.3164,0 0,-6.4301 z m -3.1211,8.9614 8.1972,0 c 3.1211,0 4.2266,-1.0235 4.2266,-3.541 l 0,-4.4829 c 0,-2.5273 -1.1055,-3.5527 -4.2266,-3.5527 l -8.1972,0 0,11.5766"
         style="fill:#ffffff;fill-opacity:1;fill-rule:nonzero;stroke:none"
         id="path90"
         inkscape:connector-curvature="0" /><path
         d="m 56.0238,64.4848 11.5606,0 0,-2.3614 -8.4356,0 0,-2.3207 8.0059,0 0,-2.1132 -8.0059,0 0,-2.3321 8.6153,0 0,-2.4492 -11.7403,0 0,11.5766"
         style="fill:#ffffff;fill-opacity:1;fill-rule:nonzero;stroke:none"
         id="path92"
         inkscape:connector-curvature="0" /><path
         d="m 83.4613,64.4848 4.8379,0 4.5449,-8.5102 0.0254,-0.0801 0,8.5903 3.1153,0 0,-11.5766 -4.834,0 -4.5391,8.7914 -0.0254,-0.3848 0,-8.4066 -3.125,0 0,11.5766"
         style="fill:#ffffff;fill-opacity:1;fill-rule:nonzero;stroke:none"
         id="path94"
         inkscape:connector-curvature="0" /><path
         d="m 36.1074,59.2676 -6.4859,0 0,0.6054 c 0,1.2582 0.3066,2.0278 1.9355,2.0278 l 2.3528,0 2.1976,0 0,-2.6332 z m -5.2164,5.2172 c -2.789,0 -4.4402,-0.6934 -4.4402,-3.6485 l 0,-7.9281 3.1707,0 0,4.0684 6.4859,0 0,-4.0684 3.0938,0 0,11.5766 -8.3102,0"
         style="fill:#ffffff;fill-opacity:1;fill-rule:nonzero;stroke:none"
         id="path96"
         inkscape:connector-curvature="0" /><path
         d="m 78.5141,57.4746 c 0,-1.4473 -0.3067,-2.0019 -1.752,-2.0019 l -2.4805,0 c -1.4531,0 -1.7539,0.5546 -1.7539,2.0019 l 0,4.4418 2.1641,0 1.9043,0 c 1.6113,0 1.918,-0.7519 1.918,-1.9965 l 0,-2.4453 z m -1.2618,7.0102 -7.873,0 0,-7.9653 c 0,-2.9277 1.6387,-3.6113 4.4023,-3.6113 l 3.4707,0 c 2.7637,0 4.4004,0.6836 4.4004,3.6113 l 0,4.35 c 0,2.9317 -1.6367,3.6153 -4.4004,3.6153"
         style="fill:#ffffff;fill-opacity:1;fill-rule:nonzero;stroke:none"
         id="path98"
         inkscape:connector-curvature="0" /><path
         d="m 25.8551,44.8066 3.5066,0 0.0235,-1.3984 c 0,-1.0195 -0.2168,-1.6758 -0.6504,-1.9687 -0.4344,-0.295 -1.402,-0.4415 -2.9024,-0.4415 -1.3769,0 -2.2898,0.1954 -2.7363,0.5879 -0.4477,0.3926 -0.6707,1.1934 -0.6707,2.4004 0,1.541 0.0887,2.5157 0.2676,2.9219 0.2218,0.4941 0.5586,0.8281 1.0097,1 0.4512,0.1738 1.2168,0.2598 2.2989,0.2598 1.416,0 2.33,-0.1348 2.741,-0.4004 0.4129,-0.2676 0.6191,-0.8574 0.6191,-1.7735 l -1.5281,0 c -0.0274,0.461 -0.1418,0.7481 -0.3418,0.8594 -0.2004,0.1113 -0.7031,0.168 -1.5078,0.168 -0.875,0 -1.4309,-0.0957 -1.6656,-0.2891 -0.236,-0.1933 -0.3532,-0.6445 -0.3532,-1.3574 l -0.0058,-0.707 0.0117,-0.9043 c 0,-0.6973 0.1164,-1.1426 0.3496,-1.334 0.2336,-0.1914 0.7738,-0.2871 1.6223,-0.2871 0.8246,0 1.3484,0.082 1.5722,0.2441 0.2235,0.1602 0.336,0.543 0.336,1.1445 l 0.0058,0.2891 -2.0019,0 0,0.9863"
         style="fill:#ffffff;fill-opacity:1;fill-rule:nonzero;stroke:none"
         id="path100"
         inkscape:connector-curvature="0" /><path
         d="m 33.1527,44.5586 2.1696,0 c 0.5175,0 0.8613,0.082 1.0312,0.2461 0.168,0.1621 0.2539,0.4902 0.2539,0.9824 0,0.502 -0.0742,0.8281 -0.2187,0.9727 -0.1465,0.1464 -0.4668,0.2207 -0.961,0.2207 l -2.275,0 0,-2.4219 z m -1.5105,-3.5 0,7.0469 3.9262,0 c 0.9765,0 1.6484,-0.1504 2.0183,-0.4493 0.3695,-0.2988 0.5539,-0.8417 0.5539,-1.625 0,-0.7128 -0.0918,-1.2011 -0.2773,-1.4609 -0.1836,-0.2617 -0.5625,-0.4433 -1.1348,-0.543 l 0,-0.0468 c 0.8828,-0.0469 1.3242,-0.5039 1.3242,-1.3672 l 0,-1.5547 -1.5097,0 0,1.2871 c 0,0.7246 -0.4043,1.0879 -1.2149,1.0879 l -2.1754,0 0,-2.375 -1.5105,0"
         style="fill:#ffffff;fill-opacity:1;fill-rule:nonzero;stroke:none"
         id="path102"
         inkscape:connector-curvature="0" /><path
         d="m 45.0082,43.3984 -1.377,3.67 -1.3535,-3.67 2.7305,0 z m 0.3496,-0.9863 -3.4375,0 -0.4961,-1.3535 -1.598,0 2.6488,7.0469 2.2695,0 2.6895,-7.0469 -1.5684,0 -0.5078,1.3535"
         style="fill:#ffffff;fill-opacity:1;fill-rule:nonzero;stroke:none"
         id="path104"
         inkscape:connector-curvature="0" /><path
         d="m 50.8285,44.4609 1.7207,0 c 0.6856,0 1.1192,0.0703 1.3047,0.209 0.1836,0.1387 0.2773,0.4688 0.2773,0.9883 0,0.5957 -0.0761,0.9648 -0.2304,1.1074 -0.1543,0.1426 -0.5547,0.2149 -1.1992,0.2149 l -1.8731,0 0,-2.5196 z m -1.5117,-3.4023 0,7.0469 3.6074,0 c 1.0762,0 1.8028,-0.166 2.1778,-0.4981 0.375,-0.332 0.5644,-0.9726 0.5644,-1.9238 0,-0.9414 -0.1816,-1.5684 -0.5391,-1.8789 -0.3574,-0.3086 -1.08,-0.4629 -2.1699,-0.4629 l -0.3496,-0.0059 -1.7793,0 0,-2.2773 -1.5117,0"
         style="fill:#ffffff;fill-opacity:1;fill-rule:nonzero;stroke:none"
         id="path106"
         inkscape:connector-curvature="0" /><path
         d="m 64.5785,48.1055 0,-7.0469 -1.5117,0 0,3.0469 -3.7324,0 0,-3.0469 -1.5117,0 0,7.0469 1.5117,0 0,-2.875 3.7324,0 0,2.875 1.5117,0"
         style="fill:#ffffff;fill-opacity:1;fill-rule:nonzero;stroke:none"
         id="path108"
         inkscape:connector-curvature="0" /><path
         d="m 67.1742,41.0586 1.51172,0 0,7.04688 -1.51172,0 0,-7.04688 z"
         style="fill:#ffffff;fill-opacity:1;fill-rule:nonzero;stroke:none"
         id="path110"
         inkscape:connector-curvature="0" /><path
         d="m 76.2094,43.5723 1.5176,0 0,-0.2422 c 0,-0.9805 -0.2032,-1.6153 -0.6075,-1.9024 -0.4043,-0.2871 -1.2988,-0.4297 -2.6836,-0.4297 -1.5722,0 -2.539,0.2266 -2.9004,0.6797 -0.3593,0.4551 -0.541,1.67 -0.541,3.6446 0,1.164 0.2442,1.9277 0.7344,2.2949 0.4902,0.3672 1.5156,0.5508 3.0742,0.5508 1.1367,0 1.8946,-0.1504 2.2754,-0.4532 0.3809,-0.3007 0.5723,-0.8984 0.5723,-1.7929 l 0.0058,-0.1602 -1.5175,0 0,0.1817 c 0,0.4609 -0.0977,0.7558 -0.293,0.8847 -0.1973,0.1289 -0.6445,0.1934 -1.3457,0.1934 -0.9375,0 -1.502,-0.1016 -1.6895,-0.3047 -0.1875,-0.2031 -0.2812,-0.8047 -0.2812,-1.8066 0,-1.3497 0.082,-2.1485 0.2519,-2.3946 0.17,-0.248 0.7168,-0.373 1.6426,-0.373 0.75,0 1.2383,0.0703 1.4629,0.207 0.2227,0.1387 0.334,0.4414 0.334,0.9082 l -0.0117,0.3145"
         style="fill:#ffffff;fill-opacity:1;fill-rule:nonzero;stroke:none"
         id="path112"
         inkscape:connector-curvature="0" /><path
         d="m 85.7836,46.0508 -1.4766,0 c -0.0078,0.0644 -0.0117,0.1133 -0.0117,0.1445 -0.0351,0.3965 -0.1348,0.6445 -0.2988,0.7461 -0.1621,0.1016 -0.5469,0.1524 -1.1543,0.1524 -0.7149,0 -1.1836,-0.0586 -1.4024,-0.1758 -0.2207,-0.1172 -0.33,-0.3633 -0.33,-0.7383 0,-0.4434 0.0898,-0.7109 0.2675,-0.7988 0.1797,-0.0899 0.7715,-0.1602 1.7754,-0.2071 1.1836,-0.0586 1.9512,-0.209 2.3008,-0.4492 0.3477,-0.2402 0.5215,-0.7422 0.5215,-1.5019 0,-0.9356 -0.2031,-1.5411 -0.6133,-1.8145 -0.4082,-0.2734 -1.3066,-0.4102 -2.7012,-0.4102 -1.2519,0 -2.0839,0.1329 -2.4941,0.4024 -0.4102,0.2676 -0.6152,0.8125 -0.6152,1.6308 l -0.0059,0.2579 1.4707,0 0.0059,-0.1504 c 0,-0.4922 0.0976,-0.793 0.291,-0.9024 0.1953,-0.1093 0.7266,-0.166 1.5937,-0.166 0.6758,0 1.1075,0.0645 1.295,0.1914 0.1875,0.127 0.2812,0.4219 0.2812,0.8828 0,0.3418 -0.0723,0.5664 -0.2148,0.6797 -0.1426,0.1113 -0.4473,0.1797 -0.918,0.2031 l -0.8359,0.0469 c -1.2598,0.0645 -2.0645,0.2207 -2.4141,0.4649 -0.3496,0.2441 -0.5254,0.7675 -0.5254,1.5742 0,0.8222 0.2109,1.3711 0.6328,1.6445 0.4219,0.2734 1.2656,0.4102 2.5293,0.4102 1.1992,0 2.0059,-0.127 2.4219,-0.377 0.416,-0.2519 0.625,-0.7422 0.625,-1.4726 l 0,-0.2676"
         style="fill:#ffffff;fill-opacity:1;fill-rule:nonzero;stroke:none"
         id="path114"
         inkscape:connector-curvature="0" /><path
         sodipodi:nodetypes="ccccccc"
         d="m 66.0434,14.373 0,-4.54683 4.416,0 3.084,3.25583 -4.2422,0 0,4.2696 -3.2578,-2.9786"
         style="fill:#ffffff;fill-opacity:1;fill-rule:nonzero;stroke:none"
         id="path116"
         inkscape:connector-curvature="0" /><path
         sodipodi:nodetypes="ccccccc"
         d="m 65.9242,21 11.6211,0 0,-11.47656 -3.5605,3.56446 0,4.6152 -4.6875,0 L 65.9242,21"
         style="fill:#ffffff;fill-opacity:1;fill-rule:nonzero;stroke:none"
         id="path118"
         inkscape:connector-curvature="0" /><path
         d="m 35.8281,17.9219 -1.4379,-3.8047 3.02,0 -1.5821,3.8047 z m 5.7328,-7.4551 -2.6293,0 -0.8046,1.9394 -4.3821,0 -0.7344,-1.9394 -2.5859,0 3.952,9.7969 2.8324,0 4.3519,-9.7969"
         style="fill:#ffffff;fill-opacity:1;fill-rule:nonzero;stroke:none"
         id="path120"
         inkscape:connector-curvature="0" /><path
         d="m 51.0023,20.2637 2.125,0 0,-9.7969 -2.4414,0 0,6.1191 -2.6445,-3.0761 -0.373,0 -2.6426,3.0761 0,-6.1191 -2.4453,0 0,9.7969 2.1269,0 3.1485,-3.6348 3.1464,3.6348"
         style="fill:#ffffff;fill-opacity:1;fill-rule:nonzero;stroke:none"
         id="path122"
         inkscape:connector-curvature="0" /><path
         d="m 57.1215,12.2617 1.5976,0 c 2.4551,0 3.1895,1.666 3.1895,3.1035 0,1.6797 -0.9063,3.1036 -3.2188,3.1036 l -1.5683,0 0,-6.2071 z m 1.8828,8.002 c 3.5801,0 5.418,-2.2266 5.418,-4.9121 0,-2.8145 -1.7832,-4.8848 -5.6914,-4.8848 l -4.0528,0 0,9.7969 4.3262,0"
         style="fill:#ffffff;fill-opacity:1;fill-rule:nonzero;stroke:none"
         id="path124"
         inkscape:connector-curvature="0" /></g></g></svg>