<?xml version="1.0" encoding="UTF-8"?>
<svg width="46px" height="57px" viewBox="0 0 46 57" version="1.1" xmlns="http://www.w3.org/2000/svg" xmlns:xlink="http://www.w3.org/1999/xlink">
    <!-- Generator: Sketch 58 (84663) - https://sketch.com -->
    <title>bag</title>
    <desc>Created with Sketch.</desc>
    <g id="Page-1" stroke="none" stroke-width="1" fill="none" fill-rule="evenodd">
        <g id="Desktop-HD" transform="translate(-56.000000, -443.000000)" fill="#FFFFFF" fill-rule="nonzero">
            <g id="bag" transform="translate(56.000000, 443.000000)">
                <path d="M38.8125,10.2786885 L34.4425,10.2786885 C33.7525,3.91290984 28.20375,0 23,0 C17.79625,0 12.27625,3.91290984 11.5575,10.2786885 L7.1875,10.2786885 C3.21795336,10.2786885 0,13.5471016 0,17.5788934 L0,49.6997951 C0,53.7315869 3.21795336,57 7.1875,57 L38.8125,57 C42.7820466,57 46,53.7315869 46,49.6997951 L46,17.5788934 C46,13.5471016 42.7820466,10.2786885 38.8125,10.2786885 Z M23,3.35809426 C26.6225,3.35809426 30.44625,5.98616803 31.13625,10.2786885 L14.86375,10.2786885 C15.55375,5.98616803 19.3775,3.35809426 23,3.35809426 L23,3.35809426 Z M43.125,49.6997951 C43.125,52.1234631 41.19875,54.079918 38.8125,54.079918 L7.1875,54.079918 C4.80125,54.079918 2.875,52.1234631 2.875,49.6997951 L2.875,17.5788934 C2.875,15.1552254 4.80125,13.1987705 7.1875,13.1987705 L38.8125,13.1987705 C41.19875,13.1987705 43.125,15.1552254 43.125,17.5788934 L43.125,49.6997951 Z" id="Shape"></path>
            </g>
        </g>
    </g>
</svg>