<?xml version="1.0" encoding="UTF-8"?>
<svg width="34px" height="32px" viewBox="0 0 34 32" version="1.1" xmlns="http://www.w3.org/2000/svg" xmlns:xlink="http://www.w3.org/1999/xlink">
    <title>jar</title>
    <g id="Page-1" stroke="none" stroke-width="1" fill="none" fill-rule="evenodd">
        <g id="jar" fill="#FFFFFF" fill-rule="nonzero">
            <path d="M1.384,30.272 C1.99,31.354 3.099,32 4.35,32 L29.65,32 C30.948,32 32.152,31.291 32.793,30.15 C33.415,29.041 33.397,27.742 32.747,26.677 L24.225,12.571 C23.423,11.246 23,9.726 23,8.176 L23,3 C23,2.724 22.776,2.5 22.5,2.5 C22.224,2.5 22,2.724 22,3 L22,8.176 C22,9.908 22.474,11.607 23.369,13.089 L26.788,18.749 C25.016,18.218 21.368,17.574 16.625,19.158 C10.496,21.206 7.596,19.26 7.547,19.226 C7.473,19.173 7.39,19.151 7.305,19.143 L10.578,13.851 C11.509,12.348 12,10.62 12,8.854 L12,3 C12,2.724 11.776,2.5 11.5,2.5 C11.224,2.5 11,2.724 11,3 L11,8.854 C11,10.435 10.561,11.98 9.729,13.325 L1.472,26.674 C0.794,27.782 0.761,29.161 1.384,30.272 Z M2.324,27.198 L6.837,19.9 C6.87,19.951 6.91,19.998 6.962,20.036 C7.049,20.099 8.482,21.102 11.408,21.102 C12.872,21.102 14.711,20.851 16.941,20.105 C23.17,18.024 27.486,20.06 27.529,20.08 C27.553,20.092 27.579,20.092 27.604,20.1 L31.891,27.196 C32.351,27.95 32.362,28.871 31.92,29.66 C31.451,30.5 30.602,31 29.65,31 L4.35,31 C3.466,31 2.683,30.545 2.257,29.784 C1.803,28.975 1.829,28.007 2.324,27.198 Z" id="Shape"></path>
            <path d="M24.5,0.5 C24.5,0.224 24.276,0 24,0 L10,0 C9.724,0 9.5,0.224 9.5,0.5 C9.5,0.776 9.724,1 10,1 L24,1 C24.276,1 24.5,0.776 24.5,0.5 Z" id="Path"></path>
            <path d="M12.888,16.046 C12.888,17.149 13.785,18.046 14.888,18.046 C15.991,18.046 16.888,17.149 16.888,16.046 C16.888,14.943 15.991,14.046 14.888,14.046 C13.785,14.046 12.888,14.943 12.888,16.046 Z M15.888,16.046 C15.888,16.597 15.439,17.046 14.888,17.046 C14.337,17.046 13.888,16.597 13.888,16.046 C13.888,15.495 14.337,15.046 14.888,15.046 C15.439,15.046 15.888,15.495 15.888,16.046 Z" id="Shape"></path>
            <path d="M17.194,8.989 C17.194,9.816 17.867,10.489 18.694,10.489 C19.521,10.489 20.194,9.816 20.194,8.989 C20.194,8.162 19.521,7.489 18.694,7.489 C17.867,7.489 17.194,8.162 17.194,8.989 Z M19.194,8.989 C19.194,9.265 18.97,9.489 18.694,9.489 C18.418,9.489 18.194,9.265 18.194,8.989 C18.194,8.713 18.418,8.489 18.694,8.489 C18.97,8.489 19.194,8.713 19.194,8.989 Z" id="Shape"></path>
            <path d="M19.529,29.593 C21.183,29.593 22.529,28.247 22.529,26.593 C22.529,24.939 21.183,23.593 19.529,23.593 C17.875,23.593 16.529,24.939 16.529,26.593 C16.529,28.247 17.875,29.593 19.529,29.593 Z M19.529,24.593 C20.632,24.593 21.529,25.49 21.529,26.593 C21.529,27.696 20.632,28.593 19.529,28.593 C18.426,28.593 17.529,27.696 17.529,26.593 C17.529,25.49 18.426,24.593 19.529,24.593 Z" id="Shape"></path>
        </g>
    </g>
</svg>