<?xml version="1.0" encoding="UTF-8"?>
<svg width="25px" height="33px" viewBox="0 0 25 33" version="1.1" xmlns="http://www.w3.org/2000/svg" xmlns:xlink="http://www.w3.org/1999/xlink">
    <title>pendrive</title>
    <g id="Page-1" stroke="none" stroke-width="1" fill="none" fill-rule="evenodd">
        <g id="pendrive" fill="#FFFFFF" fill-rule="nonzero">
            <path d="M17.5,11 C17.224,11 17,11.224 17,11.5 L17,23.031 C17,27.425 13.352,31 9,31 C4.648,31 1,27.425 1,23.031 L1,11.5 C1,11.224 0.776,11 0.5,11 C0.224,11 0,11.224 0,11.5 L0,23.031 C0,27.977 4.097,32 9,32 C13.903,32 18,27.977 18,23.031 L18,11.5 C18,11.224 17.776,11 17.5,11 Z" id="Path"></path>
            <path d="M17.392,8 L14,8 L14,1.5 C14,0.673 13.327,0 12.5,0 L5.5,0 C4.673,0 4,0.673 4,1.5 L4,8 L0.608,8 C0.332,8 0.108,8.224 0.108,8.5 C0.108,8.776 0.332,9 0.608,9 L17.391,9 C17.667,9 17.891,8.776 17.891,8.5 C17.891,8.224 17.668,8 17.392,8 Z M5,1.5 C5,1.225 5.225,1 5.5,1 L12.5,1 C12.775,1 13,1.225 13,1.5 L13,8 L5,8 L5,1.5 Z" id="Shape"></path>
            <circle id="Oval" cx="7.082" cy="5.293" r="1"></circle>
            <circle id="Oval" cx="10.918" cy="5.293" r="1"></circle>
            <path d="M23.8288614,28.8383267 C23.1024025,28.4644484 22.6768173,27.9039072 22.6309592,27.2605274 C22.5845419,26.613834 22.9368661,25.9754245 23.5990118,25.5076626 C23.6666804,25.461273 23.7265196,25.3762253 23.7382637,25.296148 C23.7505671,25.2149662 23.7237234,25.1205302 23.6711544,25.0559161 C22.9637098,24.1850062 22.0538187,24.002209 21.414602,24.002209 C21.0533299,24.002209 20.6780768,24.0640619 20.3576295,24.1772746 C20.2670319,24.2093055 20.1837044,24.2407842 20.1065287,24.2700538 C19.8146029,24.3816098 19.6473888,24.4467762 19.4387905,24.3871324 C19.3705627,24.3678034 19.2917092,24.334668 19.2011115,24.2971145 C18.9125413,24.1789314 18.4774489,24 17.9081378,24 C17.6167713,24 17.3147792,24.0469419 17.0116685,24.1397211 C16.1028959,24.416402 15.4010438,25.1636062 15.1342841,26.1399972 C14.8652874,27.1241198 15.0056578,28.4009388 15.5084188,29.555709 C15.7136616,30.0267845 15.9653217,30.4713516 16.256129,30.8772608 C16.7969186,31.6327489 17.3628742,32 17.9881098,32 C18.0373233,32 18.0876553,31.997791 18.1379874,31.9928207 C18.4198467,31.96576 18.619497,31.884026 18.8129957,31.8045009 C18.9757359,31.7376778 19.1446278,31.6686456 19.3884585,31.622256 C19.8218731,31.5405219 20.0746517,31.6338534 20.418028,31.7641861 C20.6171191,31.8398454 20.8436132,31.924893 21.126591,31.9779097 C22.3636403,32.2087533 23.528547,30.4277233 23.9429473,29.3270744 L23.9664356,29.2663261 C24.08164,28.9774955 23.8663308,28.8559989 23.8288614,28.8383267 Z" id="Shape" stroke="#0E0E0E"></path>
            <path d="M19.3886639,24 L19.3924688,24 C20.7108429,24 21.9023894,22.9686784 21.9949736,21.723071 C22.0044857,21.5981665 22.0019492,21.3145531 21.9746812,21.2257448 C21.9423401,21.1237586 21.8554631,21.0429717 21.7425865,21.013751 C21.7115137,21.0057296 21.6747336,21 21.6430267,21 C21.5961004,21 21.3563961,21.0275019 21.3361036,21.0309396 C20.2460193,21.2074102 19.050668,21.9333461 19.0012052,23.1228037 C18.9961321,23.2431245 19.0075466,23.6144003 19.0265708,23.7519099 C19.0468632,23.9060351 19.2174465,24 19.3886639,24 Z" id="Shape" stroke="#0E0E0E"></path>
        </g>
    </g>
</svg>