<?xml version="1.0" encoding="UTF-8"?>
<svg width="840px" height="840px" viewBox="0 0 840 840" version="1.1" xmlns="http://www.w3.org/2000/svg" xmlns:xlink="http://www.w3.org/1999/xlink">
    <title>Apple gear</title>
    <defs>
        <filter x="-20.1%" y="-20.0%" width="140.6%" height="140.6%" filterUnits="objectBoundingBox" id="filter-1">
            <feOffset dx="8" dy="14" in="SourceAlpha" result="shadowOffsetOuter1"></feOffset>
            <feGaussianBlur stdDeviation="6" in="shadowOffsetOuter1" result="shadowBlurOuter1"></feGaussianBlur>
            <feColorMatrix values="0 0 0 0 0   0 0 0 0 0   0 0 0 0 0  0 0 0 0.140637805 0" type="matrix" in="shadowBlurOuter1" result="shadowMatrixOuter1"></feColorMatrix>
            <feMerge>
                <feMergeNode in="shadowMatrixOuter1"></feMergeNode>
                <feMergeNode in="SourceGraphic"></feMergeNode>
            </feMerge>
        </filter>
        <path d="M317.540957,83.1986336 C318.226098,83.227215 318.910448,83.2588602 319.593993,83.293556 L319.588944,121.417052 C323.812129,121.697779 327.996961,122.118709 332.138828,122.675231 L339.589327,85.2000964 C340.266089,85.2951828 340.941885,85.39328 341.616701,85.4943739 L337.86451,123.535101 C342.032037,124.227241 346.15299,125.057195 350.222527,126.020123 L361.339734,89.3602355 C362.002095,89.5212627 362.663309,89.6852215 363.323361,89.8520972 L355.840654,127.442418 C359.911321,128.540851 363.926995,129.773272 367.882653,131.13466 L382.574986,95.6531894 C383.216868,95.8786058 383.857418,96.1068504 384.496623,96.337908 L373.337727,133.107976 C377.271563,134.600921 381.141939,136.222779 384.943698,137.968392 L403.084825,104.019539 C403.700403,104.30698 404.314464,104.597124 404.926993,104.889958 L390.183264,140.473896 C393.942627,142.344168 397.630132,144.337257 401.240528,146.447912 L422.668301,114.371517 C423.252697,114.718347 423.835389,115.067748 424.416361,115.419704 L406.215289,149.460988 C409.765284,151.6873 413.23518,154.029541 416.619671,156.482406 L441.137464,126.599427 C441.685146,127.002071 442.230938,127.407135 442.774824,127.814605 L421.281103,159.972285 C424.589977,162.530573 427.81072,165.197338 430.938003,167.967252 L458.319432,140.578457 C458.824936,141.032625 459.328373,141.489049 459.829726,141.947714 L435.24256,171.900632 C438.280358,174.76412 441.2223,177.728187 444.063065,180.787509 L474.052286,156.170274 C474.510951,156.671627 474.967375,157.175064 475.421543,157.680568 L447.968741,185.126809 C450.708776,188.267744 453.345548,191.5011 455.873765,194.821583 L488.185395,173.225176 C488.592865,173.769062 488.997929,174.314854 489.400573,174.862536 L459.341258,199.525872 C461.75798,202.913833 464.064504,206.385822 466.255596,209.936607 L500.580471,191.583929 C500.932368,192.164805 501.28171,192.7474 501.628483,193.331699 L469.248616,214.961154 C471.31894,218.563775 473.272726,222.241882 475.10483,225.99033 L511.109566,211.07201 C511.402561,211.68487 511.692865,212.299263 511.980461,212.915175 L477.592818,231.290395 C479.296263,235.072769 480.877611,238.921992 482.331841,242.833042 L519.662092,231.503377 C519.89315,232.142582 520.121394,232.783132 520.346811,233.425014 L484.28677,248.356034 C485.606553,252.280526 486.799678,256.26321 487.861285,260.299225 L526.148156,252.677639 C526.314944,253.337359 526.478819,253.99824 526.639765,254.660266 L489.263484,265.994306 C490.187552,270.020276 490.981658,274.095847 491.64115,278.216366 L530.505626,274.383299 C530.60677,275.058447 530.704914,275.734576 530.800044,276.411673 L492.478175,284.030824 C493.001077,288.117605 493.392061,292.245634 493.646721,296.410504 L532.706444,296.406007 C532.74114,297.089552 532.772785,297.773902 532.801366,298.459043 L493.914354,302.285601 C493.971316,304.183429 494,306.088365 494,308 C494,310.24665 493.960381,312.484047 493.881803,314.71153 L532.757718,318.535151 C532.726035,319.222545 532.691267,319.909135 532.653429,320.594906 L493.582948,320.588944 C493.306611,324.746096 492.894419,328.866086 492.350774,332.944514 L530.66135,340.560088 C530.56252,341.241898 530.460632,341.922718 530.355701,342.602533 L491.481011,338.76734 C490.801653,342.871316 489.988661,346.93018 489.046657,350.939311 L526.411814,362.268705 C526.245912,362.938609 526.077009,363.60733 525.905119,364.274851 L487.608536,356.651427 C486.53065,360.662785 485.322685,364.620861 483.98944,368.520855 L520.038233,383.44788 C519.80664,384.098704 519.572136,384.748148 519.334736,385.396196 L481.995328,374.064881 C480.529951,377.944442 478.939265,381.762491 477.228206,385.51409 L511.605108,403.884555 C511.309226,404.511745 511.010532,405.137346 510.709041,405.761344 L474.696784,390.8393 C472.859794,394.550928 470.903209,398.192831 468.832065,401.759971 L501.201921,423.384018 C500.844326,423.981498 500.484037,424.577181 500.121073,425.17105 L465.789312,406.815049 C463.600758,410.324479 461.299097,413.756088 458.889429,417.104776 L488.940734,441.760701 C488.524626,442.322648 488.105963,442.882588 487.684761,443.440504 L455.367307,421.840529 C452.849676,425.116828 450.225962,428.30736 447.501301,431.406987 L474.947114,458.845828 C474.476698,459.366132 474.003883,459.884226 473.528688,460.400094 L443.534334,435.779552 C440.712964,438.792988 437.792988,441.712964 434.779552,444.534334 L459.360775,474.480102 C458.840253,474.953629 458.317502,475.424748 457.792539,475.893441 L430.406987,448.501301 C427.30736,451.225962 424.116828,453.849676 420.840529,456.367307 L442.329311,488.51831 C441.763399,488.940109 441.195437,489.359309 440.625442,489.775893 L416.104776,459.889429 C412.756088,462.299097 409.324479,464.600758 405.815049,466.789312 L424.012196,500.824561 C423.406609,501.189694 422.799162,501.552054 422.189873,501.911624 L400.759971,469.832065 C397.192831,471.903209 393.550928,473.859794 389.8393,475.696784 L404.581037,511.275071 C403.941333,511.579552 403.299964,511.881103 402.656949,512.179706 L384.51409,478.228206 C380.762491,479.939265 376.944442,481.529951 373.064881,482.995328 L384.222739,519.760893 C383.554434,520.001485 382.884661,520.239003 382.213438,520.473431 L367.520855,484.98944 C363.620861,486.322685 359.662785,487.53065 355.651427,488.608536 L363.133197,526.195892 C362.442102,526.36997 361.749736,526.540852 361.056115,526.708519 L349.939311,490.046657 C345.93018,490.988661 341.871316,491.801653 337.76734,492.481011 L341.519543,530.52016 C340.81257,530.625755 340.104522,530.728061 339.395415,530.827063 L331.944514,493.350774 C327.866086,493.894419 323.746096,494.306611 319.588944,494.582948 L319.593993,532.706444 C318.877866,532.742794 318.160855,532.775795 317.442976,532.805433 L313.71153,494.881803 C311.484047,494.960381 309.24665,495 307,495 C305.088365,495 303.183429,494.971316 301.285601,494.914354 L297.56272,532.762208 C296.842624,532.729328 296.12341,532.693063 295.405094,532.653429 L295.410504,494.646721 C291.245634,494.392061 287.117605,494.001077 283.030824,493.478175 L275.63256,530.68919 C274.91878,530.586356 274.206084,530.480172 273.494486,530.370654 L277.216366,492.64115 C273.095847,491.981658 269.020276,491.187552 264.994306,490.263484 L254.012663,526.481301 C253.312021,526.308751 252.61267,526.132919 251.914628,525.953822 L259.299225,488.861285 C255.26321,487.799678 251.280526,486.606553 247.356034,485.28677 L232.91353,520.166489 C232.232931,519.925617 231.553836,519.681563 230.876263,519.434345 L241.833042,483.331841 C237.921992,481.877611 234.072769,480.296263 230.290395,478.592818 L212.541808,511.805701 C211.887436,511.498677 211.234783,511.188594 210.58387,510.875471 L224.99033,476.10483 C221.241882,474.272726 217.563775,472.31894 213.961154,470.248616 L193.093269,501.48678 C192.470927,501.11639 191.850523,500.743083 191.232077,500.366877 L208.936607,467.255596 C205.385822,465.064504 201.913833,462.75798 198.525872,460.341258 L174.750011,489.317794 C174.166093,488.887953 173.584327,488.45536 173.004732,488.020033 L193.821583,456.873765 C190.5011,454.345548 187.267744,451.708776 184.126809,448.968741 L157.680568,475.421543 C157.140585,474.936398 156.602961,474.448678 156.067716,473.958403 L179.787509,445.063065 C176.728187,442.2223 173.76412,439.280358 170.900632,436.24256 L142.041597,459.932284 C141.551322,459.397039 141.063602,458.859415 140.578457,458.319432 L166.967252,431.938003 C164.197338,428.81072 161.530573,425.589977 158.972285,422.281103 L127.979967,442.995268 C127.54464,442.415673 127.112047,441.833907 126.682206,441.249989 L155.482406,417.619671 C153.029541,414.23518 150.6873,410.765284 148.460988,407.215289 L115.633123,424.767923 C115.256716,424.149147 114.883211,423.528411 114.512627,422.905734 L145.447912,402.240528 C143.337257,398.630132 141.344168,394.942627 139.473896,391.183264 L105.12457,405.416214 C104.811359,404.765119 104.50119,404.112284 104.194082,403.457728 L136.968392,385.943698 C135.222779,382.141939 133.600921,378.271563 132.107976,374.337727 L96.5657266,385.123934 C96.3185822,384.446565 96.0746002,383.767676 95.8337984,383.087282 L130.13466,368.882653 C128.773272,364.926995 127.540851,360.911321 126.442418,356.840654 L90.0463274,364.085954 C89.8671806,363.387727 89.6913005,362.68819 89.5187045,361.987361 L125.020123,351.222527 C124.057195,347.15299 123.227241,343.032037 122.535101,338.86451 L85.6293457,342.505514 C85.5198277,341.793916 85.4136437,341.08122 85.3108102,340.36744 L121.675231,333.138828 C121.118709,328.996961 120.697779,324.812129 120.417052,320.588944 L83.3465715,320.594906 C83.3069555,319.876923 83.2707057,319.158041 83.2378377,318.438278 L120.121684,314.809648 C120.040791,312.549753 120,310.27964 120,308 C120,306.055504 120.029679,304.11794 120.088609,302.187736 L83.194526,298.558024 C83.2241744,297.839811 83.2571895,297.122466 83.293556,296.406007 L120.353279,296.410504 C120.611961,292.17986 121.011306,287.98723 121.546697,283.837233 L85.1729375,276.604585 C85.2719388,275.895478 85.3742451,275.18743 85.4798405,274.480457 L122.374371,278.11955 C123.046324,273.935275 123.857098,269.797404 124.801819,265.71081 L89.2917222,254.942886 C89.4593124,254.249599 89.6301134,253.557566 89.8041085,252.866803 L126.188519,260.110282 C127.270435,256.014592 128.487819,251.973947 129.835587,247.993431 L95.5265435,233.786635 C95.7609794,233.115388 95.9985062,232.445591 96.239107,231.777261 L131.769729,242.560531 C133.251417,238.594666 134.863884,234.692586 136.601883,230.85954 L103.82076,213.342048 C104.119366,212.699035 104.420919,212.057668 104.725404,211.417965 L139.063642,225.646535 C140.929079,221.849692 142.919487,218.125346 145.0295,214.478862 L114.088376,193.810127 C114.447916,193.200889 114.810245,192.593494 115.175346,191.987958 L147.992806,209.535192 C150.221778,205.943336 152.569062,202.432583 155.029212,199.008376 L126.224107,175.374558 C126.640691,174.804563 127.059891,174.236601 127.48169,173.670689 L158.464054,194.379264 C161.032831,191.026178 163.712584,187.762597 166.497823,184.594009 L140.105663,158.208464 C140.574652,157.683164 141.04607,157.160078 141.519898,156.639225 L170.370833,180.321811 C173.253189,177.238682 176.238682,174.253189 179.321811,171.370833 L155.599906,142.471312 C156.116103,141.995813 156.63453,141.522698 157.15517,141.051984 L183.594009,167.497823 C186.762597,164.712584 190.026178,162.032831 193.379264,159.464054 L172.560491,128.314487 C173.118078,127.893539 173.677686,127.475127 174.239299,127.059266 L198.008376,156.029212 C201.432583,153.569062 204.943336,151.221778 208.535192,148.992806 L190.82895,115.878927 C191.422819,115.515963 192.018502,115.155674 192.615982,114.798079 L213.478862,146.0295 C217.125346,143.919487 220.849692,141.929079 224.646535,140.063642 L210.23885,105.290865 C210.862585,104.989502 211.487923,104.690933 212.114847,104.395174 L229.85954,137.601883 C233.692586,135.863884 237.594666,134.251417 241.560531,132.769729 L230.603919,96.6652223 C231.252162,96.4277511 231.901802,96.1931774 232.552824,95.961517 L246.993431,130.835587 C250.973947,129.487819 255.014592,128.270435 259.110282,127.188519 L251.725786,90.0947172 C252.392782,89.9229647 253.060975,89.7541939 253.73035,89.5884198 L264.71081,125.801819 C268.797404,124.857098 272.935275,124.046324 277.11955,123.374371 L273.397467,85.6442992 C274.07695,85.5394195 274.757438,85.4375798 275.438914,85.3387946 L282.837233,122.546697 C286.98723,122.011306 291.17986,121.611961 295.410504,121.353279 L295.405094,83.3465715 C296.090865,83.3087329 296.777455,83.2739652 297.464849,83.242282 L301.187736,121.088609 C303.11794,121.029679 305.055504,121 307,121 C309.27964,121 311.549753,121.040791 313.809648,121.121684 L317.540957,83.1986336 Z M285.153996,334.336532 L284.65098,334.611616 L196.467444,383.492548 C194.992976,384.309859 193.604959,385.274217 192.324588,386.370896 C181.838278,395.352756 180.61868,411.134826 189.600539,421.621137 C199.509052,433.189313 208.187436,441.611626 215.635692,446.888076 C243.03241,466.2963 279.862418,476.889338 299.695124,477.362592 C319.474853,477.83458 353.207085,475.781941 385.838511,457.906996 C395.62795,452.543694 408.899494,442.425868 425.653143,427.553517 C427.576533,425.846109 429.224937,423.852128 430.54017,421.641961 C437.53032,409.895445 433.782984,394.740801 422.194578,387.587835 L421.841017,387.37354 L334.460729,335.375026 C319.339567,326.376682 300.615551,325.995443 285.153996,334.336532 Z M342.71538,147.201949 C329.046457,147.260123 317.986412,158.277437 317.823595,171.894689 L317.822005,172.30812 L318.254755,273.98886 C318.329691,291.596307 327.658717,307.852086 342.789312,316.805536 L343.254302,317.077333 L430.571317,367.489835 C432.031297,368.332755 433.572794,369.025837 435.172271,369.558498 C448.272077,373.92102 462.428091,366.838052 466.790614,353.738247 C471.603215,339.286942 474.352848,327.510303 475.039513,318.40833 C477.565255,284.928784 467.676405,247.903488 457.867463,230.659797 C448.084723,213.462168 428.951884,185.60519 396.823638,166.840876 C387.184458,161.211993 371.676438,155.047126 350.299578,148.346272 C347.845424,147.576986 345.287258,147.191003 342.71538,147.201949 Z M269.481126,147.458136 C254.559629,150.515954 242.985944,154.023021 234.760071,157.979339 C204.503063,172.531754 177.382641,199.608398 167.353638,216.725037 C157.351424,233.795952 142.792993,264.293966 142.606743,301.5 C142.551578,312.662216 144.966656,329.17499 149.851976,351.03832 C150.412832,353.548323 151.357644,355.956751 152.653062,358.178589 C159.537905,369.987137 174.6092,374.05676 186.483495,367.389138 L186.842332,367.183799 L274.684061,315.968657 C289.895089,307.100037 299.308493,290.892974 299.497111,273.312769 L299.5,272.774177 L299.5,171.949173 C299.5,170.263334 299.329478,168.581817 298.991037,166.930299 C296.219189,153.404273 283.007152,144.686289 269.481126,147.458136 Z M308,298 C302.477153,298 298,302.477153 298,308 C298,313.522847 302.477153,318 308,318 C313.522847,318 318,313.522847 318,308 C318,302.477153 313.522847,298 308,298 Z" id="path-2"></path>
        <filter x="-12.9%" y="-12.5%" width="125.8%" height="125.8%" filterUnits="objectBoundingBox" id="filter-3">
            <feGaussianBlur stdDeviation="17" in="SourceGraphic"></feGaussianBlur>
        </filter>
        <filter x="-13.8%" y="-13.4%" width="127.6%" height="127.6%" filterUnits="objectBoundingBox" id="filter-4">
            <feMorphology radius="1" operator="dilate" in="SourceAlpha" result="shadowSpreadOuter1"></feMorphology>
            <feOffset dx="0" dy="2" in="shadowSpreadOuter1" result="shadowOffsetOuter1"></feOffset>
            <feGaussianBlur stdDeviation="3" in="shadowOffsetOuter1" result="shadowBlurOuter1"></feGaussianBlur>
            <feComposite in="shadowBlurOuter1" in2="SourceAlpha" operator="out" result="shadowBlurOuter1"></feComposite>
            <feColorMatrix values="0 0 0 0 0   0 0 0 0 0   0 0 0 0 0  0 0 0 0.5 0" type="matrix" in="shadowBlurOuter1"></feColorMatrix>
        </filter>
        <linearGradient x1="50%" y1="12.8768505%" x2="50%" y2="102.575071%" id="linearGradient-5">
            <stop stop-color="#D0DEDC" offset="0%"></stop>
            <stop stop-color="#878484" offset="100%"></stop>
        </linearGradient>
        <linearGradient x1="50%" y1="0%" x2="50%" y2="100%" id="linearGradient-6">
            <stop stop-color="#B2B9BE" offset="0%"></stop>
            <stop stop-color="#7F8E8E" offset="100%"></stop>
        </linearGradient>
        <path d="M317.258983,83.1870456 C318.132403,83.2223982 319.00454,83.2627298 319.875367,83.3080128 L320.380059,121.47131 C324.068375,121.732064 327.727151,122.099782 331.353304,122.571378 L339.311437,85.1612291 C340.173891,85.2813083 341.034781,85.4062765 341.894077,85.5361045 L338.647267,123.666814 C342.285602,124.286996 345.888109,125.01228 349.451551,125.83943 L361.068102,89.2943786 C361.912097,89.4984452 362.754234,89.7072702 363.594484,89.9208236 L356.605762,127.65063 C360.158124,128.625506 363.668222,129.70253 367.132702,130.878345 L382.312104,95.5610546 C383.129686,95.8470283 383.945115,96.1375883 384.758359,96.4327038 L374.079278,133.39122 C377.509943,134.710013 380.891899,136.127002 384.221705,137.638745 L402.832367,103.901847 C403.61679,104.26694 404.398757,104.636423 405.178237,105.010263 L390.894441,140.8296 C394.170212,142.476766 397.390906,144.217384 400.553022,146.047954 L422.428682,114.229507 C423.173489,114.670293 423.915535,115.11525 424.654788,115.564347 L406.889844,149.886027 C409.980246,151.84251 413.009339,153.887098 415.973594,156.01626 L440.913262,126.434811 C441.610997,126.946448 442.305675,127.46201 442.997262,127.981465 L421.910679,160.461186 C424.788769,162.705991 427.599471,165.033169 430.339239,167.439175 L458.111257,140.391656 C458.755795,140.969299 459.396981,141.550606 460.034784,142.135544 L435.821907,172.44906 C438.461801,174.958698 441.028461,177.54465 443.518352,180.203379 L473.863535,155.964211 C474.44848,156.602015 475.029795,157.243203 475.607447,157.887742 L448.493202,185.730592 C450.871339,188.480197 453.170674,191.29984 455.387698,194.186012 L488.018535,173.002738 C488.53799,173.694325 489.053552,174.389003 489.565189,175.086738 L459.803803,200.177236 C461.899,203.141081 463.910138,206.168573 465.833749,209.256242 L500.435878,191.345582 C500.884899,192.084712 501.329781,192.826635 501.770493,193.571318 L469.646107,215.656282 C471.438014,218.805602 473.14109,222.012048 474.751927,225.27221 L510.989737,210.821763 C511.363577,211.601243 511.73306,212.38321 512.098153,213.167633 L477.920176,232.02147 C479.391149,235.325593 480.769126,238.680251 482.050781,242.082121 L519.567296,231.241641 C519.862537,232.05523 520.153218,232.871006 520.439309,233.688937 L484.54113,249.117848 C485.676616,252.543327 486.715735,256.012733 487.655276,259.522851 L526.079431,252.406517 C526.29298,253.246766 526.501801,254.088903 526.705863,254.932897 L489.441502,266.777658 C490.231724,270.290074 490.923112,273.839894 491.512589,277.424045 L530.463895,274.105923 C530.593774,274.965551 530.718788,275.826774 530.83891,276.689563 L492.578532,284.82879 C493.018921,288.392261 493.359058,291.986793 493.596033,295.609477 L532.692039,296.125634 C532.737284,296.995796 532.777585,297.867266 532.812914,298.740017 L493.936791,303.089964 C493.978844,304.721529 494,306.358294 494,308 C494,309.976351 493.969341,311.945541 493.908472,313.907121 L532.770481,318.254492 C532.731211,319.129957 532.686938,320.004121 532.63769,320.876954 L493.527699,321.394071 C493.271982,325.007303 492.913613,328.592181 492.45549,332.145805 L530.701543,340.28158 C530.576796,341.149836 530.447092,342.01649 530.31246,342.881514 L491.34749,339.563238 C490.741326,343.129174 490.03421,346.660726 489.229184,350.154851 L526.479331,361.995337 C526.269224,362.848345 526.054252,363.699439 525.834446,364.548587 L487.397552,357.429853 C486.445099,360.913921 485.394412,364.357421 484.248653,367.75719 L520.1332,383.180464 C519.839202,384.009995 519.540477,384.83729 519.237056,385.662315 L481.708626,374.818959 C480.419619,378.187233 479.036007,381.508705 477.56104,384.780125 L511.726074,403.627718 C511.35022,404.427053 510.969799,405.223815 510.584847,406.017973 L474.336929,391.562435 C472.725701,394.782715 471.024251,397.950002 469.235893,401.060983 L501.348359,423.138993 C500.893882,423.900536 500.435034,424.659169 499.971849,425.414856 L465.360886,407.498758 C463.444732,410.542075 461.443278,413.52628 459.359879,416.448018 L489.111289,441.530064 C488.58249,442.246098 488.049546,442.958884 487.512493,443.668387 L454.874056,422.47957 C452.672903,425.318678 450.391796,428.092686 448.034111,430.798217 L475.139964,458.632254 C474.541753,459.295598 473.939649,459.955363 473.333689,460.611513 L442.981714,436.367261 C440.516768,438.977488 437.977488,441.516768 435.367261,443.981714 L459.573501,474.286334 C458.911522,474.890087 458.245924,475.48994 457.576745,476.085857 L429.798217,449.034111 C427.092686,451.391796 424.318678,453.672903 421.47957,455.874056 L442.561164,488.345269 C441.841241,488.883294 441.117989,489.417111 440.391445,489.946681 L415.448018,460.359879 C412.52628,462.443278 409.542075,464.444732 406.498758,466.360886 L424.259976,500.674948 C423.489614,501.140782 422.716233,501.602127 421.93987,502.058945 L400.060983,470.235893 C396.950002,472.024251 393.782715,473.725701 390.562435,475.336929 L404.844273,511.149568 C404.02993,511.538474 403.212883,511.922627 402.393167,512.301993 L383.780125,478.56104 C380.508705,480.036007 377.187233,481.419619 373.818959,482.708626 L384.496623,519.662092 C383.646206,519.969498 382.793406,520.271925 381.938259,520.569337 L366.75719,485.248653 C363.357421,486.394412 359.913921,487.445099 356.429853,488.397552 L363.417419,526.124101 C362.537784,526.346899 361.656086,526.564515 360.772356,526.776916 L349.154851,490.229184 C345.660726,491.03421 342.129174,491.741326 338.563238,492.34749 L341.809974,530.476586 C340.909868,530.612231 340.008015,530.742544 339.104448,530.867492 L331.145805,493.45549 C327.592181,493.913613 324.007303,494.271982 320.394071,494.527699 L319.888382,532.69131 C318.976338,532.738789 318.062856,532.780836 317.147968,532.817421 L312.907121,494.908472 C310.945541,494.969341 308.976351,495 307,495 C305.358294,495 303.721529,494.978844 302.089964,494.936791 L297.856398,532.775428 C296.939845,532.734762 296.024716,532.688613 295.111046,532.637013 L294.609477,494.596033 C290.986793,494.359058 287.392261,494.018921 283.82879,493.578532 L275.925126,530.731143 C275.01581,530.601359 274.108246,530.466138 273.202468,530.325515 L276.424045,492.512589 C272.839894,491.923112 269.290074,491.231724 265.777658,490.441502 L254.298955,526.551607 C253.406834,526.333149 252.516801,526.109371 251.628892,525.880309 L258.522851,488.655276 C255.012733,487.715735 251.543327,486.676616 248.117848,485.54113 L233.193272,520.265284 C232.326045,519.959658 231.461252,519.648868 230.598932,519.332951 L241.082121,483.050781 C237.680251,481.769126 234.325593,480.391149 231.02147,478.920176 L212.811035,511.931801 C211.976571,511.541631 211.144897,511.14649 210.31605,510.746416 L224.27221,475.751927 C221.012048,474.14109 217.805602,472.438014 214.656282,470.646107 L193.348666,501.638552 C192.555603,501.167975 191.765679,500.692664 190.978933,500.212659 L208.256242,466.833749 C205.168573,464.910138 202.141081,462.899 199.177236,460.803803 L174.989189,489.493618 C174.244817,488.94717 173.503931,488.396252 172.766569,487.840905 L193.186012,456.387698 C190.29984,454.170674 187.480197,451.871339 184.730592,449.493202 L157.901762,475.620011 C157.213242,475.003046 156.528547,474.381902 155.847714,473.756617 L179.203379,444.518352 C176.54465,442.028461 173.958698,439.461801 171.44906,436.821907 L142.242461,460.151282 C141.617487,459.47078 140.99665,458.786419 140.379989,458.098238 L166.439175,431.339239 C164.033169,428.599471 161.705991,425.788769 159.461186,422.910679 L128.159095,443.233431 C127.603498,442.495737 127.052334,441.754515 126.505644,441.009805 L155.01626,416.973594 C152.887098,414.009339 150.84251,410.980246 148.886027,407.889844 L115.787951,425.022068 C115.307537,424.23466 114.831826,423.44407 114.360856,422.650336 L145.047954,401.553022 C143.217384,398.390906 141.476766,395.170212 139.8296,391.894441 L105.253181,405.683116 C104.853344,404.854751 104.458435,404.023562 104.06849,403.189587 L136.638745,385.221705 C135.127002,381.891899 133.710013,378.509943 132.39122,375.079278 L96.6670904,385.401181 C96.3512679,384.539121 96.0405695,383.67459 95.7350323,382.807626 L129.878345,368.132702 C128.70253,364.668222 127.625506,361.158124 126.65063,357.605762 L90.1198623,364.371773 C89.890664,363.483348 89.6667562,362.592796 89.4481745,361.700154 L124.83943,350.451551 C124.01228,346.888109 123.286996,343.285602 122.666814,339.647267 L85.6744853,342.797532 C85.5338617,341.891754 85.3986409,340.98419 85.2688568,340.074874 L121.571378,332.353304 C121.099782,328.727151 120.732064,325.068375 120.47131,321.380059 L83.3630436,320.889954 C83.3114204,319.975951 83.2652526,319.06049 83.2245724,318.143602 L120.094999,314.017938 C120.031825,312.019709 120,310.013571 120,308 C120,306.321074 120.022126,304.647316 120.066101,302.979001 L83.1825792,298.852032 C83.2191638,297.937144 83.2612113,297.023662 83.3086899,296.111618 L120.403115,295.622506 C120.64473,291.92497 120.993813,288.256757 121.44727,284.620959 L85.1325081,276.895552 C85.2574557,275.991985 85.3877688,275.090132 85.5234141,274.190026 L122.501275,277.339867 C123.104359,273.683437 123.81351,270.062771 124.625464,266.481135 L89.2230843,255.227644 C89.4354851,254.343914 89.6531014,253.462216 89.8758987,252.582581 L126.392002,259.34657 C127.353678,255.767847 128.418888,252.231533 129.584224,248.741037 L95.430609,234.061897 C95.7280385,233.206697 96.0304833,232.353846 96.337908,231.503377 L132.047382,241.822158 C133.358679,238.357341 134.769948,234.941655 136.27767,231.578622 L103.698472,213.60583 C104.077686,212.78645 104.461685,211.969738 104.850432,211.155727 L139.413022,224.939209 C141.05961,221.623364 142.801709,218.363331 144.635723,215.162709 L113.941055,194.06013 C114.398025,193.28351 114.859523,192.509874 115.325515,191.739259 L148.410724,208.864905 C150.374638,205.729798 152.428937,202.657088 154.569971,199.650426 L126.053319,175.608555 C126.582889,174.882011 127.116706,174.158759 127.654731,173.438836 L158.945021,193.754169 C161.205822,190.828628 163.551405,187.971939 165.978088,185.187785 L139.913249,158.424259 C140.50946,157.754742 141.109611,157.088809 141.713666,156.426499 L170.910116,179.747379 C173.444968,177.058619 176.058619,174.444968 178.747379,171.910116 L155.388487,142.666311 C156.044966,142.060047 156.705064,141.457643 157.368745,140.859136 L184.187785,166.978088 C186.971939,164.551405 189.828628,162.205822 192.754169,159.945021 L172.331613,128.487507 C173.041116,127.950454 173.753902,127.41751 174.469936,126.888711 L198.650426,155.569971 C201.657088,153.428937 204.729798,151.374638 207.864905,149.410724 L190.585144,116.028151 C191.340831,115.564966 192.099464,115.106118 192.861007,114.651641 L214.162709,145.635723 C217.363331,143.801709 220.623364,142.05961 223.939209,140.413022 L209.982303,105.41502 C210.776529,105.030035 211.573361,104.649584 212.372765,104.273699 L230.578622,137.27767 C233.941655,135.769948 237.357341,134.358679 240.822158,133.047382 L230.337719,96.7629311 C231.162661,96.4595411 231.989872,96.1608456 232.819319,95.866877 L247.741037,130.584224 C251.231533,129.418888 254.767847,128.353678 258.34657,127.392002 L251.452129,90.1653691 C252.301046,89.9456255 253.151909,89.7307133 254.004685,89.5206636 L265.481135,125.625464 C269.062771,124.81351 272.683437,124.104359 276.339867,123.501275 L273.118486,85.68754 C273.98351,85.5529081 274.850164,85.423204 275.71842,85.2984573 L283.620959,122.44727 C287.256757,121.993813 290.92497,121.64473 294.622506,121.403115 L295.124046,83.3622533 C295.996547,83.3130281 296.870377,83.2687742 297.745508,83.2295194 L301.979001,121.066101 C303.647316,121.022126 305.321074,121 307,121 C309.013571,121 311.019709,121.031825 313.017938,121.094999 L317.258983,83.1870456 Z M285.153996,334.336532 L284.65098,334.611616 L196.467444,383.492548 C194.992976,384.309859 193.604959,385.274217 192.324588,386.370896 C181.838278,395.352756 180.61868,411.134826 189.600539,421.621137 C199.509052,433.189313 208.187436,441.611626 215.635692,446.888076 C243.03241,466.2963 279.862418,476.889338 299.695124,477.362592 C319.474853,477.83458 353.207085,475.781941 385.838511,457.906996 C395.62795,452.543694 408.899494,442.425868 425.653143,427.553517 C427.576533,425.846109 429.224937,423.852128 430.54017,421.641961 C437.53032,409.895445 433.782984,394.740801 422.194578,387.587835 L421.841017,387.37354 L334.460729,335.375026 C319.339567,326.376682 300.615551,325.995443 285.153996,334.336532 Z M342.71538,147.201949 C329.046457,147.260123 317.986412,158.277437 317.823595,171.894689 L317.822005,172.30812 L318.254755,273.98886 C318.329691,291.596307 327.658717,307.852086 342.789312,316.805536 L343.254302,317.077333 L430.571317,367.489835 C432.031297,368.332755 433.572794,369.025837 435.172271,369.558498 C448.272077,373.92102 462.428091,366.838052 466.790614,353.738247 C471.603215,339.286942 474.352848,327.510303 475.039513,318.40833 C477.565255,284.928784 467.676405,247.903488 457.867463,230.659797 C448.084723,213.462168 428.951884,185.60519 396.823638,166.840876 C387.184458,161.211993 371.676438,155.047126 350.299578,148.346272 C347.845424,147.576986 345.287258,147.191003 342.71538,147.201949 Z M269.481126,147.458136 C254.559629,150.515954 242.985944,154.023021 234.760071,157.979339 C204.503063,172.531754 177.382641,199.608398 167.353638,216.725037 C157.351424,233.795952 142.792993,264.293966 142.606743,301.5 C142.551578,312.662216 144.966656,329.17499 149.851976,351.03832 C150.412832,353.548323 151.357644,355.956751 152.653062,358.178589 C159.537905,369.987137 174.6092,374.05676 186.483495,367.389138 L186.842332,367.183799 L274.684061,315.968657 C289.895089,307.100037 299.308493,290.892974 299.497111,273.312769 L299.5,272.774177 L299.5,171.949173 C299.5,170.263334 299.329478,168.581817 298.991037,166.930299 C296.219189,153.404273 283.007152,144.686289 269.481126,147.458136 Z M308,298 C302.477153,298 298,302.477153 298,308 C298,313.522847 302.477153,318 308,318 C313.522847,318 318,313.522847 318,308 C318,302.477153 313.522847,298 308,298 Z" id="path-7"></path>
        <filter x="-3.9%" y="-3.5%" width="107.8%" height="107.8%" filterUnits="objectBoundingBox" id="filter-8">
            <feMorphology radius="0.5" operator="dilate" in="SourceAlpha" result="shadowSpreadOuter1"></feMorphology>
            <feOffset dx="0" dy="2" in="shadowSpreadOuter1" result="shadowOffsetOuter1"></feOffset>
            <feGaussianBlur stdDeviation="5" in="shadowOffsetOuter1" result="shadowBlurOuter1"></feGaussianBlur>
            <feComposite in="shadowBlurOuter1" in2="SourceAlpha" operator="out" result="shadowBlurOuter1"></feComposite>
            <feColorMatrix values="0 0 0 0 0   0 0 0 0 0   0 0 0 0 0  0 0 0 0.5 0" type="matrix" in="shadowBlurOuter1"></feColorMatrix>
        </filter>
    </defs>
    <g id="Page-1" stroke="none" stroke-width="1" fill="none" fill-rule="evenodd">
        <g id="Apple-gear" filter="url(#filter-1)" transform="translate(111.000000, 110.000000)">
            <g id="shadow" filter="url(#filter-3)" transform="translate(307.997946, 308.002033) rotate(-28.000000) translate(-307.997946, -308.002033) ">
                <use fill="black" fill-opacity="1" filter="url(#filter-4)" xlink:href="#path-2"></use>
                <use stroke="#282828" stroke-width="2" fill-opacity="0.13" fill="#000000" fill-rule="evenodd" xlink:href="#path-2"></use>
            </g>
            <g id="gear-bigg" transform="translate(307.997946, 308.002033) rotate(-30.000000) translate(-307.997946, -308.002033) ">
                <use fill="black" fill-opacity="1" filter="url(#filter-8)" xlink:href="#path-7"></use>
                <path stroke="url(#linearGradient-6)" stroke-width="2" d="M318.149008,84.2258015 L318.887868,84.2599528 L319.392335,122.406235 C323.069669,122.648108 326.717815,122.996847 330.333698,123.44938 L332.138936,123.684281 L340.095399,86.2819807 L340.456801,86.334133 L340.456801,86.334133 L340.818017,86.3868601 L337.572671,124.500376 C341.201634,125.100463 344.795146,125.8056 348.349978,126.61256 L350.124156,127.02451 L361.738236,90.4872308 L362.089383,90.5739949 L362.089383,90.5739949 L362.440312,90.6613109 L355.454743,128.374098 C358.999632,129.327979 362.502653,130.384005 365.960457,131.538825 L367.685576,132.124453 L382.861706,96.8147757 L383.199716,96.9349061 L383.199716,96.9349061 L383.537477,97.0555621 L372.86318,133.99752 C376.288592,135.294795 379.665699,136.690318 382.991063,138.18065 L384.649417,138.9337 L403.256007,105.204185 L403.579402,105.356671 L403.579402,105.356671 L403.902515,105.509657 L389.625038,141.313145 C392.897981,142.938649 396.116247,144.657716 399.276337,146.466843 L400.851519,147.378896 L422.722304,115.567539 L423.336494,115.935827 L405.579288,150.242558 C408.66938,152.177594 411.698551,154.2009 414.663268,156.308944 L416.14024,157.37001 L441.07423,127.795295 L441.64895,128.221829 L420.571392,160.687649 C423.451566,162.911432 426.264721,165.217798 429.007309,167.6032 L430.372706,168.80247 L458.138237,141.761268 L458.403968,142.001798 L458.403968,142.001798 L458.669312,142.242747 L434.46662,172.543511 C437.110937,175.032798 439.682366,177.598647 442.177365,180.237517 L443.418479,181.56302 L473.756349,157.329693 L473.997312,157.595051 L473.997312,157.595051 L474.237856,157.860795 L447.134823,185.692133 C449.519598,188.422228 451.825889,191.22264 454.050177,194.089852 L455.155471,195.529008 L487.778154,174.351027 L488.204695,174.925757 L458.455396,200.006065 C460.559237,202.951278 462.579312,205.960436 464.512138,209.030059 L465.471264,210.569894 L500.064402,192.663887 L500.43245,193.277678 L468.320871,215.353838 C470.123323,218.485574 471.837203,221.674747 473.459087,224.917935 L474.262348,226.544014 L510.490341,212.097481 L510.643328,212.420594 L510.643328,212.420594 L510.795814,212.743991 L476.631181,231.590467 C478.114458,234.878217 479.504959,238.216821 480.799344,241.602942 L481.438512,243.299947 L518.944439,232.462527 L519.065279,232.800803 L519.065279,232.800803 L519.185591,233.13933 L483.301085,248.562364 C484.45048,251.972935 485.503679,255.427753 486.457457,258.923591 L486.926045,260.674914 L525.338933,253.560666 L525.426249,253.9116 L525.426249,253.9116 L525.513012,254.262752 L488.262422,266.103136 C489.06791,269.602243 489.774682,273.139072 490.379651,276.710532 L490.673637,278.499134 L529.613145,275.182018 L529.665942,275.543718 L529.665942,275.543718 L529.718163,275.905605 L491.471407,284.041934 C491.928141,287.593872 492.284684,291.177177 492.538115,294.788925 L492.656224,296.597156 L531.740096,297.113154 L531.757422,297.481503 L531.757422,297.481503 L531.774155,297.850006 L492.911252,302.198473 C492.970274,304.125086 493,306.059071 493,308 C493,309.706856 492.977012,311.408342 492.931327,313.104166 L492.878088,314.798093 L531.727641,319.14407 L531.709073,319.516814 L531.709073,319.516814 L531.689897,319.889399 L492.592843,320.406344 C492.35494,324.019203 492.013884,327.603884 491.57259,331.157469 L491.343603,332.931658 L529.576786,341.064694 L529.521633,341.435345 L529.521633,341.435345 L529.465875,341.805799 L490.513507,338.488596 C489.925378,342.055423 489.235773,345.588037 488.447753,349.083374 L488.045556,350.827922 L525.282651,362.664258 L525.19064,363.029845 L525.19064,363.029845 L525.09803,363.395193 L486.673183,356.278689 C485.738745,359.765039 484.705532,363.210978 483.576726,366.613323 L483.004373,368.310848 L518.875916,383.728533 L518.747294,384.08569 L518.747294,384.08569 L518.618084,384.442565 L481.100986,373.602483 C479.82973,376.974552 478.463313,380.29996 477.005009,383.575434 L476.268216,385.208995 L510.420511,404.04956 L510.255089,404.396785 L510.255089,404.396785 L510.08909,404.74368 L473.851678,390.292332 C472.257687,393.518034 470.572906,396.69086 468.800674,399.807473 L467.907286,401.36108 L500.007477,423.430651 L499.603682,424.098243 L465.002339,406.187124 C463.102768,409.237406 461.117326,412.228668 459.049395,415.15753 L458.008571,416.616745 L487.748352,441.688987 L487.511972,442.005704 L487.511972,442.005704 L487.275048,442.321989 L454.645325,421.138829 C452.460005,423.986352 450.194164,426.768843 447.851209,429.482897 L446.67332,430.834205 L473.768342,458.65712 L473.498947,458.952832 L473.498947,458.952832 L473.229033,459.24806 L442.884862,435.010041 C440.435013,437.629969 437.910283,440.178996 435.314084,442.653711 L434.010044,443.884859 L458.2064,474.177106 L457.906359,474.447992 L457.906359,474.447992 L457.605828,474.718343 L429.834204,447.673321 C427.143051,450.041892 424.382894,452.333915 421.557137,454.545985 L420.138808,455.645341 L441.211607,488.103007 L440.883111,488.345918 L440.883111,488.345918 L440.554158,488.588243 L415.616743,459.008573 C412.708781,461.103901 409.737856,463.117305 406.707349,465.045402 L405.187146,466.002326 L422.94079,500.301756 L422.588021,500.512626 L422.588021,500.512626 L422.234834,500.722867 L400.361082,468.907285 C397.2633,470.708574 394.108748,472.422969 390.900764,474.047131 L389.292335,474.851677 L403.567959,510.648736 L403.193061,510.825421 L403.193061,510.825421 L402.817784,511.001433 L384.209006,477.26821 C380.950262,478.757054 377.641038,480.154558 374.284608,481.457445 L372.602474,482.10099 L383.275414,519.038106 L382.882133,519.177982 L382.882133,519.177982 L382.488514,519.317146 L367.310845,484.004374 C363.923118,485.164955 360.491266,486.230475 357.018474,487.197749 L355.27868,487.673185 L362.263119,525.382853 L361.853145,525.484443 L361.853145,525.484443 L361.442875,525.58528 L349.827915,489.045558 C346.345094,489.866296 342.824484,490.589131 339.269151,491.210999 L337.488605,491.513505 L340.733882,529.625475 L340.311363,529.686927 L340.311363,529.686927 L339.888589,529.747592 L331.931651,492.343604 C328.38852,492.818229 324.813809,493.193101 321.210433,493.465307 L319.40637,493.592841 L318.900907,531.739423 L318.038052,531.779119 L313.79809,493.878088 C311.542068,493.959132 309.275807,494 307,494 C305.706046,494 304.415178,493.986789 303.127523,493.960493 L301.198466,493.911252 L296.966785,531.733045 L296.098637,531.689271 L295.597172,493.656225 C291.97602,493.437246 288.382824,493.114668 284.820508,492.691412 L283.041937,492.471408 L275.141842,529.607243 L274.709911,529.543323 L274.709911,529.543323 L274.278248,529.478581 L277.499144,491.673639 C273.916228,491.102691 270.367429,490.429426 266.855836,489.656929 L265.103155,489.262426 L253.62966,525.356147 L253.20588,525.250043 L253.20588,525.250043 L252.782419,525.143134 L259.674907,487.926044 C256.165488,487.005497 252.696552,485.984992 249.271326,484.867753 L247.56237,484.301087 L232.644544,519.009536 L232.231587,518.861588 L232.231587,518.861588 L231.819005,518.712855 L242.299933,482.438507 C238.89807,481.176254 235.543168,479.817329 232.238563,478.365072 L230.590467,477.631181 L212.388191,510.628014 L211.989343,510.438999 L211.989343,510.438999 L211.590928,510.249222 L225.544045,475.262363 C222.282942,473.671236 219.075285,471.987545 215.924493,470.21471 L214.353852,469.320879 L193.055655,500.299626 L192.675788,500.071564 L192.675788,500.071564 L192.29641,499.842773 L209.56989,466.471262 C206.480214,464.567619 203.450423,462.576147 200.483996,460.500328 L199.006079,459.455406 L174.828547,488.132749 L174.471101,487.867503 L174.471101,487.867503 L174.1142,487.601564 L194.529019,456.155479 C191.639635,453.958621 188.816464,451.679173 186.063025,449.320654 L184.692132,448.134822 L157.874758,474.250474 L157.543476,473.950539 L157.543476,473.950539 L157.212796,473.649953 L180.56303,444.418488 C177.899913,441.949059 175.309227,439.40261 172.794512,436.782682 L171.543502,435.466611 L142.349142,458.786211 L142.049012,458.456029 L142.049012,458.456029 L141.74953,458.125247 L167.80245,431.372683 C165.390805,428.653718 163.057605,425.863596 160.806395,423.005864 L159.68764,421.57138 L128.398419,441.885776 L128.132121,441.528393 L128.132121,441.528393 L127.866517,441.170462 L156.370018,417.14025 C154.233822,414.197109 152.181775,411.188925 150.21741,408.119232 L149.242551,406.579276 L116.157829,423.704587 L115.928439,423.324217 L115.928439,423.324217 L115.699782,422.943357 L146.378901,401.851528 C144.539847,398.710921 142.790271,395.511555 141.133674,392.256929 L140.313139,390.625027 L105.750387,404.408253 L105.560949,404.010547 L105.560949,404.010547 L105.372271,403.612411 L137.933693,385.649402 C136.411858,382.341389 134.984257,378.981059 133.654332,375.571852 L132.997525,373.863191 L97.2871862,384.181109 L97.1385932,383.768918 L97.1385932,383.768918 L96.9907838,383.356352 L131.124452,368.685574 C129.936795,365.24294 128.847374,361.75453 127.859538,358.223695 L127.374102,356.454758 L90.857031,363.218231 L90.7499318,362.79402 L90.7499318,362.79402 L90.6436399,362.369487 L126.024517,351.124183 C125.183702,347.582324 124.444174,344.001246 123.809158,340.384179 L123.500374,338.572661 L86.5214242,341.721787 L86.456682,341.290122 L86.456682,341.290122 L86.3927614,340.858189 L122.684285,333.138959 C122.197237,329.533906 121.813472,325.896076 121.536062,322.228545 L121.406234,320.39232 L84.3107826,319.902384 L84.2884558,319.467903 L84.2884558,319.467903 L84.2669548,319.033204 L121.125922,314.908823 C121.042216,312.616228 121,310.313044 121,308 C121,306.51637 121.017369,305.036796 121.051914,303.561472 L121.092178,302.08757 L84.2208806,297.961969 L84.2605742,297.099154 L121.342988,296.610201 C121.565596,292.924773 121.895514,289.268297 122.329662,285.643857 L122.555408,283.834321 L86.2524071,276.111416 L86.3130707,275.688653 L86.3130707,275.688653 L86.374521,275.266146 L123.339803,278.414916 C123.93449,274.694031 124.639534,271.009978 125.451476,267.366219 L125.805985,265.807085 L90.4147193,254.557127 L90.5155548,254.146863 L90.5155548,254.146863 L90.6171435,253.736895 L127.120325,260.49849 C128.079645,256.855924 129.146678,253.257063 130.317812,249.705519 L130.82609,248.186337 L96.6828019,233.511635 L96.8219893,233.117948 L96.8219893,233.117948 L96.9618892,232.724599 L132.658309,243.039608 C133.973285,239.511935 135.392269,236.034923 136.911532,232.612301 L137.568774,231.148804 L104.999029,213.181227 L105.17481,212.806447 L105.17481,212.806447 L105.351262,212.432044 L139.900866,226.210347 C141.523347,222.901836 143.241196,219.64858 145.05083,216.454162 L145.963279,214.861873 L115.277139,193.765157 L115.487603,193.411595 L115.487603,193.411595 L115.698698,193.058453 L148.77117,210.177505 C150.71026,207.047699 152.739619,203.979698 154.855613,200.977136 L155.920812,199.481326 L127.411749,175.445852 L127.654076,175.116898 L127.654076,175.116898 L127.896987,174.788401 L159.174955,195.095734 C161.410381,192.173361 163.730502,189.319215 166.131651,186.536962 L167.33896,185.151843 L141.280777,158.395152 L141.822896,157.793597 L171.007581,181.10508 C173.516671,178.417265 176.104502,175.803903 178.767396,173.268669 L180.105082,172.007579 L156.751937,142.77097 L157.343854,142.230773 L184.151842,168.338961 C186.910024,165.91091 189.740709,163.563275 192.640231,161.299724 L194.095712,160.174972 L173.678017,128.724947 L173.994305,128.488022 L173.994305,128.488022 L174.311023,128.251641 L198.481323,156.920814 C201.461972,154.776042 204.508667,152.717298 207.617772,150.748219 L209.177509,149.771168 L191.901748,116.396323 L192.56934,115.992528 L213.861876,146.963277 C217.036579,145.123149 220.270718,143.374209 223.560709,141.720039 L225.210343,140.900869 L211.256592,105.91078 L211.60358,105.744737 L211.60358,105.744737 L211.950898,105.579272 L230.148779,138.568785 C233.555789,137.020945 237.017721,135.57285 240.530848,134.228232 L242.039597,133.658313 L231.55748,97.3818993 L231.914226,97.2527367 L231.914226,97.2527367 L232.271252,97.1241612 L247.186343,131.826088 C250.724284,130.625287 254.310059,129.528071 257.940054,128.538052 L259.498463,128.120332 L252.60552,90.9017889 L253.335764,90.7173432 L264.807078,126.805987 C268.439258,125.963573 272.112227,125.227562 275.822522,124.601415 L277.414924,124.339802 L274.194229,86.5341205 L274.564671,86.4783645 L274.564671,86.4783645 L274.93531,86.4232134 L282.834313,123.555409 C286.447992,123.086602 290.09422,122.721513 293.769914,122.46322 L295.610202,122.342988 L296.111637,84.310049 L296.483714,84.2909007 L296.483714,84.2909007 L296.85595,84.2723579 L301.087568,122.092178 C303.050863,122.030878 305.021825,122 307,122 C308.734787,122 310.464028,122.023747 312.187415,122.070934 L313.90884,122.125923 L318.149008,84.2258015 Z M334.473313,334.222649 C319.138177,325.33002 300.280423,325.040001 284.679206,333.456433 L284.679206,333.456433 L284.171172,333.734243 L195.982635,382.617928 L195.41185,382.943818 C194.090052,383.720815 192.839202,384.613432 191.674064,385.61141 C186.221183,390.281977 183.177647,396.720599 182.664973,403.3548 C182.152298,409.989 184.170487,416.818779 188.841054,422.271661 C198.816919,433.918472 207.559132,442.392027 215.057631,447.70407 C242.634843,467.240159 279.710092,477.885988 299.671269,478.362307 C319.567771,478.837082 353.496566,476.763572 386.318936,458.784031 C396.152135,453.396755 409.487928,443.240681 426.317013,428.301365 C428.317339,426.52566 430.031679,424.45192 431.399521,422.153347 C435.044299,416.028522 435.882447,409.01296 434.247741,402.573388 C432.62249,396.171068 428.55218,390.336362 422.359203,386.518235 L422.359203,386.518235 L334.972115,334.515675 Z M342.711124,146.201958 C335.583926,146.232291 329.138737,149.12714 324.460883,153.844982 C319.810089,158.535532 316.905135,165.029564 316.82198,172.304462 L316.82198,172.304462 L317.254764,273.993116 L317.259966,274.536918 C317.524038,292.286937 327.002726,308.625871 342.28005,317.666147 L342.28005,317.666147 L342.749664,317.940665 L430.071317,368.355861 L430.644635,368.677273 C431.991427,369.410092 433.400785,370.022548 434.856309,370.50727 C441.668208,372.775781 448.754721,372.068466 454.705388,369.091047 C460.656054,366.113629 465.470874,360.866108 467.739386,354.054208 C472.5847,339.504671 475.345382,327.646929 476.03668,318.483557 C478.579062,284.783443 468.609154,247.520744 458.736673,230.165354 C448.896178,212.866195 429.644212,184.851478 397.327967,165.977364 C387.645698,160.32332 372.071803,154.123079 350.59869,147.392054 C348.04637,146.591996 345.385877,146.190574 342.711124,146.201958 Z M288.819655,150.247849 C283.265801,146.58313 276.313905,145.037134 269.280371,146.478495 C254.257445,149.557098 242.607998,153.095148 234.326637,157.078153 C203.87029,171.726443 176.584801,198.991985 166.490832,216.219501 C156.429569,233.391198 141.794095,264.071248 141.606755,301.494994 C141.551344,312.707107 143.968726,329.294617 148.876043,351.25639 C149.459333,353.866793 150.441938,356.371559 151.789173,358.682271 C155.379041,364.839439 161.108648,368.973712 167.533346,370.665932 C173.920879,372.348362 180.997353,371.61711 187.339176,368.051675 L187.339176,368.051675 L275.187742,316.832547 L275.656088,316.556141 C290.896019,307.452438 300.306607,291.074186 300.497054,273.323498 L300.497054,273.323498 L300.499986,272.779541 L300.5,171.949173 L300.491692,171.291959 C300.452936,169.759193 300.27866,168.232426 299.970679,166.729544 C298.529318,159.696011 294.373508,153.912568 288.819655,150.247849 Z M308,297 C304.962434,297 302.212434,298.231217 300.221825,300.221825 C298.231217,302.212434 297,304.962434 297,308 C297,311.037566 298.231217,313.787566 300.221825,315.778175 C302.212434,317.768783 304.962434,319 308,319 C311.037566,319 313.787566,317.768783 315.778175,315.778175 C317.768783,313.787566 319,311.037566 319,308 C319,304.962434 317.768783,302.212434 315.778175,300.221825 C313.787566,298.231217 311.037566,297 308,297 Z" stroke-linejoin="square" fill="url(#linearGradient-5)" fill-rule="evenodd"></path>
            </g>
        </g>
    </g>
</svg>