<?xml version="1.0" encoding="UTF-8"?>
<svg width="17px" height="20px" viewBox="0 0 17 20" version="1.1" xmlns="http://www.w3.org/2000/svg" xmlns:xlink="http://www.w3.org/1999/xlink">
    <title>bag</title>
    <g id="Page-1" stroke="none" stroke-width="1" fill="none" fill-rule="evenodd">
        <g id="image_small-bag" transform="translate(0.000000, -12.000000)" fill="#000000" fill-rule="nonzero">
            <path d="M14.5,15.98 L12.712,15.98 C12.527113,13.7912124 10.6965824,12.1087879 8.5,12.1087879 C6.30341756,12.1087879 4.472887,13.7912124 4.288,15.98 L2.5,15.98 C1.83695878,15.98 1.20107399,16.2433921 0.732233047,16.712233 C0.263392101,17.181074 0,17.8169588 0,18.48 L0,29.48 C0,30.8607119 1.11928813,31.98 2.5,31.98 L14.5,31.98 C15.8807119,31.98 17,30.8607119 17,29.48 L17,18.48 C17,17.8169588 16.7366079,17.181074 16.267767,16.712233 C15.798926,16.2433921 15.1630412,15.98 14.5,15.98 Z M8.5,13.105 C10.1448351,13.1100997 11.5253591,14.3457805 11.712,15.98 L5.288,15.98 C5.47464094,14.3457805 6.85516495,13.1100997 8.5,13.105 L8.5,13.105 Z M16,29.48 C16,30.3084271 15.3284271,30.98 14.5,30.98 L2.5,30.98 C1.67157288,30.98 1,30.3084271 1,29.48 L1,18.48 C1,17.6515729 1.67157288,16.98 2.5,16.98 L14.5,16.98 C15.3284271,16.98 16,17.6515729 16,18.48 L16,29.48 Z" id="bag"></path>
        </g>
    </g>
</svg>