<?xml version="1.0" encoding="UTF-8"?>
<svg width="34px" height="42px" viewBox="0 0 34 42" version="1.1" xmlns="http://www.w3.org/2000/svg" xmlns:xlink="http://www.w3.org/1999/xlink">
    <title>apple</title>
    <g id="Page-1" stroke="none" stroke-width="1" fill="none" fill-rule="evenodd">
        <g id="apple" fill="#FFFFFF" fill-rule="nonzero">
            <path d="M17,8.965 C8.158,8.965 0.966,16.159 0.966,25 C0.966,33.841 8.158,41.035 17,41.035 C25.842,41.035 33.034,33.841 33.034,25 C33.034,16.159 25.842,8.965 17,8.965 Z M17,39.965 C8.748,39.965 2.034,33.252 2.034,25 C2.034,16.748 8.748,10.035 17,10.035 C25.252,10.035 31.966,16.748 31.966,25 C31.966,33.252 25.252,39.965 17,39.965 Z" id="Shape"></path>
            <path d="M22.7527997,29.25749 C21.7034703,28.6966726 21.0887361,27.8558608 21.0224967,26.8907911 C20.9554494,25.9207511 21.4643621,24.9631368 22.4207948,24.2614939 C22.5185384,24.1919094 22.6049727,24.064338 22.6219365,23.944222 C22.639708,23.8224493 22.6009337,23.6807953 22.5250007,23.5838741 C21.5031364,22.2775093 20.1888492,22.0033135 19.2655362,22.0033135 C18.7436988,22.0033135 18.2016664,22.0960928 17.7387982,22.2659119 C17.607935,22.3139583 17.4875731,22.3611763 17.376097,22.4050808 C16.9544265,22.5724147 16.7128949,22.6701643 16.4115863,22.5806986 C16.313035,22.5517051 16.1991355,22.5020019 16.0682722,22.4456717 C15.6514485,22.2683971 15.0229817,22 14.2006435,22 C13.7797808,22 13.3435699,22.0704128 12.9057435,22.2095817 C11.5930719,22.6246031 10.5792855,23.7454094 10.1939659,25.2099959 C9.80541515,26.6861798 10.0081724,28.6014083 10.7343827,30.3335634 C11.0308445,31.0401767 11.3943536,31.7070275 11.8144085,32.3158912 C12.5955491,33.4491233 13.4130405,34 14.3161586,34 C14.3872448,34 14.4599466,33.9966865 14.5326484,33.989231 C14.9397785,33.9486401 15.2281624,33.8260389 15.5076605,33.7067513 C15.7427296,33.6065166 15.9866846,33.5029684 16.3388845,33.433384 C16.9649279,33.3107828 17.3300525,33.4507801 17.8260404,33.6462792 C18.1136165,33.7597681 18.4407746,33.8873395 18.8495203,33.9668646 C20.6363693,34.3131299 22.3190123,31.641585 22.9175905,29.9906116 L22.951518,29.8994892 C23.1179244,29.4662433 22.8069222,29.2839983 22.7527997,29.25749 Z" id="Shape"></path>
            <path d="M16.5182186,22 L16.5232917,22 C18.2811239,22 19.8698525,20.6249045 19.9932982,18.9640947 C20.005981,18.7975554 20.0025989,18.4194041 19.9662416,18.3009931 C19.9231202,18.1650115 19.8072842,18.0572956 19.656782,18.0183346 C19.6153516,18.0076394 19.5663115,18 19.5240356,18 C19.4614673,18 19.1418614,18.0366692 19.1148048,18.0412529 C17.6613591,18.276547 16.0675574,19.2444614 16.001607,20.8304049 C15.9948428,20.9908327 16.0100622,21.4858671 16.0354277,21.6692131 C16.0624843,21.8747135 16.2899287,22 16.5182186,22 Z" id="Shape"></path>
            <g id="arrow-down" transform="translate(8.000000, 0.000000)">
                <polygon id="Path" points="9.5 17 0 9.37931034 5.11538462 9.37931034 5.11538462 0 13.8846154 0 13.8846154 9.37931034 19 9.37931034"></polygon>
            </g>
        </g>
    </g>
</svg>