<?xml version="1.0" encoding="UTF-8"?>
<svg width="34px" height="42px" viewBox="0 0 34 42" version="1.1" xmlns="http://www.w3.org/2000/svg" xmlns:xlink="http://www.w3.org/1999/xlink">
    <title>apple</title>
    <g id="Page-1" stroke="none" stroke-width="1" fill="none" fill-rule="evenodd">
        <g id="apple" fill="#FFFFFF" fill-rule="nonzero">
            <path d="M17,8.965 C8.158,8.965 0.966,16.159 0.966,25 C0.966,33.841 8.158,41.035 17,41.035 C25.842,41.035 33.034,33.841 33.034,25 C33.034,16.159 25.842,8.965 17,8.965 Z M17,39.965 C8.748,39.965 2.034,33.252 2.034,25 C2.034,16.748 8.748,10.035 17,10.035 C25.252,10.035 31.966,16.748 31.966,25 C31.966,33.252 25.252,39.965 17,39.965 Z" id="Shape"></path>
            <g id="arrow-down" transform="translate(8.000000, 0.000000)">
                <polygon id="Path" points="9.5 17 0 9.37931034 5.11538462 9.37931034 5.11538462 0 13.8846154 0 13.8846154 9.37931034 19 9.37931034"></polygon>
            </g>
            <path d="M17.297995,19.5117094 L17.8186827,18.5961451 C18.1391059,18.0246464 18.8543363,17.8322029 19.4150769,18.1587736 C19.9758176,18.4853443 20.1646384,19.2142968 19.8442152,19.7857955 L14.8376025,28.6206992 L18.4595292,28.6206992 C19.632507,28.6206992 20.2905189,30.0261195 19.7812749,31 L9.16725599,31 C8.52068772,31 8,30.4693226 8,29.8103496 C8,29.1513766 8.52068772,28.6206992 9.16725599,28.6206992 L12.1426144,28.6206992 L15.9533619,21.8910102 L14.7632185,19.7857955 C14.4427953,19.2142968 14.6316161,18.491176 15.1923568,18.1587736 C15.7530974,17.8322029 16.4626059,18.0246464 16.788751,18.5961451 L17.297995,19.5117094 L17.297995,19.5117094 Z M13,32.7123232 L11.9813355,34.4711739 C11.6902884,34.9781368 11.0406299,35.1488488 10.5312977,34.8591557 C10.0219654,34.5694626 9.85045555,33.9228263 10.1415026,33.4158635 L10.9003037,32.1122447 C11.7526557,31.8484171 12.4490896,32.0501676 13,32.7123232 L13,32.7123232 Z M23.0602811,28.9450474 L25.906527,28.9450474 C26.5122253,28.9450474 27,29.465239 27,30.1111913 C27,30.7571435 26.5122253,31.2773352 25.906527,31.2773352 L24.3252793,31.2773352 L25.3919515,33.2494903 C25.6921205,33.8096967 25.5152352,34.5185293 24.9899393,34.8443636 C24.4646435,35.1644815 23.7999834,34.9758406 23.4944542,34.4156342 C21.6988,31.0944106 20.3480392,28.6077803 19.4528922,26.9500267 C18.5363045,25.2636911 19.1902442,23.5716392 19.8388238,23 C20.5570855,24.3147701 21.6291179,26.298358 23.0602811,28.9450474 L23.0602811,28.9450474 Z" id="Shape"></path>
        </g>
    </g>
</svg>