<?xml version="1.0" encoding="utf-8"?>
<!-- Generator: Adobe Illustrator 19.0.1, SVG Export Plug-In . SVG Version: 6.00 Build 0)  -->
<svg version="1.1" id="svg4419" xmlns:svg="http://www.w3.org/2000/svg"
	 xmlns="http://www.w3.org/2000/svg" xmlns:xlink="http://www.w3.org/1999/xlink" x="0px" y="0px" viewBox="-164 1.5 512 512"
	 style="enable-background:new -164 1.5 512 512;" xml:space="preserve">
<style type="text/css">
	.st0{fill:#0071C5;}
	.st1{fill:#FFFFFF;}
</style>
<path class="st0" d="M92,498L92,498c-132.8,0-240.5-107.7-240.5-240.5v0C-148.5,124.7-40.8,17,92,17h0
	c132.8,0,240.5,107.7,240.5,240.5v0C332.5,390.3,224.8,498,92,498z"/>
<g>
	<g id="XMLID_1_">
		<g>
			<path class="st1" d="M243.6,213.9c7.7,37.5-18.8,68.2-44.6,77.6v-16.7c21.5-12.8,33.5-35,29.7-56.4
				c-11.3-64.5-135.5-64.8-223-19.8v-5.9C93.3,139.4,229.3,143.9,243.6,213.9z"/>
			<path class="st0" d="M206.6,208.4v0.1c0,0.7-0.4,1.1-1.5,1.1c-0.1,0-0.8,0-1,0v-2.2h1C206.1,207.4,206.6,207.6,206.6,208.4z"/>
			<path class="st1" d="M206.6,208.5v-0.1c0-0.8-0.4-1-1.5-1h-1v2.2c0.1,0,0.9,0,1,0C206.1,209.6,206.6,209.2,206.6,208.5z
				 M208.4,213.6c0,0.1-0.1,0.2-0.3,0.2h-1.2c-0.1,0-0.2-0.1-0.3-0.1l-1.6-2.7c0-0.1-0.2-0.1-0.2-0.1h-0.7v2.7
				c0,0.2-0.1,0.3-0.3,0.3h-1.1c-0.1,0-0.3-0.1-0.3-0.3v-6.8c0-0.4,0.2-0.6,0.5-0.6c0.4-0.1,1.4-0.1,1.9-0.1c1.9,0,3.1,0.6,3.1,2.4
				v0.1c0,1.1-0.6,1.7-1.4,2l1.7,2.8C208.3,213.4,208.4,213.5,208.4,213.6z"/>
			<path class="st0" d="M208.4,213.6c0-0.1,0-0.1-0.1-0.2l-1.7-2.8c0.9-0.3,1.4-0.9,1.4-2v-0.1c0-1.8-1.2-2.4-3.1-2.4
				c-0.6,0-1.6,0-1.9,0.1c-0.3,0.1-0.5,0.2-0.5,0.6v6.8c0,0.2,0.1,0.3,0.3,0.3h1.1c0.2,0,0.3-0.1,0.3-0.3v-2.7h0.7
				c0.1,0,0.2,0.1,0.2,0.1l1.6,2.7c0.1,0.1,0.1,0.1,0.3,0.1h1.2C208.3,213.8,208.4,213.7,208.4,213.6z M205.3,204.8
				c2.9,0,5.2,2.4,5.2,5.3c0,2.9-2.4,5.2-5.2,5.2c-2.9,0-5.2-2.3-5.2-5.2C200.1,207.2,202.4,204.8,205.3,204.8z"/>
			<path class="st1" d="M210.5,210c0-2.9-2.4-5.3-5.2-5.3c-2.9,0-5.2,2.4-5.2,5.3c0,2.9,2.3,5.2,5.2,5.2
				C208.2,215.2,210.5,212.9,210.5,210z M205.3,203.7c3.5,0,6.3,2.8,6.3,6.3s-2.8,6.3-6.3,6.3c-3.5,0-6.3-2.8-6.3-6.3
				S201.8,203.7,205.3,203.7z"/>
			<path class="st1" d="M193.1,303.7v23.2c-29.7,16.3-72.5,26.8-105.1,30c-82.6,8-136.6-16.1-146.8-58.8
				c-7.9-33.3,5.8-61.4,31.2-83.6v8.2C-41.7,238-52.3,262.7-48,286c8.8,47.3,71.8,56,132.3,50.4C121.5,333,166.2,319.7,193.1,303.7z
				"/>
			<path class="st1" d="M188.2,203.7v87.2c-11.8-1.1-15.9-8.3-15.9-16.6v-70.6H188.2z"/>
			<path class="st1" d="M163.2,259.7v5.7h-39.9c0,8.1,5,14,13.9,14c6.9,0,10.4-1.9,14.4-5.9l9.7,9.3c-6.2,6.1-12.8,9.9-24.3,9.9
				c-15.1,0-29.5-8.2-29.5-32.1c0-20.4,12.6-32,29.1-32C153.6,228.4,163.2,242,163.2,259.7z M123.3,254.7h24.2
				c-0.3-6.7-3.4-13.3-11.4-13.3c-5.4,0-9.5,2.8-11.3,6.5C123.8,250.2,123.5,251.9,123.3,254.7z"/>
			<path class="st0" d="M147.5,254.7h-24.2c0.1-2.8,0.5-4.5,1.5-6.7c1.7-3.8,5.9-6.5,11.3-6.5C144.2,241.4,147.2,248,147.5,254.7z"
				/>
			<path class="st1" d="M103.7,278.4v13.1h-9.3c-12.8,0-18.3-8.9-18.3-17.7v-61.2h15.7v16.9h11.8v12.7H91.9v30.6
				c0,3.6,1.7,5.6,5.4,5.6H103.7z"/>
			<path class="st1" d="M64.4,248.1v43.5H48.7v-43.4c0-3.7-1.9-6-6.5-6h-13v49.4H13.4v-62.1l32.5,0
				C59.7,229.5,64.4,239.2,64.4,248.1z"/>
			<path class="st1" d="M-0.5,229.5v62.8c-11.9-1.1-15.9-8.3-15.9-16.6l0-46.1H-0.5z"/>
			<rect x="-16.4" y="205.9" class="st1" width="15.8" height="15.1"/>
		</g>
		<g>
		</g>
	</g>
</g>
</svg>
