<?xml version="1.0" encoding="UTF-8"?>
<svg width="46px" height="45px" viewBox="0 0 46 45" version="1.1" xmlns="http://www.w3.org/2000/svg" xmlns:xlink="http://www.w3.org/1999/xlink">
    <!-- Generator: Sketch 58 (84663) - https://sketch.com -->
    <title>ios search</title>
    <desc>Created with Sketch.</desc>
    <g id="Page-1" stroke="none" stroke-width="1" fill="none" fill-rule="evenodd">
        <g id="Desktop-HD" transform="translate(-57.000000, -382.000000)" fill="#FFFFFF" fill-rule="nonzero">
            <g id="ios-search" transform="translate(57.000000, 382.000000)">
                <path d="M45.3718504,41.71875 C46.2474526,42.73438 46.2076528,43.67187 45.2524508,44.53125 C44.9340493,44.8437525 44.4962559,45 43.9390552,45 C43.3818544,45 42.9042611,44.80469 42.5062599,44.4140625 L29.8499016,31.875 C26.5066948,34.5312625 22.6461483,35.859375 18.2681398,35.859375 C13.1737311,35.859375 8.85548736,34.10158 5.31328376,30.5859375 C1.7710776,27.070295 0,22.8515875 0,17.9296875 C0,13.0077875 1.7710776,8.78908 5.31328376,5.2734375 C8.85548736,1.757795 13.1737311,0 18.2681398,0 C23.3625485,0 27.6807922,1.757795 31.2229958,5.2734375 C34.765202,8.78908 36.5362796,13.0077875 36.5362796,17.9296875 C36.5362796,22.1484575 35.2228966,25.85936 32.5960925,29.0625 L45.3718504,41.71875 Z M8.11917324,27.890625 C10.9051768,30.6250125 14.2881325,31.9921875 18.2681398,31.9921875 C22.248147,31.9921875 25.6311028,30.6250125 28.4171063,27.890625 C31.2031099,25.1562375 32.5960925,21.8359575 32.5960925,17.9296875 C32.5960925,14.0234175 31.2031099,10.7031375 28.4171063,7.96875 C25.6311028,5.2343625 22.248147,3.8671875 18.2681398,3.8671875 C14.2881325,3.8671875 10.9051768,5.2343625 8.11917324,7.96875 C5.33316968,10.7031375 3.94018701,14.0234175 3.94018701,17.9296875 C3.94018701,21.8359575 5.33316968,25.1562375 8.11917324,27.890625 Z" id="Shape"></path>
            </g>
        </g>
    </g>
</svg>