<?xml version="1.0" encoding="UTF-8" standalone="no"?><!DOCTYPE svg PUBLIC "-//W3C//DTD SVG 1.1//EN" "http://www.w3.org/Graphics/SVG/1.1/DTD/svg11.dtd"><svg width="100%" height="100%" viewBox="0 0 549 549" version="1.1" xmlns="http://www.w3.org/2000/svg" xmlns:xlink="http://www.w3.org/1999/xlink" xml:space="preserve" xmlns:serif="http://www.serif.com/" style="fill-rule:evenodd;clip-rule:evenodd;stroke-linejoin:round;stroke-miterlimit:2;"><g><path d="M439.351,423.222c-89.819,89.818 -235.443,89.818 -325.261,0c-89.818,-89.818 -89.818,-235.442 0,-325.261c89.818,-89.818 235.442,-89.818 325.261,0c89.818,89.819 89.818,235.443 0,325.261Zm-92.066,-92.065c38.972,-38.972 38.972,-102.158 0,-141.13c-38.972,-38.972 -102.158,-38.972 -141.13,0c-38.972,38.972 -38.972,102.158 0,141.13c38.972,38.972 102.158,38.972 141.13,0Z" style="fill:url(#_Linear1);fill-rule:nonzero;"/><g><path d="M436.914,95.858c23.746,25.53 23.191,65.484 -1.665,90.34c-24.087,24.087 -62.355,25.353 -87.932,3.796l-0.032,0.033c-0.139,-0.139 -0.278,-0.277 -0.417,-0.415c-1.261,-1.082 -2.49,-2.22 -3.684,-3.414c-0.14,-0.141 -0.28,-0.282 -0.419,-0.423c-39.194,-34.665 -99.111,-33.247 -136.61,4.252c-38.972,38.972 -48.449,110.453 -15.57,168.111c49.282,86.422 176.689,104.618 248.708,65.084c0.043,-0.023 0.086,-0.047 0.129,-0.071c-0.024,0.023 -0.048,0.047 -0.071,0.071c-89.819,89.818 -235.443,89.818 -325.261,0c-89.818,-89.818 -89.818,-235.442 0,-325.261c89.059,-89.059 232.985,-89.811 322.972,-2.257l-0.148,0.154l0,0Z" style="fill:url(#_Linear2);fill-rule:nonzero;"/><path d="M436.914,95.858c23.746,25.53 23.191,65.484 -1.665,90.34c-24.087,24.087 -62.355,25.353 -87.932,3.796l-0.032,0.033c-0.139,-0.139 -0.278,-0.277 -0.417,-0.415c-1.261,-1.082 -2.49,-2.22 -3.684,-3.414c-0.14,-0.141 -0.28,-0.282 -0.419,-0.423c-39.194,-34.665 -99.111,-33.247 -136.61,4.252c-38.972,38.972 -48.449,110.453 -15.57,168.111c49.282,86.422 176.689,104.618 248.708,65.084c0.043,-0.023 0.086,-0.047 0.129,-0.071c-0.024,0.023 -0.048,0.047 -0.071,0.071c-89.819,89.818 -235.443,89.818 -325.261,0c-89.818,-89.818 -89.818,-235.442 0,-325.261c89.059,-89.059 232.985,-89.811 322.972,-2.257l-0.148,0.154l0,0Z" style="fill:url(#_Linear3);fill-rule:nonzero;"/><path d="M436.914,95.858c23.746,25.53 23.191,65.484 -1.665,90.34c-24.087,24.087 -62.355,25.353 -87.932,3.796l-0.032,0.033c-0.139,-0.139 -0.278,-0.277 -0.417,-0.415c-1.261,-1.082 -2.49,-2.22 -3.684,-3.414c-0.14,-0.141 -0.28,-0.282 -0.419,-0.423c-39.194,-34.665 -99.111,-33.247 -136.61,4.252c-38.972,38.972 -48.449,110.453 -15.57,168.111c49.282,86.422 176.689,104.618 248.708,65.084c0.043,-0.023 0.086,-0.047 0.129,-0.071c-0.024,0.023 -0.048,0.047 -0.071,0.071c-89.819,89.818 -235.443,89.818 -325.261,0c-89.818,-89.818 -89.818,-235.442 0,-325.261c89.059,-89.059 232.985,-89.811 322.972,-2.257l-0.148,0.154l0,0Z" style="fill:url(#_Linear4);fill-rule:nonzero;"/></g></g><defs><linearGradient id="_Linear1" x1="0" y1="0" x2="1" y2="0" gradientUnits="userSpaceOnUse" gradientTransform="matrix(-94.2513,240.053,-240.053,-94.2513,397.948,189.887)"><stop offset="0" style="stop-color:#2786d7;stop-opacity:1"/><stop offset="1" style="stop-color:#096eb4;stop-opacity:1"/></linearGradient><linearGradient id="_Linear2" x1="0" y1="0" x2="1" y2="0" gradientUnits="userSpaceOnUse" gradientTransform="matrix(386.362,-40.8955,40.8955,386.362,52.9932,225.004)"><stop offset="0" style="stop-color:#02addc;stop-opacity:1"/><stop offset="1" style="stop-color:#08e4cc;stop-opacity:1"/></linearGradient><linearGradient id="_Linear3" x1="0" y1="0" x2="1" y2="0" gradientUnits="userSpaceOnUse" gradientTransform="matrix(-2.75277,-329.874,329.874,-2.75277,443.743,462.851)"><stop offset="0" style="stop-color:#0070ec;stop-opacity:0.87"/><stop offset="0.61" style="stop-color:#0296e3;stop-opacity:0.45"/><stop offset="1" style="stop-color:#07dfd0;stop-opacity:0"/></linearGradient><linearGradient id="_Linear4" x1="0" y1="0" x2="1" y2="0" gradientUnits="userSpaceOnUse" gradientTransform="matrix(65.0319,75.9353,-75.9353,65.0319,349.87,333.757)"><stop offset="0" style="stop-color:#0089e5;stop-opacity:0"/><stop offset="1" style="stop-color:#0070ed;stop-opacity:0.81"/></linearGradient></defs></svg>