<?xml version="1.0" encoding="UTF-8"?>
<svg width="294px" height="294px" viewBox="0 0 294 294" version="1.1" xmlns="http://www.w3.org/2000/svg" xmlns:xlink="http://www.w3.org/1999/xlink">
    <!-- Generator: Sketch 58 (84663) - https://sketch.com -->
    <title>logo</title>
    <desc>Created with Sketch.</desc>
    <g id="Page-1" stroke="none" stroke-width="1" fill="none" fill-rule="evenodd">
        <g id="Desktop-HD" transform="translate(-426.000000, -645.000000)" fill="#FFFFFF">
            <path d="M573,645 C654.185858,645 720,710.814142 720,792 C720,873.185858 654.185858,939 573,939 C491.814142,939 426,873.185858 426,792 C426,710.814142 491.814142,645 573,645 Z M616.707031,729.833984 C599.861328,729.833984 585.935547,738.59375 579.871094,752.96875 L579.30957,752.96875 C574.592773,738.256836 562.688477,729.833984 546.291992,729.833984 C530.344727,729.833984 517.991211,738.59375 512.712891,751.733398 L512.151367,751.733398 L512.151367,731.855469 L489.016602,731.855469 L489.016602,850 L513.274414,850 L513.274414,777.001953 C513.274414,761.84082 523.494141,750.610352 537.869141,750.610352 C551.570312,750.610352 560.217773,759.257812 560.217773,772.84668 L560.217773,850 L584.026367,850 L584.026367,776.21582 C584.026367,761.279297 594.021484,750.610352 608.396484,750.610352 C622.771484,750.610352 630.969727,759.370117 630.969727,774.643555 L630.969727,850 L655.339844,850 L655.339844,768.803711 C655.339844,745.332031 640.066406,729.833984 616.707031,729.833984 Z" id="logo"></path>
        </g>
    </g>
</svg>