<?xml version="1.0" encoding="UTF-8"?>
<svg width="294px" height="294px" viewBox="0 0 294 294" version="1.1" xmlns="http://www.w3.org/2000/svg" xmlns:xlink="http://www.w3.org/1999/xlink">
    <title>logo</title>
    <g id="Page-1" stroke="none" stroke-width="1" fill="none" fill-rule="evenodd">
        <g id="logo-black" fill="#000000" fill-rule="nonzero">
            <path d="M147,0 C228.185858,0 294,65.814142 294,147 C294,228.185858 228.185858,294 147,294 C65.814142,294 0,228.185858 0,147 C0,65.814142 65.814142,0 147,0 Z M190.707031,84.833984 C173.861328,84.833984 159.935547,93.59375 153.871094,107.96875 L153.30957,107.96875 C148.592773,93.256836 136.688477,84.833984 120.291992,84.833984 C104.344727,84.833984 91.991211,93.59375 86.712891,106.733398 L86.151367,106.733398 L86.151367,86.855469 L63.016602,86.855469 L63.016602,205 L87.274414,205 L87.274414,132.001953 C87.274414,116.84082 97.494141,105.610352 111.869141,105.610352 C125.570312,105.610352 134.217773,114.257812 134.217773,127.84668 L134.217773,205 L158.026367,205 L158.026367,131.21582 C158.026367,116.279297 168.021484,105.610352 182.396484,105.610352 C196.771484,105.610352 204.969727,114.370117 204.969727,129.643555 L204.969727,205 L229.339844,205 L229.339844,123.803711 C229.339844,100.332031 214.066406,84.833984 190.707031,84.833984 Z" id="logo"></path>
        </g>
    </g>
</svg>