<?xml version="1.0" encoding="UTF-8"?>
<svg width="512px" height="512px" viewBox="0 0 512 512" version="1.1" xmlns="http://www.w3.org/2000/svg" xmlns:xlink="http://www.w3.org/1999/xlink">
    <!-- Generator: Sketch 58 (84663) - https://sketch.com -->
    <title>mail</title>
    <desc>Created with Sketch.</desc>
    <g id="Page-1" stroke="none" stroke-width="1" fill="none" fill-rule="evenodd">
        <g id="mail" fill-rule="nonzero">
            <path d="M502,50 L502,462 C502,484.089844 484.089844,502 462,502 L50,502 C27.910156,502 10,484.089844 10,462 L10,50 C10,27.910156 27.910156,10 50,10 L462,10 C484.089844,10 502,27.910156 502,50 Z" id="Path" fill="#709193"></path>
            <path d="M386,53 C386,58.523438 381.523438,63 376,63 C370.476562,63 366,58.523438 366,53 C366,47.476562 370.476562,43 376,43 C381.523438,43 386,47.476562 386,53 Z" id="Path" fill="#000000"></path>
            <path d="M462,0 L50,0 C22.429688,0 0,22.429688 0,50 L0,462 C0,489.570312 22.429688,512 50,512 L462,512 C489.570312,512 512,489.570312 512,462 L512,50 C512,22.429688 489.570312,0 462,0 Z M492,462 C492,478.542969 478.542969,492 462,492 L50,492 C33.457031,492 20,478.542969 20,462 L20,50 C20,33.457031 33.457031,20 50,20 L462,20 C478.542969,20 492,33.457031 492,50 L492,462 Z" id="Shape" fill="#000000"></path>
            <g id="md-mail-unread" transform="translate(76.000000, 120.000000)" fill="#000000" fill-opacity="0.718121722">
                <path d="M282.140625,86.859375 C272.046824,76.765574 267,64.812568 267,51 C267,37.187432 272.046824,25.234426 282.140625,15.140625 C292.234426,5.046824 304.187432,0 318,0 C331.812568,0 343.765574,5.046824 353.859375,15.140625 C363.953176,25.234426 369,37.187432 369,51 C369,64.812568 363.953176,76.765574 353.859375,86.859375 C343.765574,96.953176 331.812568,102 318,102 C304.187432,102 292.234426,96.953176 282.140625,86.859375 Z M278.919643,110.840909 C291.104234,118.795488 304.083266,122.772727 317.857143,122.772727 C331.63102,122.772727 344.345187,119.06064 356,111.636364 L356,258.795455 C356,268.34096 352.689014,276.428005 346.066956,283.05681 C339.444915,289.685632 331.366122,293 321.830357,293 L34.1696429,293 C24.6338777,293 16.555085,289.685632 9.93304419,283.05681 C3.31098648,276.428005 0,268.34096 0,258.795455 L0,47.2045455 C0,37.65904 3.31098648,29.5719952 9.93304419,22.9431903 C16.555085,16.3143685 24.6338777,13 34.1696429,13 L257.464286,13 C250.047585,24.6667176 246.339286,37.3938715 246.339286,51.1818182 C246.339286,66.5606909 250.312466,79.8181309 258.258929,90.9545455 L178,144.25 L38.1428571,51.1818182 L38.1428571,85.3863636 L178,178.454545 L278.919643,110.840909 Z" id="Shape"></path>
            </g>
            <path d="M136,63 L336,63 C341.523438,63 346,58.523438 346,53 C346,47.476562 341.523438,43 336,43 L136,43 C130.476562,43 126,47.476562 126,53 C126,58.523438 130.476562,63 136,63 Z" id="Path" fill="#000000"></path>
        </g>
    </g>
</svg>