<?xml version="1.0" encoding="UTF-8"?>
<svg width="468px" height="468px" viewBox="0 0 468 468" version="1.1" xmlns="http://www.w3.org/2000/svg" xmlns:xlink="http://www.w3.org/1999/xlink">
    <!-- Generator: Sketch 58 (84663) - https://sketch.com -->
    <title>Group</title>
    <desc>Created with Sketch.</desc>
    <g id="Page-1" stroke="none" stroke-width="1" fill="none" fill-rule="evenodd">
        <g id="OpenCore" transform="translate(-92.000000, -92.000000)" fill-rule="nonzero" stroke="#000000">
            <g id="Group">
                <g id="Group-2-Copy-18" transform="translate(326.665680, 326.100013) rotate(-45.000000) translate(-326.665680, -326.100013) translate(96.165680, 95.600013)">
                    <path d="M230.100013,0 C357.180741,0 460.200025,103.019285 460.200025,230.100013 C460.200025,357.180741 357.180741,460.200025 230.100013,460.200025 C103.019285,460.200025 0,357.180741 0,230.100013 C0,103.019285 103.019285,0 230.100013,0 Z M230.100013,130.260007 C174.9599,130.260007 130.260007,174.9599 130.260007,230.100013 C130.260007,285.240125 174.9599,329.940018 230.100013,329.940018 C285.240125,329.940018 329.940018,285.240125 329.940018,230.100013 C329.940018,174.9599 285.240125,130.260007 230.100013,130.260007 Z" id="Combined-Shape" stroke-width="6.95"></path>
                    <path d="M230.100013,0 C355.909933,0 458.137233,100.969201 460.169198,226.294888 L460.174,226.883 L459.964274,226.889087 C458.702016,261.747948 430.044755,289.619953 394.877638,289.619953 C360.797221,289.619953 332.830553,263.44388 329.985878,230.099977 L329.940018,230.100013 L329.932782,229.438038 C329.810089,227.804739 329.747635,226.154638 329.747635,224.48995 C329.747635,224.314273 329.74833,224.138759 329.749719,223.963409 C326.584041,171.680952 283.179217,130.260007 230.100013,130.260007 C174.9599,130.260007 117.686603,174.123828 100.157491,238.173005 C73.8837769,334.17386 151.142931,437.178884 230.059444,460.159457 L230.204,460.199 L230.100013,460.200025 C104.290092,460.200025 2.06279184,359.230824 0.0308268276,233.905137 L3.12638804e-12,230.100013 C3.12638804e-12,103.019285 103.019285,0 230.100013,0 Z" id="Combined-Shape" stroke-width="4.95"></path>
                </g>
            </g>
        </g>
    </g>
</svg>