<?xml version="1.0" encoding="UTF-8"?>
<svg width="28px" height="33px" viewBox="0 0 28 33" version="1.1" xmlns="http://www.w3.org/2000/svg" xmlns:xlink="http://www.w3.org/1999/xlink">
    <title>clip-board</title>
    <g id="Page-1" stroke="none" stroke-width="1" fill="none" fill-rule="evenodd">
        <g id="clip-board" fill="#FFFFFF" fill-rule="nonzero">
            <path d="M19,14 L11,14 C10.724,14 10.5,14.224 10.5,14.5 C10.5,14.776 10.724,15 11,15 L19,15 C19.276,15 19.5,14.776 19.5,14.5 C19.5,14.224 19.276,14 19,14 Z" id="Path"></path>
            <path d="M19,19 L11,19 C10.724,19 10.5,19.224 10.5,19.5 C10.5,19.776 10.724,20 11,20 L19,20 C19.276,20 19.5,19.776 19.5,19.5 C19.5,19.224 19.276,19 19,19 Z" id="Path"></path>
            <path d="M19,24 L11,24 C10.724,24 10.5,24.224 10.5,24.5 C10.5,24.776 10.724,25 11,25 L19,25 C19.276,25 19.5,24.776 19.5,24.5 C19.5,24.224 19.276,24 19,24 Z" id="Path"></path>
            <path d="M21.5,4 L19,4 L19,3.5 C19,2.673 18.327,2 17.5,2 L15,2 L15,0.5 C15,0.224 14.776,0 14.5,0 L8.5,0 C8.224,0 8,0.224 8,0.5 L8,2 L5.5,2 C4.673,2 4,2.673 4,3.5 L4,4 L1.5,4 C0.673,4 0,4.673 0,5.5 L0,30.5 C0,31.327 0.673,32 1.5,32 L21.5,32 C22.327,32 23,31.327 23,30.5 L23,5.5 C23,4.673 22.327,4 21.5,4 Z M5,3.5 C5,3.225 5.225,3 5.5,3 L8.5,3 C8.776,3 9,2.776 9,2.5 L9,1 L14,1 L14,2.5 C14,2.776 14.224,3 14.5,3 L17.5,3 C17.775,3 18,3.225 18,3.5 L18,5.5 C18,5.775 17.775,6 17.5,6 L5.5,6 C5.225,6 5,5.775 5,5.5 L5,3.5 Z M22,30.5 C22,30.775 21.775,31 21.5,31 L1.5,31 C1.225,31 1,30.775 1,30.5 L1,5.5 C1,5.225 1.225,5 1.5,5 L4,5 L4,5.5 C4,6.327 4.673,7 5.5,7 L17.5,7 C18.327,7 19,6.327 19,5.5 L19,5 L21.5,5 C21.775,5 22,5.225 22,5.5 L22,30.5 Z" id="Shape"></path>
            <path d="M8.166,13.605 L6.73,15.041 L6.117,14.427 C5.922,14.232 5.605,14.232 5.41,14.427 C5.215,14.622 5.215,14.939 5.41,15.134 L6.377,16.102 C6.471,16.196 6.598,16.248 6.731,16.248 C6.864,16.248 6.991,16.195 7.085,16.102 L8.874,14.313 C9.069,14.118 9.069,13.801 8.874,13.606 C8.679,13.411 8.361,13.41 8.166,13.605 Z" id="Path"></path>
            <path d="M8.166,17.885 L6.73,19.32 L6.117,18.706 C5.922,18.511 5.605,18.511 5.41,18.706 C5.215,18.901 5.215,19.218 5.41,19.413 L6.377,20.381 C6.471,20.475 6.598,20.527 6.731,20.527 C6.864,20.527 6.991,20.474 7.085,20.381 L8.874,18.592 C9.069,18.397 9.069,18.08 8.874,17.885 C8.679,17.69 8.361,17.689 8.166,17.885 Z" id="Path"></path>
            <path d="M8.166,23.164 L6.73,24.6 L6.117,23.986 C5.922,23.791 5.605,23.791 5.41,23.986 C5.215,24.181 5.215,24.498 5.41,24.693 L6.377,25.661 C6.471,25.755 6.598,25.807 6.731,25.807 C6.864,25.807 6.991,25.754 7.085,25.661 L8.874,23.872 C9.069,23.677 9.069,23.36 8.874,23.165 C8.679,22.97 8.361,22.969 8.166,23.164 Z" id="Path"></path>
            <path d="M26.8288614,28.8383267 C26.1024025,28.4644484 25.6768173,27.9039072 25.6309592,27.2605274 C25.5845419,26.613834 25.9368661,25.9754245 26.5990118,25.5076626 C26.6666804,25.461273 26.7265196,25.3762253 26.7382637,25.296148 C26.7505671,25.2149662 26.7237234,25.1205302 26.6711544,25.0559161 C25.9637098,24.1850062 25.0538187,24.002209 24.414602,24.002209 C24.0533299,24.002209 23.6780768,24.0640619 23.3576295,24.1772746 C23.2670319,24.2093055 23.1837044,24.2407842 23.1065287,24.2700538 C22.8146029,24.3816098 22.6473888,24.4467762 22.4387905,24.3871324 C22.3705627,24.3678034 22.2917092,24.334668 22.2011115,24.2971145 C21.9125413,24.1789314 21.4774489,24 20.9081378,24 C20.6167713,24 20.3147792,24.0469419 20.0116685,24.1397211 C19.1028959,24.416402 18.4010438,25.1636062 18.1342841,26.1399972 C17.8652874,27.1241198 18.0056578,28.4009388 18.5084188,29.555709 C18.7136616,30.0267845 18.9653217,30.4713516 19.256129,30.8772608 C19.7969186,31.6327489 20.3628742,32 20.9881098,32 C21.0373233,32 21.0876553,31.997791 21.1379874,31.9928207 C21.4198467,31.96576 21.619497,31.884026 21.8129957,31.8045009 C21.9757359,31.7376778 22.1446278,31.6686456 22.3884585,31.622256 C22.8218731,31.5405219 23.0746517,31.6338534 23.418028,31.7641861 C23.6171191,31.8398454 23.8436132,31.924893 24.126591,31.9779097 C25.3636403,32.2087533 26.528547,30.4277233 26.9429473,29.3270744 L26.9664356,29.2663261 C27.08164,28.9774955 26.8663308,28.8559989 26.8288614,28.8383267 Z" id="Shape" stroke="#0E0E0E"></path>
            <path d="M22.3886639,24 L22.3924688,24 C23.7108429,24 24.9023894,22.9686784 24.9949736,21.723071 C25.0044857,21.5981665 25.0019492,21.3145531 24.9746812,21.2257448 C24.9423401,21.1237586 24.8554631,21.0429717 24.7425865,21.013751 C24.7115137,21.0057296 24.6747336,21 24.6430267,21 C24.5961004,21 24.3563961,21.0275019 24.3361036,21.0309396 C23.2460193,21.2074102 22.050668,21.9333461 22.0012052,23.1228037 C21.9961321,23.2431245 22.0075466,23.6144003 22.0265708,23.7519099 C22.0468632,23.9060351 22.2174465,24 22.3886639,24 Z" id="Shape" stroke="#0E0E0E"></path>
        </g>
    </g>
</svg>