<?xml version="1.0" encoding="UTF-8"?>
<svg width="32px" height="32px" viewBox="0 0 32 32" version="1.1" xmlns="http://www.w3.org/2000/svg" xmlns:xlink="http://www.w3.org/1999/xlink">
    <title>money-bag</title>
    <g id="Page-1" stroke="none" stroke-width="1" fill="none" fill-rule="evenodd">
        <g id="money-bag" fill="#FFFFFF" fill-rule="nonzero">
            <path d="M32,8.5 C32,7.673 31.327,7 30.5,7 L26,7 L26,1.908 C26,1.165 25.778,0.626 25.342,0.305 C24.856,-0.05 24.166,-0.091 23.301,0.182 L0.359,6.883 C0.119,6.953 -0.019,7.189 0.014,7.43 C0.011,7.454 0,7.475 0,7.5 L0,30.5 C0,31.327 0.673,32 1.5,32 L30.5,32 C31.327,32 32,31.327 32,30.5 L32,8.5 Z M31,24 L21.5,24 C21.225,24 21,23.776 21,23.5 L21,15.5 C21,15.224 21.225,15 21.5,15 L31,15 L31,24 Z M23.592,1.139 C24.13,0.97 24.543,0.958 24.75,1.111 C24.957,1.263 25,1.628 25,1.908 L25,7 L3.526,7 L23.592,1.139 Z M30.5,31 L1.5,31 C1.225,31 1,30.776 1,30.5 L1,8 L30.5,8 C30.775,8 31,8.224 31,8.5 L31,14 L21.5,14 C20.673,14 20,14.673 20,15.5 L20,23.5 C20,24.327 20.673,25 21.5,25 L31,25 L31,30.5 C31,30.776 30.775,31 30.5,31 Z" id="Shape"></path>
            <path d="M25.351,21.605 C26.544,21.605 27.516,20.634 27.516,19.441 C27.516,18.248 26.544,17.276 25.351,17.276 C24.158,17.276 23.187,18.247 23.187,19.441 C23.187,20.635 24.157,21.605 25.351,21.605 Z M25.351,18.277 C25.994,18.277 26.516,18.799 26.516,19.442 C26.516,20.085 25.994,20.606 25.351,20.606 C24.709,20.606 24.187,20.084 24.187,19.442 C24.187,18.8 24.709,18.277 25.351,18.277 Z" id="Shape"></path>
        </g>
    </g>
</svg>