<?xml version="1.0" encoding="UTF-8"?>
<svg width="556px" height="549px" viewBox="0 0 556 549" version="1.1" xmlns="http://www.w3.org/2000/svg" xmlns:xlink="http://www.w3.org/1999/xlink">
    <title>Apple-Device-VK</title>
    <defs>
        <filter x="-20.5%" y="-20.4%" width="141.3%" height="141.4%" filterUnits="objectBoundingBox" id="filter-1">
            <feOffset dx="8" dy="14" in="SourceAlpha" result="shadowOffsetOuter1"></feOffset>
            <feGaussianBlur stdDeviation="6" in="shadowOffsetOuter1" result="shadowBlurOuter1"></feGaussianBlur>
            <feColorMatrix values="0 0 0 0 0   0 0 0 0 0   0 0 0 0 0  0 0 0 0.140637805 0" type="matrix" in="shadowBlurOuter1" result="shadowMatrixOuter1"></feColorMatrix>
            <feMerge>
                <feMergeNode in="shadowMatrixOuter1"></feMergeNode>
                <feMergeNode in="SourceGraphic"></feMergeNode>
            </feMerge>
        </filter>
        <linearGradient x1="34.8648158%" y1="4.49287144%" x2="74.7577862%" y2="91.6855314%" id="linearGradient-2">
            <stop stop-color="#D5E4EB" offset="0%"></stop>
            <stop stop-color="#92918E" offset="100%"></stop>
        </linearGradient>
        <linearGradient x1="23.8654845%" y1="9.42190837%" x2="80.4073226%" y2="88.0615354%" id="linearGradient-3">
            <stop stop-color="#9D9D9D" offset="0%"></stop>
            <stop stop-color="#B2B2B2" offset="100%"></stop>
        </linearGradient>
        <linearGradient x1="50%" y1="0%" x2="50%" y2="100%" id="linearGradient-4">
            <stop stop-color="#282828" offset="0%"></stop>
            <stop stop-color="#FFFDFD" offset="100%"></stop>
        </linearGradient>
        <ellipse id="path-5" cx="302.90395" cy="302.542726" rx="241" ry="236"></ellipse>
        <filter x="-6.0%" y="-6.1%" width="112.0%" height="112.3%" filterUnits="objectBoundingBox" id="filter-6">
            <feMorphology radius="13" operator="erode" in="SourceAlpha" result="shadowSpreadInner1"></feMorphology>
            <feGaussianBlur stdDeviation="10" in="shadowSpreadInner1" result="shadowBlurInner1"></feGaussianBlur>
            <feOffset dx="0" dy="20" in="shadowBlurInner1" result="shadowOffsetInner1"></feOffset>
            <feComposite in="shadowOffsetInner1" in2="SourceAlpha" operator="arithmetic" k2="-1" k3="1" result="shadowInnerInner1"></feComposite>
            <feColorMatrix values="0 0 0 0 0   0 0 0 0 0   0 0 0 0 0  0 0 0 0.754496968 0" type="matrix" in="shadowInnerInner1"></feColorMatrix>
        </filter>
        <filter x="-10.0%" y="-10.2%" width="120.0%" height="120.3%" filterUnits="objectBoundingBox" id="filter-7">
            <feGaussianBlur stdDeviation="10" in="SourceGraphic"></feGaussianBlur>
        </filter>
        <path d="M310.021468,155.542716 C310.856287,155.575618 311.689352,155.615223 312.520608,155.661479 L313.100956,173.737386 C315.602583,173.897386 318.085247,174.125777 320.547032,174.420677 L324.699165,156.827217 C325.52533,156.939791 326.349346,157.058977 327.171155,157.184717 L325.950488,175.179556 C328.427142,175.578905 330.880643,176.045901 333.308966,176.578551 L339.177923,159.520359 C339.987422,159.712046 340.794364,159.910183 341.598691,160.114712 L338.600905,177.853166 C341.029105,178.490811 343.429792,179.194699 345.800841,179.96274 L353.316284,163.605389 C354.102608,163.8748 354.885954,164.150461 355.66626,164.432311 L350.929438,181.74066 C353.284916,182.611578 355.608436,183.546683 357.897796,184.543808 L366.975465,169.043779 C367.730488,169.387989 368.482112,169.738188 369.230275,170.094313 L362.813196,186.805042 C365.072716,187.900856 367.295813,189.058249 369.480222,190.274991 L380.020909,175.777571 C380.738684,176.193576 381.452632,176.615285 382.162688,177.042635 L374.140126,192.99621 C376.281547,194.305826 378.382116,195.673946 380.439524,197.098297 L392.331433,183.737052 C393.004568,184.220303 393.67346,184.708929 394.338042,185.202866 L384.800098,200.249851 C386.803985,201.760952 388.76262,203.32718 390.673659,204.946231 L403.791103,192.840302 C404.413539,193.386212 405.03132,193.937144 405.644381,194.493034 L394.693203,208.493949 C396.541209,210.192881 398.339617,211.943329 400.086059,213.742967 L414.294345,202.998906 C414.859255,203.601331 415.41913,204.208391 415.973905,204.820022 L403.727923,217.651289 C405.401708,219.522263 407.021694,221.440906 408.585504,223.404881 L423.74129,214.116124 C424.243493,214.769496 424.740298,215.427103 425.23164,216.088883 L411.814934,227.634437 C413.298472,229.661693 414.724131,231.732646 416.089531,233.844955 L432.040057,226.088982 C432.474555,226.787059 432.903319,227.488962 433.326284,228.194627 L418.875399,238.354227 C420.152222,240.518719 421.367386,242.722751 422.518528,244.964001 L439.105506,238.804734 C439.467742,239.540574 439.823949,240.27982 440.174063,241.022408 L424.834294,249.710038 C425.889987,251.991438 426.880619,254.308102 427.803856,256.657738 L444.864098,252.14422 C445.150634,252.911297 445.43088,253.68136 445.704773,254.45435 L429.628126,261.597263 C430.450123,263.972604 431.204198,266.378831 431.888074,268.813707 L449.254018,265.974533 C449.462158,266.765964 449.663788,267.559969 449.858851,268.35649 L433.203277,273.896572 C433.782539,276.342033 434.291641,278.813989 434.728385,281.310277 L452.233987,280.162481 C452.361936,280.97105 452.48321,281.781791 452.597754,282.594648 L435.525527,286.490233 C435.856685,288.980584 436.116195,291.493092 436.301958,294.025693 L453.783138,294.569118 C453.830185,295.386586 453.870467,296.205834 453.903931,297.026807 L436.578999,299.251264 C436.62542,300.667695 436.648809,302.089848 436.648809,303.517372 C436.648809,304.627486 436.634665,305.734352 436.606544,306.837804 L453.90389,309.059611 C453.870448,309.879915 453.830198,310.698495 453.783196,311.5153 L436.368267,312.056735 C436.200694,314.599066 435.958834,317.121491 435.6448,319.62193 L452.597754,323.490769 C452.483257,324.303291 452.362036,325.113699 452.234145,325.921937 L434.889329,324.783869 C434.468551,327.299518 433.974365,329.790849 433.409006,332.255666 L449.859096,337.727928 C449.664039,338.52445 449.462414,339.318455 449.254281,340.109886 L432.139722,337.312157 C431.467447,339.775654 430.723442,342.210279 429.910043,344.613733 L445.704773,351.631067 C445.43088,352.404058 445.150634,353.174121 444.864098,353.941197 L428.138373,349.516546 C427.220881,351.902042 426.234102,354.254069 425.180452,356.570251 L440.174535,365.062007 C439.824269,365.804933 439.467905,366.544512 439.105506,367.280684 L422.924925,361.272678 C421.771877,363.556601 420.552574,365.802461 419.269488,368.007827 L433.326284,377.890791 C432.903319,378.596456 432.474555,379.298358 432.040057,379.996436 L416.553483,372.466809 C415.177394,374.626868 413.738566,376.744336 412.23951,378.816746 L425.23164,389.996535 C424.740298,390.658314 424.243493,391.315922 423.74129,391.969293 L409.091633,382.990142 C407.507439,385.005354 405.864415,386.973575 404.165093,388.892316 L415.974815,401.264393 C415.419743,401.876363 414.859564,402.483757 414.294345,403.086512 L400.615607,392.742933 C398.83904,394.594933 397.007791,396.395658 395.124399,398.142614 L405.644381,411.592383 C405.03132,412.148274 404.413539,412.699206 403.791103,413.245115 L391.208992,401.632527 C389.257729,403.303539 387.256148,404.91919 385.206779,406.476993 L394.338042,420.882552 C393.67346,421.376488 393.004568,421.865115 392.331433,422.348366 L380.961418,409.573286 C378.854081,411.047193 376.700931,412.461888 374.504477,413.814903 L382.161689,429.043384 C381.451962,429.470528 380.738348,429.892037 380.020909,430.307847 L369.97103,416.485003 C367.727874,417.746956 365.443522,418.946167 363.120448,420.080204 L369.230275,435.991105 C368.481781,436.347388 367.729822,436.697739 366.974462,437.042096 L358.33989,422.297426 C355.984064,423.333713 353.591773,424.30422 351.165432,425.206573 L355.66626,441.653107 C354.885954,441.934957 354.102608,442.210618 353.316284,442.480028 L346.179758,426.948635 C343.735491,427.748506 341.259523,428.480136 338.754191,429.141228 L341.598691,445.970706 C340.794033,446.175319 339.986758,446.373535 339.176925,446.565295 L333.61259,430.389223 C331.106147,430.945138 328.572743,431.431074 326.014612,431.844833 L327.171155,448.900701 C326.349346,449.026441 325.52533,449.145626 324.699165,449.2582 L320.76404,432.587893 C318.221325,432.896678 315.656255,433.134498 313.070942,433.299275 L312.520608,450.423939 C311.689352,450.470194 310.856287,450.5098 310.021468,450.542701 L307.762714,433.533609 C306.64077,433.561251 305.515356,433.575154 304.386641,433.575154 C302.9351,433.575154 301.48902,433.552161 300.048757,433.506524 L297.785397,450.542662 C296.950912,450.509768 296.11818,450.470176 295.287256,450.423939 L294.734511,433.234114 C292.159253,433.051475 289.604422,432.796331 287.07212,432.47075 L283.109699,449.258337 C282.283199,449.145722 281.45885,449.026492 280.636709,448.900701 L281.803516,431.686799 C279.264842,431.257329 276.750914,430.756702 274.263933,430.187081 L268.628942,446.564822 C267.819444,446.37313 267.012501,446.174986 266.208174,445.970452 L269.094656,428.893734 C266.618155,428.221156 264.170797,427.47953 261.754857,426.671095 L254.491581,442.480028 C253.705591,442.210732 252.922578,441.935192 252.142601,441.653467 L256.733748,424.87799 C254.344367,423.970192 251.988514,422.996128 249.668521,421.95809 L240.833403,437.042096 C240.077705,436.697585 239.325412,436.347075 238.576586,435.990628 L244.839835,419.679885 C242.561169,418.548189 240.320333,417.353569 238.119688,416.098347 L227.786955,430.307847 C227.06918,429.891842 226.355232,429.470132 225.645176,429.042782 L233.5325,413.358017 C231.384861,412.015648 229.279263,410.614049 227.218082,409.155561 L215.476431,422.348366 C214.803296,421.865115 214.134404,421.376488 213.469823,420.882552 L222.917218,405.980281 C220.919333,404.442084 218.967575,402.848612 217.064324,401.202205 L204.016761,413.245115 C203.394325,412.699206 202.776544,412.148274 202.163484,411.592383 L213.090292,397.621477 C211.260574,395.904528 209.480857,394.136502 207.753506,392.319726 L193.514459,403.087514 C192.94923,402.48476 192.389041,401.877366 191.833959,401.265396 L204.145301,388.366847 C202.498509,386.487339 200.905453,384.561012 199.368479,382.590172 L184.06581,391.968299 C183.563615,391.314927 183.066818,390.657319 182.575485,389.995539 L196.163928,378.302823 C194.715483,376.279777 193.324218,374.214292 191.992444,372.108639 L175.767808,379.996436 C175.33331,379.298358 174.904545,378.596456 174.48158,377.890791 L189.224802,367.525913 C187.987539,365.378083 186.810622,363.192215 185.696317,360.970537 L168.702359,367.280684 C168.339959,366.544512 167.983595,365.804933 167.633329,365.062007 L183.395807,356.134998 C182.382065,353.884339 181.431363,351.600105 180.545905,349.284461 L162.943766,353.941197 C162.657353,353.174451 162.377225,352.40472 162.103444,351.632065 L178.737665,344.240792 C177.956624,341.909281 177.240824,339.548628 176.592388,337.160922 L158.553583,340.109886 C158.345537,339.318786 158.143994,338.525114 157.949013,337.728928 L175.296391,331.958071 C174.754591,329.569723 174.279587,327.156605 173.873405,324.720712 L155.57356,325.920938 C155.445729,325.113031 155.32456,324.302956 155.21011,323.490769 L173.101804,319.408061 C172.801939,316.987523 172.569699,314.546459 172.406996,312.08675 L154.024668,311.5153 C153.977647,310.698163 153.937383,309.879249 153.903933,309.058611 L172.163637,306.713851 C172.137577,305.651466 172.124473,304.585924 172.124473,303.517372 C172.124473,302.131429 172.146518,300.75055 172.190284,299.375054 L153.903933,297.026807 C153.937383,296.206168 153.977647,295.387254 154.024668,294.570118 L172.473528,293.995681 C172.653805,291.545713 172.903096,289.114558 173.2195,286.704085 L155.21011,282.594648 C155.324607,281.782126 155.445829,280.971719 155.573719,280.16348 L174.033895,281.373251 C174.455424,278.956794 174.944754,276.563113 175.499889,274.19417 L157.949013,268.35649 C158.144076,267.559969 158.345707,266.765964 158.553846,265.974533 L176.842953,268.964504 C177.502506,266.60509 178.227954,264.272506 179.017229,261.968787 L162.103091,254.45435 C162.376984,253.68136 162.65723,252.911297 162.943766,252.14422 L180.878801,256.889036 C181.769605,254.608936 182.723827,252.359757 183.739344,250.14359 L167.633802,241.022408 C167.983916,240.27982 168.340122,239.540574 168.702359,238.804734 L186.100755,245.264804 C187.212802,243.085615 188.385296,240.941409 189.616073,238.834312 L174.48158,228.194627 C174.904545,227.488962 175.33331,226.787059 175.767808,226.088982 L192.454075,234.201545 C193.77506,232.143232 195.153139,230.123892 196.586124,228.145676 L182.576225,216.088883 C183.067566,215.427103 183.564371,214.769496 184.066574,214.116124 L199.871864,223.803218 C201.38842,221.88334 202.958479,220.006361 204.57984,218.174447 L191.833959,204.820022 C192.389041,204.208052 192.94923,203.600658 193.514459,202.997904 L208.280336,214.164114 C209.977675,212.399457 211.724734,210.681523 213.519308,209.01248 L202.163484,194.493034 C202.776544,193.937144 203.394325,193.386212 204.016761,192.840302 L217.597299,205.373959 C219.460208,203.77967 221.368942,202.235826 223.321301,200.744589 L213.469823,185.202866 C214.134404,184.708929 214.803296,184.220303 215.476431,183.737052 L227.736503,197.514206 C229.748641,196.104804 231.802616,194.749414 233.896242,193.450189 L225.645176,177.042635 C226.355232,176.615285 227.06918,176.193576 227.786955,175.777571 L238.607691,190.659413 C240.750305,189.449271 242.930649,188.29643 245.146562,187.203017 L238.577589,170.094313 C239.326083,169.73803 240.078042,169.387679 240.833403,169.043322 L250.109131,184.880472 C252.362873,183.881895 254.650186,182.943592 256.968944,182.067651 L252.142601,164.431951 C252.922578,164.150226 253.705591,163.874686 254.491581,163.605389 L262.133338,180.237632 C264.476362,179.461416 266.848746,178.747977 269.248421,178.09935 L266.208174,160.114966 C267.012501,159.910431 267.819444,159.712288 268.628942,159.520595 L274.566697,176.77869 C276.975811,176.232808 279.410082,175.751636 281.867515,175.337135 L280.636709,157.184717 C281.458519,157.058977 282.282534,156.939791 283.108699,156.827217 L287.289926,174.536172 C289.740732,174.225137 292.212562,173.980067 294.703515,173.802832 L295.287256,155.661479 C296.118512,155.615223 296.951577,155.575618 297.786397,155.542716 L300.174504,173.524294 C301.573184,173.481265 302.977338,173.459591 304.386641,173.459591 C305.473118,173.459591 306.556535,173.472473 307.636743,173.49809 L310.021468,155.542716 Z M303.903932,190.84051 C241.504317,190.84051 190.919434,240.636415 190.919434,302.062777 C190.919434,363.489139 241.504317,413.285044 303.903932,413.285044 C366.303547,413.285044 416.88843,363.489139 416.88843,302.062777 C416.88843,240.636415 366.303547,190.84051 303.903932,190.84051 Z" id="path-8"></path>
        <filter x="-11.0%" y="-6.8%" width="124.0%" height="126.8%" filterUnits="objectBoundingBox" id="filter-9">
            <feMorphology radius="1" operator="dilate" in="SourceAlpha" result="shadowSpreadOuter1"></feMorphology>
            <feOffset dx="3" dy="23" in="shadowSpreadOuter1" result="shadowOffsetOuter1"></feOffset>
            <feGaussianBlur stdDeviation="7.5" in="shadowOffsetOuter1" result="shadowBlurOuter1"></feGaussianBlur>
            <feComposite in="shadowBlurOuter1" in2="SourceAlpha" operator="out" result="shadowBlurOuter1"></feComposite>
            <feColorMatrix values="0 0 0 0 0   0 0 0 0 0   0 0 0 0 0  0 0 0 0.5 0" type="matrix" in="shadowBlurOuter1"></feColorMatrix>
        </filter>
        <path d="M313.634779,82.682063 C314.318329,82.7100158 315.001089,82.7409657 315.683047,82.7748998 L315.67752,120.052857 C319.889938,120.327347 324.064102,120.738929 328.195411,121.283091 L335.627129,84.6391005 C336.302539,84.7321273 336.976985,84.8281013 337.650451,84.9270087 L333.908298,122.124158 C338.064903,122.80092 342.175058,123.612417 346.233937,124.553917 L357.321797,88.70681 C357.982863,88.8643552 358.642784,89.0247702 359.301545,89.1880409 L351.838095,125.944752 C355.898289,127.018799 359.903633,128.223853 363.849119,129.555005 L378.504339,94.8605076 C379.144801,95.0809979 379.783936,95.3042554 380.421727,95.5302653 L369.290574,131.484644 C373.2145,132.944514 377.075125,134.530442 380.867303,136.237384 L398.962617,103.041561 C399.576519,103.322577 400.188908,103.606236 400.799771,103.892524 L386.093637,138.687372 C389.843479,140.516191 393.521644,142.465105 397.122895,144.528978 L418.496256,113.163962 C419.078969,113.502987 419.659984,113.844523 420.239284,114.188556 L402.084117,147.474694 C405.624926,149.651513 409.085848,151.94168 412.461591,154.340006 L436.918483,125.120715 C437.464617,125.514318 438.008868,125.910287 438.551219,126.308606 L417.112983,157.753805 C420.413174,160.255173 423.625471,162.862596 426.744561,165.570862 L454.056289,138.78931 C454.560723,139.233592 455.063093,139.680083 455.563382,140.128766 L431.037371,169.416258 C434.067689,172.216425 437.002381,175.114953 439.836137,178.106639 L469.749195,154.035301 C470.206735,154.525576 470.662039,155.017888 471.115092,155.512224 L443.731898,182.349698 C446.464908,185.420893 449.094922,188.582454 451.616663,191.829207 L483.846331,170.711804 C484.252644,171.243466 484.656559,171.776991 485.058062,172.312363 L455.074787,196.428365 C457.485575,199.741412 459.786429,203.136636 461.972128,206.60892 L496.209422,188.662489 C496.560636,189.230814 496.909299,189.800823 497.255396,190.372501 L464.957883,211.522571 C467.023079,215.045519 468.972019,218.642288 470.799568,222.307847 L506.712474,207.719454 C507.004697,208.318662 507.294235,208.919368 507.581073,209.521559 L473.280467,227.488757 C474.979632,231.187298 476.557006,234.951207 478.007581,238.775574 L515.243377,227.697904 C515.473876,228.323011 515.701569,228.949433 515.92644,229.577158 L479.957821,244.176813 C481.274154,248.013991 482.464169,251.908061 483.523019,255.854272 L521.712938,248.402481 C521.879378,249.047861 522.042908,249.694377 522.203515,250.342014 L484.92206,261.424662 C485.843639,265.36083 486.63562,269.345485 487.293365,273.374079 L526.05927,269.626314 C526.160144,270.286394 526.258026,270.947432 526.352903,271.609416 L488.128252,279.059334 C488.649871,283.055666 489.039894,287.092336 489.293926,291.165034 L528.254525,291.160432 C528.289144,291.828999 528.320718,292.498353 528.349234,293.168482 L489.56087,296.909229 C489.617705,298.765254 489.646325,300.62823 489.646325,302.497759 C489.646325,304.694221 489.60682,306.881637 489.528467,309.059363 L528.305685,312.799443 C528.274086,313.471499 528.239411,314.142767 528.201674,314.813236 L489.230369,314.806957 C488.954721,318.872266 488.54354,322.90123 488.001217,326.889546 L526.214514,334.336613 C526.115971,335.003031 526.014381,335.668481 525.909759,336.33295 L487.13361,332.583434 C486.455962,336.596378 485.64502,340.56521 484.705394,344.485412 L521.975802,355.563242 C521.810395,356.217991 521.641997,356.871582 521.470623,357.524003 L483.271003,350.07047 C482.195916,353.992603 480.991097,357.862643 479.661333,361.675897 L515.61848,376.272356 C515.387294,376.909244 515.1532,377.544779 514.916213,378.178947 L477.671848,367.098134 C476.210186,370.891619 474.623534,374.624956 472.916817,378.293317 L507.206823,396.255638 C506.911618,396.869073 506.613606,397.480954 506.312804,398.091265 L470.391818,383.500376 C468.559637,387.129367 466.608184,390.69019 464.542483,394.177922 L496.830451,415.321984 C496.473629,415.906438 496.11412,416.489132 495.751939,417.070052 L461.507311,399.121135 C459.324336,402.552696 457.028545,405.908165 454.625023,409.182555 L484.599725,433.292121 C484.184935,433.841257 483.767599,434.388433 483.347734,434.933632 L451.111366,413.813895 C448.600537,417.016987 445.98393,420.136242 443.266666,423.166638 L470.642615,449.997205 C470.173276,450.506101 469.701543,451.012836 469.227435,451.517393 L439.309846,427.442215 C436.495092,430.389439 433.581942,433.24524 430.575531,436.004582 L455.09443,465.286145 C454.575339,465.749069 454.054024,466.20964 453.530505,466.66784 L426.214413,439.883232 C423.122694,442.547417 419.940305,445.112897 416.672369,447.57465 L438.106872,479.012417 C437.542444,479.424826 436.975972,479.834695 436.407472,480.242007 L411.947898,451.019171 C408.607587,453.375453 405.18456,455.626117 401.683906,457.766175 L419.836194,491.045781 C419.232233,491.402763 418.626417,491.757035 418.018763,492.10858 L396.643403,460.740398 C393.085414,462.765566 389.452855,464.678722 385.750751,466.474941 L400.455813,501.263841 C399.817447,501.561708 399.177419,501.856707 398.535748,502.148821 L380.43865,468.950433 C376.696645,470.623521 372.888361,472.178911 369.018722,473.611775 L380.147877,509.562096 C379.481297,509.797343 378.813254,510.029584 378.143764,510.258803 L363.488196,475.561875 C359.598097,476.865553 355.650064,478.04673 351.648884,479.100712 L359.111369,515.854524 C358.422227,516.024692 357.731819,516.191735 357.04016,516.355637 L345.951655,480.50685 C341.952885,481.427929 337.904512,482.222869 333.811144,482.887152 L337.553296,520.082756 C336.848005,520.186027 336.141642,520.286082 335.434223,520.382903 L328.0022,483.737775 C323.93397,484.269386 319.824281,484.672449 315.67752,484.942661 L315.683047,522.220618 C314.968501,522.256174 314.253074,522.288453 313.536781,522.317441 L309.814749,485.234887 C307.593116,485.311708 305.361596,485.350442 303.120848,485.350442 C301.214078,485.350442 299.313991,485.322394 297.420992,485.266697 L293.706365,522.275102 C292.988276,522.242955 292.271067,522.207501 291.554753,522.168753 L291.560613,485.004989 C287.406054,484.755958 283.288248,484.37361 279.21159,483.862255 L271.832402,520.248026 C271.120307,520.147453 270.409293,520.043603 269.699376,519.936492 L273.412274,483.043826 C269.302764,482.399035 265.238077,481.622651 261.22285,480.719222 L250.268184,516.133597 C249.569166,515.964838 248.871436,515.792868 248.175013,515.617703 L255.540382,479.347683 C251.514739,478.309637 247.54229,477.142998 243.62788,475.852518 L229.221866,509.958607 C228.543024,509.723086 227.865681,509.484453 227.189857,509.242727 L238.118911,473.940936 C234.217968,472.519016 230.378689,470.972809 226.606084,469.307223 L208.902643,501.783558 C208.249944,501.48335 207.598961,501.180152 206.949712,500.873981 L221.319895,466.874626 C217.580753,465.083073 213.911782,463.172524 210.318114,461.14801 L189.503682,491.69366 C188.882992,491.33153 188.264235,490.966548 187.647431,490.598732 L205.306194,458.221296 C201.764475,456.078828 198.301349,453.823493 194.922035,451.460407 L171.206661,479.794408 C170.623966,479.373915 170.04342,478.950728 169.465042,478.524866 L190.229686,448.069821 C186.917522,445.597597 183.692269,443.019218 180.559208,440.339861 L154.180332,466.206208 C153.641749,465.731849 153.10552,465.254973 152.571663,464.775598 L176.231297,436.521135 C173.17971,433.743354 170.223139,430.866637 167.366893,427.896189 L138.581226,451.060666 C138.092258,450.537361 137.605838,450.01173 137.121986,449.483792 L163.443134,423.686705 C160.680429,420.628963 158.020597,417.479845 155.468955,414.244562 L124.555368,434.499444 C124.121062,433.932596 123.689484,433.363625 123.260653,432.79255 L151.98775,409.686283 C149.54127,406.377071 147.205117,402.984359 144.984585,399.513334 L112.23952,416.675895 C111.864217,416.07108 111.491805,415.46435 111.122305,414.855724 L141.978828,394.648408 C139.873526,391.118089 137.885491,387.51237 136.019961,383.836388 L101.757571,397.753222 C101.445101,397.116455 101.135666,396.477986 100.829285,395.837833 L133.520786,378.712982 C131.779538,374.995412 130.16174,371.210741 128.672536,367.364014 L93.2207169,377.911638 C92.9741451,377.24915 92.730729,376.585174 92.4904863,375.919727 L126.704526,362.030753 C125.346553,358.162754 124.117224,354.236069 123.021548,350.255608 L86.7175257,357.339136 C86.5389081,356.65667 86.3635463,355.972924 86.1914575,355.287916 L121.602979,344.762618 C120.642467,340.783316 119.814593,336.753737 119.124185,332.678617 L82.3119236,336.237938 C82.2027179,335.54234 82.0968357,334.845669 81.9942934,334.147938 L118.266322,327.078841 C117.711202,323.028724 117.291337,318.936592 117.011327,314.806957 L80.0348906,314.812235 C79.9953815,314.110227 79.9592297,313.40734 79.9264505,312.703592 L116.716713,309.155477 C116.636047,306.946 116.595371,304.726536 116.595371,302.497759 C116.595371,300.596043 116.624985,298.701108 116.683786,296.813372 L79.8833231,293.264467 C79.912895,292.562268 79.9458243,291.860917 79.9820956,291.160432 L116.94777,291.165034 C117.205821,287.027908 117.604199,282.927959 118.138298,278.869704 L81.8567323,271.798296 C81.9554748,271.104978 82.0575133,270.412694 82.1628318,269.721462 L118.963845,273.279223 C119.634031,269.188234 120.442654,265.142608 121.384853,261.14711 L85.9647202,250.618557 C86.1319516,249.940361 86.3023883,249.26339 86.4760137,248.587662 L122.7684,255.669355 C123.847584,251.664523 125.061891,247.713513 126.406251,243.821299 L92.1838577,229.930758 C92.4177212,229.274329 92.6546686,228.619319 92.8946827,227.965745 L128.335413,238.509145 C129.813327,234.631307 131.421683,230.815838 133.155248,227.067869 L100.457071,209.939391 C100.755008,209.310448 101.055887,208.683117 101.359691,208.057414 L135.610996,221.970028 C137.47166,218.257512 139.456968,214.615883 141.561572,211.050384 L110.698973,190.840033 C111.057552,190.244391 111.418912,189.650549 111.783037,189.058526 L144.517235,206.216575 C146.740589,202.704327 149.081958,199.271386 151.53591,195.923074 L122.80391,172.813402 C123.21942,172.256074 123.637539,171.700733 124.058249,171.147397 L154.962372,191.396216 C157.524684,188.11746 160.197693,184.926227 162.975923,181.827883 L136.65132,156.026891 C137.118585,155.513836 137.588267,155.002942 138.060349,154.494225 L166.837802,177.651849 C169.713341,174.636549 172.691793,171.716753 175.767668,168.897843 L152.104752,140.640363 C152.6193,140.175716 153.136069,139.713396 153.655042,139.253421 L180.027283,165.112286 C183.187771,162.388841 186.443008,159.768541 189.78752,157.256751 L169.021965,126.797728 C169.578346,126.385958 170.136744,125.97667 170.697143,125.56988 L194.406527,153.896889 C197.821839,151.49147 201.323466,149.196401 204.905978,147.017005 L187.245239,114.637189 C187.837518,114.282327 188.431606,113.930081 189.027486,113.580467 L209.837082,144.119435 C213.474195,142.056286 217.188968,140.110083 220.97605,138.286071 L206.604688,104.2846 C207.227424,103.989642 207.851761,103.697421 208.477684,103.407953 L226.176347,135.878666 C229.999264,134.179397 233.891024,132.60285 237.846396,131.154155 L226.917548,95.850386 C227.564046,95.6182138 228.211937,95.388874 228.861205,95.1623819 L243.266285,129.262616 C247.236396,127.944832 251.266475,126.754523 255.35145,125.696657 L247.986159,89.4254016 C248.651534,89.2574377 249.318104,89.0923899 249.985853,88.9302731 L260.93931,124.340322 C265.015495,123.41657 269.142826,122.623792 273.316441,121.966753 L269.603359,85.0735336 C270.281163,84.9709725 270.959968,84.8713844 271.63976,84.7747834 L279.018972,121.157524 C283.158528,120.633986 287.340611,120.243482 291.560613,119.990529 L291.554753,82.8267644 C292.238516,82.7897776 292.923096,82.7557914 293.608477,82.7248188 L297.323154,119.731725 C299.248519,119.674098 301.181226,119.645076 303.120848,119.645076 C305.394588,119.645076 307.658826,119.684958 309.912874,119.764049 L313.634779,82.682063 Z M281.65327,328.074784 L281.145693,328.346839 L193.570957,375.934459 C191.928318,376.826887 190.390949,377.900728 188.987689,379.13586 C178.623462,388.258323 177.616814,404.055406 186.739104,414.419786 C196.32343,425.309675 204.739795,433.271488 211.988198,438.305226 C239.315309,457.282859 276.051781,467.640826 295.834133,468.103533 C315.563641,468.565004 349.210233,466.557815 381.758401,449.0785 C391.360892,443.921682 404.322081,434.26895 420.641967,420.120302 C422.714593,418.32238 424.477512,416.195861 425.859676,413.825645 C432.745395,402.017609 428.863829,386.896788 417.212317,379.84709 L416.856866,379.635945 L330.212988,329.091203 C315.278067,320.378739 296.915309,320.006919 281.65327,328.074784 Z M338.810366,145.267774 C325.141439,145.325256 314.080836,156.34201 313.91871,169.959248 L313.917142,170.372679 L314.342898,268.321278 C314.420092,286.080433 323.910017,302.451325 339.247785,311.350449 L339.714352,311.617826 L426.571918,360.777643 C427.938818,361.551456 429.375611,362.194709 430.86323,362.698885 C443.939751,367.130716 458.133074,360.122809 462.565356,347.046441 C467.328791,332.995912 470.051527,321.539071 470.733563,312.675917 C473.252717,279.939194 463.388799,243.735326 453.604689,226.87417 C443.846714,210.058054 424.76234,182.81904 392.715632,164.47085 C383.093061,158.962331 367.607003,152.928826 346.257457,146.370337 C343.845033,145.628775 341.334171,145.257161 338.810366,145.267774 Z M265.720454,145.511744 C250.825582,148.502845 239.273507,151.933691 231.064232,155.804281 C200.884003,170.03395 173.8324,196.510084 163.828846,213.247107 C153.852014,229.939421 139.330525,259.761045 139.144748,296.141917 C139.089956,307.010243 141.478265,323.066135 146.309672,344.309594 C146.857478,346.71641 147.758439,349.028933 148.983514,351.17184 C155.767585,363.038569 170.803691,367.236341 182.734398,360.670187 L183.094973,360.467915 L270.451078,310.53879 C285.871673,301.725019 295.447034,285.400705 295.637,267.666877 L295.63988,267.129063 L295.63988,170.02358 C295.639956,168.371226 295.476218,166.722934 295.151066,165.102888 C292.434085,151.565734 279.257505,142.79425 265.720454,145.511744 Z M304.11831,292.71954 C298.609477,292.71954 294.143686,297.097398 294.143686,302.497759 C294.143686,307.89812 298.609477,312.275977 304.11831,312.275977 C309.627143,312.275977 314.092935,307.89812 314.092935,302.497759 C314.092935,297.097398 309.627143,292.71954 304.11831,292.71954 Z" id="path-10"></path>
        <filter x="-12.9%" y="-12.7%" width="125.9%" height="126.4%" filterUnits="objectBoundingBox" id="filter-11">
            <feGaussianBlur stdDeviation="17" in="SourceGraphic"></feGaussianBlur>
        </filter>
        <filter x="-13.8%" y="-13.7%" width="127.7%" height="128.2%" filterUnits="objectBoundingBox" id="filter-12">
            <feMorphology radius="1" operator="dilate" in="SourceAlpha" result="shadowSpreadOuter1"></feMorphology>
            <feOffset dx="0" dy="2" in="shadowSpreadOuter1" result="shadowOffsetOuter1"></feOffset>
            <feGaussianBlur stdDeviation="3" in="shadowOffsetOuter1" result="shadowBlurOuter1"></feGaussianBlur>
            <feComposite in="shadowBlurOuter1" in2="SourceAlpha" operator="out" result="shadowBlurOuter1"></feComposite>
            <feColorMatrix values="0 0 0 0 0   0 0 0 0 0   0 0 0 0 0  0 0 0 0.5 0" type="matrix" in="shadowBlurOuter1"></feColorMatrix>
        </filter>
        <linearGradient x1="50%" y1="12.8768505%" x2="50%" y2="102.575071%" id="linearGradient-13">
            <stop stop-color="#D0DEDC" offset="0%"></stop>
            <stop stop-color="#878484" offset="100%"></stop>
        </linearGradient>
        <linearGradient x1="50%" y1="0%" x2="50%" y2="100%" id="linearGradient-14">
            <stop stop-color="#B2B9BE" offset="0%"></stop>
            <stop stop-color="#7F8E8E" offset="100%"></stop>
        </linearGradient>
        <path d="M313.353883,82.6708154 C314.225051,82.7053824 315.09494,82.7448176 315.963521,82.7890939 L316.466575,120.105972 C320.145678,120.360943 323.795314,120.720514 327.412407,121.181668 L335.350375,84.6012107 C336.210804,84.7186489 337.069671,84.8408693 337.926948,84.9678436 L334.688047,122.252837 C338.316808,122.85921 341.909837,123.568334 345.46391,124.377047 L357.051276,88.6425584 C357.892984,88.8420623 358.732839,89.0462174 359.570813,89.2549945 L352.601266,126.14839 C356.144458,127.101612 359.645497,128.154707 363.101037,129.304394 L378.241576,94.770258 C379.057397,95.0499949 379.871068,95.3342199 380.682558,95.6229028 L370.03027,131.761643 C373.452368,133.051245 376.825876,134.436873 380.147361,135.91516 L398.710289,102.92626 C399.493038,103.283401 400.273334,103.644837 401.051148,104.010538 L386.802993,139.035193 C390.070642,140.645934 393.283346,142.348063 396.437614,144.13816 L418.256733,113.024803 C418.999517,113.455736 419.739549,113.890746 420.476795,114.329804 L402.756746,147.890167 C405.839462,149.803339 408.861019,151.802671 411.817896,153.884709 L436.694492,124.959475 C437.390624,125.459885 438.083704,125.964135 438.7737,126.472193 L417.740751,158.231686 C420.611486,160.426686 423.415005,162.70223 426.147773,165.054853 L453.849285,138.607178 C454.492079,139.171919 455.131531,139.74024 455.767608,140.31211 L431.616047,169.953217 C434.249208,172.407167 436.809323,174.935736 439.292866,177.535466 L469.561577,153.834444 C470.144928,154.457989 470.724658,155.084841 471.300736,155.714969 L444.254592,182.939525 C446.626926,185.628388 448.920644,188.385749 451.132246,191.208175 L483.679853,170.494154 C484.197922,171.170311 484.71211,171.84949 485.222383,172.531658 L455.53658,197.065755 C457.626555,199.963973 459.632678,202.924432 461.551489,205.943737 L496.065529,188.429837 C496.51355,189.152793 496.95744,189.878481 497.397168,190.60687 L465.354046,212.201589 C467.14151,215.281219 468.84036,218.416713 470.447194,221.604738 L506.593295,207.475274 C506.966176,208.237451 507.334711,209.002059 507.698868,209.769068 L473.607234,228.203931 C475.074556,231.434931 476.449109,234.715351 477.727575,238.041941 L515.14878,227.441589 C515.443214,228.236977 515.733103,229.034501 516.018414,229.834133 L480.211244,244.920571 C481.344011,248.270493 482.380632,251.663379 483.317901,255.096085 L521.644245,248.136403 C521.857272,248.958078 522.065581,249.781599 522.269144,250.606937 L485.099588,262.190012 C485.887752,265.624322 486.577343,269.095203 487.165296,272.599648 L526.017866,269.355769 C526.147374,270.196074 526.272033,271.037939 526.391815,271.881333 L488.22834,279.83852 C488.667689,283.323255 489.007022,286.838367 489.243438,290.381013 L528.240264,290.885976 C528.285418,291.737226 528.325636,292.589757 528.36089,293.443541 L489.583402,297.696598 C489.62535,299.29201 489.646453,300.892505 489.646453,302.497833 C489.646453,304.430059 489.615881,306.355286 489.555184,308.273073 L528.318561,312.524681 C528.279401,313.380534 528.235253,314.235113 528.186144,315.088393 L489.17541,315.594016 C488.920343,319.127326 488.562872,322.632907 488.105889,326.107925 L526.255031,334.062322 C526.130559,334.911636 526.001139,335.759383 525.8668,336.605534 L487.000767,333.360515 C486.396103,336.847652 485.690725,340.301163 484.887671,343.718072 L522.043286,355.295967 C521.833696,356.130118 521.619252,356.962396 521.399986,357.792772 L483.060704,350.831617 C482.110636,354.238516 481.062577,357.605744 479.919682,360.930208 L515.713239,376.011207 C515.419968,376.82239 515.121981,377.631385 514.81931,378.438162 L477.386066,367.835387 C476.100355,371.128866 474.720284,374.376583 473.249096,377.575359 L507.32769,396.004403 C506.952749,396.786097 506.573253,397.565276 506.189235,398.341906 L470.033479,384.206614 C468.426093,387.355974 466.728686,390.453502 464.944565,393.495953 L496.976293,415.083043 C496.522863,415.827873 496.065072,416.569855 495.602952,417.308956 L461.079393,399.790855 C459.168189,402.7665 457.17191,405.684351 455.093904,408.541126 L484.76984,433.066852 C484.242427,433.766944 483.71088,434.46386 483.175236,435.157568 L450.619243,414.439151 C448.42376,417.215159 446.148533,419.927516 443.796929,422.57292 L470.83452,449.789073 C470.237885,450.437644 469.637369,451.082716 469.033006,451.724254 L438.757764,428.018004 C436.29895,430.570472 433.765985,433.05356 431.162245,435.463956 L455.307241,465.096305 C454.64672,465.686865 453.982589,466.273609 453.314882,466.856501 L425.607624,440.404032 C422.909122,442.70929 420.142324,444.939678 417.310598,447.091894 L438.337766,478.843652 C437.619992,479.369507 436.8989,479.89125 436.174526,480.408845 L411.293531,451.478838 C408.379434,453.515865 405.403039,455.472776 402.367691,457.346293 L420.084056,490.899213 C419.315324,491.354912 418.543578,491.806217 417.768855,492.253094 L395.946636,461.135166 C392.843145,462.884111 389.683474,464.548052 386.470931,466.123749 L400.717178,501.141815 C399.904837,501.522127 399.089798,501.897791 398.272096,502.268773 L379.706736,469.275934 C376.44365,470.718185 373.130638,472.07111 369.770944,473.331529 L380.421854,509.465326 C379.57316,509.766073 378.722087,510.061945 377.86867,510.352909 L362.726398,475.815479 C359.33529,476.935813 355.900563,477.963185 352.425371,478.894505 L359.394736,515.784464 C358.517377,516.002308 357.637958,516.215086 356.756514,516.422764 L345.168142,480.685669 C341.683088,481.47278 338.160706,482.164165 334.604033,482.756848 L337.842847,520.040262 C336.945094,520.17289 336.045598,520.300304 335.144393,520.422473 L327.20581,483.840222 C323.660621,484.288264 320.084247,484.638732 316.479582,484.888792 L315.976535,522.205907 C315.06673,522.252336 314.155491,522.293454 313.24285,522.329229 L309.012417,485.261038 C307.056043,485.320543 305.09208,485.350516 303.120976,485.350516 C301.483393,485.350516 299.850739,485.329828 298.223271,485.288705 L294.000956,522.28817 C293.086664,522.248405 292.173794,522.203278 291.262378,522.152819 L290.761675,484.955494 C287.147995,484.723758 283.562399,484.391138 280.007788,483.960479 L272.124088,520.289086 C271.21713,520.162184 270.31192,520.029966 269.408492,519.892466 L272.622032,482.918178 C269.047172,482.341794 265.506552,481.665772 262.003237,480.893117 L250.553621,516.202356 C249.663446,515.988667 248.775356,515.769772 247.889386,515.545706 L254.766202,479.146338 C251.26506,478.22764 247.804526,477.211575 244.387805,476.101284 L229.500697,510.055172 C228.635586,509.756292 227.772905,509.45236 226.91269,509.143415 L237.370106,473.666212 C233.976902,472.412988 230.630789,471.065581 227.335082,469.627241 L209.170994,501.906788 C208.338875,501.525376 207.509538,501.139105 206.68302,500.748014 L220.602796,466.529176 C217.351156,464.954178 214.153087,463.288999 211.01199,461.536973 L189.759156,491.842487 C188.967748,491.382145 188.179475,490.91717 187.394373,490.447601 L204.628199,457.809193 C201.548513,455.928346 198.528845,453.96192 195.572656,451.913308 L171.445877,479.966778 C170.703123,479.432259 169.963849,478.893366 169.228092,478.35014 L189.596465,447.595067 C186.717182,445.426905 183.904278,443.178233 181.161255,440.852485 L154.400607,466.399921 C153.714163,465.796925 153.031528,465.189844 152.352744,464.57872 L175.649382,435.989134 C172.997523,433.554603 170.418248,431.045013 167.915084,428.46382 L138.781736,451.274911 C138.158305,450.609457 137.539,449.940229 136.923861,449.267265 L162.917119,423.101954 C160.517224,420.422968 158.195957,417.674623 155.956853,414.860384 L124.733478,434.7315 C124.179389,434.010289 123.629719,433.285629 123.084511,432.55756 L151.52283,409.054493 C149.399008,406.15589 147.359551,403.193882 145.40798,400.171923 L112.393867,416.924131 C111.914968,416.154658 111.440753,415.382076 110.971262,414.606423 L141.580524,393.977092 C139.754351,390.884732 138.017922,387.735078 136.374732,384.531555 L101.88591,398.014129 C101.487132,397.204222 101.093268,396.391555 100.704356,395.576164 L133.192056,378.006976 C131.684037,374.750781 130.270545,371.443584 128.955015,368.088753 L93.3219841,378.182897 C93.0068821,377.339746 92.6968938,376.494177 92.3920562,375.646228 L126.448729,361.296763 C125.275918,357.909171 124.201646,354.476974 123.229258,351.003452 L86.7913411,357.619983 C86.5627279,356.751285 86.3393916,355.880508 86.1213675,355.007687 L121.422616,344.00775 C120.597527,340.523166 119.874056,337.00038 119.255429,333.442556 L82.3570731,336.523533 C82.2167744,335.637641 82.0818673,334.750001 81.9523857,333.860646 L118.162815,326.310468 C117.692445,322.764873 117.325682,319.187381 117.065602,315.581007 L80.0514805,315.101394 C79.9999873,314.207607 79.9539363,313.312394 79.9133596,312.415785 L116.690243,308.381883 C116.627238,306.42811 116.595498,304.466605 116.595498,302.497833 C116.595498,300.85596 116.617573,299.219141 116.661447,297.587646 L79.8715116,293.55256 C79.9080037,292.657975 79.9499446,291.764764 79.9973027,290.872959 L116.997645,290.394041 C117.238681,286.778226 117.58693,283.191088 118.039305,279.635653 L81.8164761,272.083285 C81.9410533,271.200134 82.0709777,270.318657 82.2062164,269.438888 L119.090459,272.51749 C119.69202,268.942131 120.399381,265.401744 121.209285,261.899523 L85.8967264,250.895684 C86.1085725,250.031622 86.32562,249.169545 86.5478346,248.309487 L122.971451,254.922824 C123.930674,251.423566 124.993163,247.965776 126.155518,244.552785 L92.0886087,230.199104 C92.385281,229.362884 92.6869557,228.528959 92.9935975,227.697365 L128.61256,237.787045 C129.920494,234.3992 131.32814,231.059395 132.831986,227.771071 L100.334833,210.198217 C100.713113,209.39694 101.096167,208.59827 101.483957,207.802244 L135.958998,221.279692 C137.601546,218.037087 139.33938,214.849067 141.168911,211.719152 L110.552122,191.084617 C111.007845,190.32537 111.468083,189.569039 111.932801,188.815662 L144.934081,205.561446 C146.893095,202.495736 148.942273,199.491045 151.077972,196.550943 L122.633415,173.042644 C123.161607,172.332259 123.694033,171.625093 124.230658,170.921182 L155.441807,190.785621 C157.697008,187.924796 160.036785,185.131304 162.457466,182.408747 L136.459087,156.238449 C137.053594,155.583998 137.652028,154.933051 138.254353,154.285644 L167.376632,177.089407 C169.905171,174.460162 172.512317,171.904367 175.194388,169.425632 L151.893414,140.83164 C152.548245,140.2388 153.206685,139.649735 153.8687,139.064481 L180.620326,164.603595 C183.397351,162.230783 186.246723,159.937269 189.16477,157.726653 L168.794291,126.966616 C169.501872,126.441565 170.212726,125.92053 170.926819,125.403546 L195.045717,153.44886 C198.045095,151.355051 201.110368,149.346073 204.237895,147.425497 L187.00252,114.782971 C187.756284,114.330068 188.512985,113.881405 189.27259,113.437016 L210.519686,143.73426 C213.712303,141.940867 216.964184,140.237356 220.271739,138.627245 L206.349268,104.40591 C207.1415,104.029452 207.936331,103.657428 208.733728,103.289869 L226.893358,135.561882 C230.24761,134.087703 233.654374,132.707824 237.110139,131.425686 L226.652507,95.9458749 C227.47535,95.6492123 228.300457,95.3571399 229.127794,95.0696896 L244.012001,129.016939 C247.493742,127.877407 251.021187,126.835785 254.590937,125.895407 L247.713609,89.4944887 C248.560587,89.2795625 249.409505,89.0693629 250.260333,88.8639203 L261.70775,124.167966 C265.280279,123.37403 268.891738,122.680615 272.53887,122.090914 L269.325511,85.115844 C270.188187,84.9842217 271.052488,84.8574161 271.918387,84.7354562 L279.80093,121.060363 C283.427548,120.61695 287.0865,120.275599 290.774701,120.039337 L291.27538,82.8421267 C292.14563,82.7939962 293.017204,82.7507262 293.890077,82.7123442 L298.112339,119.709795 C299.776545,119.666788 301.446183,119.64515 303.120976,119.64515 C305.129302,119.64515 307.130215,119.676265 309.123241,119.73803 L313.353883,82.6708154 Z M281.653398,328.074858 L281.145821,328.346913 L193.571085,375.934532 C191.928446,376.826961 190.391077,377.900801 188.987816,379.135934 C178.62359,388.258397 177.616942,404.05548 186.739231,414.41986 C196.323558,425.309749 204.739923,433.271562 211.988325,438.3053 C239.315436,457.282933 276.051909,467.6409 295.83426,468.103607 C315.563768,468.565078 349.210361,466.557888 381.758529,449.078573 C391.36102,443.921756 404.322208,434.269023 420.642095,420.120376 C422.71472,418.322454 424.47764,416.195935 425.859803,413.825719 C432.745522,402.017682 428.863956,386.896861 417.212445,379.847164 L416.856993,379.636019 L330.213116,329.091277 C315.278195,320.378812 296.915437,320.006993 281.653398,328.074858 Z M338.810842,145.267208 C325.141915,145.324723 314.081338,156.341502 313.919174,169.958741 L313.917605,170.372172 L314.343102,268.321261 C314.420249,286.080464 323.910181,302.451418 339.247991,311.350566 L339.714559,311.617943 L426.572049,360.777711 C427.939,361.551552 429.375848,362.194823 430.863524,362.699008 C443.940077,367.130745 458.13335,360.122737 462.565578,347.046351 C467.329058,332.995745 470.051828,321.538844 470.733889,312.675647 C473.253133,279.938768 463.389297,243.73476 453.605216,226.873552 C443.847271,210.057385 424.762939,182.818296 392.716231,164.470108 C383.09366,158.961588 367.607594,152.928097 346.258033,146.369634 C343.845548,145.628203 341.334666,145.256589 338.810842,145.267208 Z M265.720582,145.511818 C250.825709,148.502919 239.273635,151.933764 231.064359,155.804354 C200.88413,170.034024 173.832528,196.510157 163.828974,213.24718 C153.852141,229.939495 139.330653,259.761118 139.144875,296.141991 C139.090084,307.010316 141.478392,323.066209 146.3098,344.309667 C146.857606,346.716484 147.758567,349.029007 148.983641,351.171914 C155.767712,363.038642 170.803818,367.236415 182.734526,360.670261 L183.0951,360.467989 L270.451206,310.538864 C285.8718,301.725092 295.447162,285.400779 295.637127,267.666951 L295.640007,267.129137 L295.640007,170.023654 C295.640084,168.3713 295.476345,166.723008 295.151193,165.102962 C292.434213,151.565807 279.257633,142.794324 265.720582,145.511818 Z M304.118438,292.719614 C298.609605,292.719614 294.143814,297.097472 294.143814,302.497833 C294.143814,307.898193 298.609605,312.276051 304.118438,312.276051 C309.627271,312.276051 314.093063,307.898193 314.093063,302.497833 C314.093063,297.097472 309.627271,292.719614 304.118438,292.719614 Z" id="path-15"></path>
        <filter x="-8.2%" y="-5.4%" width="116.4%" height="116.8%" filterUnits="objectBoundingBox" id="filter-16">
            <feMorphology radius="4.5" operator="dilate" in="SourceAlpha" result="shadowSpreadOuter1"></feMorphology>
            <feOffset dx="0" dy="13" in="shadowSpreadOuter1" result="shadowOffsetOuter1"></feOffset>
            <feGaussianBlur stdDeviation="5.5" in="shadowOffsetOuter1" result="shadowBlurOuter1"></feGaussianBlur>
            <feComposite in="shadowBlurOuter1" in2="SourceAlpha" operator="out" result="shadowBlurOuter1"></feComposite>
            <feColorMatrix values="0 0 0 0 0   0 0 0 0 0   0 0 0 0 0  0 0 0 0.5 0" type="matrix" in="shadowBlurOuter1"></feColorMatrix>
        </filter>
        <ellipse id="path-17" cx="302.90395" cy="302.542726" rx="241" ry="236"></ellipse>
        <filter x="-6.0%" y="-6.1%" width="112.0%" height="112.3%" filterUnits="objectBoundingBox" id="filter-18">
            <feMorphology radius="13" operator="erode" in="SourceAlpha" result="shadowSpreadInner1"></feMorphology>
            <feGaussianBlur stdDeviation="10" in="shadowSpreadInner1" result="shadowBlurInner1"></feGaussianBlur>
            <feOffset dx="0" dy="20" in="shadowBlurInner1" result="shadowOffsetInner1"></feOffset>
            <feComposite in="shadowOffsetInner1" in2="SourceAlpha" operator="arithmetic" k2="-1" k3="1" result="shadowInnerInner1"></feComposite>
            <feColorMatrix values="0 0 0 0 0   0 0 0 0 0   0 0 0 0 0  0 0 0 0.754496968 0" type="matrix" in="shadowInnerInner1"></feColorMatrix>
        </filter>
    </defs>
    <g id="Page-1" stroke="none" stroke-width="1" fill="none" fill-rule="evenodd">
        <g id="Profile-Picture" transform="translate(-131.000000, -104.000000)">
            <g id="Apple-Device-VK" transform="translate(-64.000000, 52.000000)">
                <g id="Apple-gear" filter="url(#filter-1)" transform="translate(161.096050, 11.457274)">
                    <ellipse id="circle-out" stroke="url(#linearGradient-3)" stroke-width="3" fill="url(#linearGradient-2)" cx="303.90395" cy="302.542726" rx="264" ry="259"></ellipse>
                    <g id="circle-in">
                        <use fill="#525151" fill-rule="evenodd" xlink:href="#path-5"></use>
                        <use fill="black" fill-opacity="1" filter="url(#filter-6)" xlink:href="#path-5"></use>
                        <use stroke="url(#linearGradient-4)" stroke-width="5" xlink:href="#path-5"></use>
                    </g>
                    <path d="M310.021468,155.542716 C310.856287,155.575618 311.689352,155.615223 312.520608,155.661479 L313.100956,173.737386 C315.602583,173.897386 318.085247,174.125777 320.547032,174.420677 L324.699165,156.827217 C325.52533,156.939791 326.349346,157.058977 327.171155,157.184717 L325.950488,175.179556 C328.427142,175.578905 330.880643,176.045901 333.308966,176.578551 L339.177923,159.520359 C339.987422,159.712046 340.794364,159.910183 341.598691,160.114712 L338.600905,177.853166 C341.029105,178.490811 343.429792,179.194699 345.800841,179.96274 L353.316284,163.605389 C354.102608,163.8748 354.885954,164.150461 355.66626,164.432311 L350.929438,181.74066 C353.284916,182.611578 355.608436,183.546683 357.897796,184.543808 L366.975465,169.043779 C367.730488,169.387989 368.482112,169.738188 369.230275,170.094313 L362.813196,186.805042 C365.072716,187.900856 367.295813,189.058249 369.480222,190.274991 L380.020909,175.777571 C380.738684,176.193576 381.452632,176.615285 382.162688,177.042635 L374.140126,192.99621 C376.281547,194.305826 378.382116,195.673946 380.439524,197.098297 L392.331433,183.737052 C393.004568,184.220303 393.67346,184.708929 394.338042,185.202866 L384.800098,200.249851 C386.803985,201.760952 388.76262,203.32718 390.673659,204.946231 L403.791103,192.840302 C404.413539,193.386212 405.03132,193.937144 405.644381,194.493034 L394.693203,208.493949 C396.541209,210.192881 398.339617,211.943329 400.086059,213.742967 L414.294345,202.998906 C414.859255,203.601331 415.41913,204.208391 415.973905,204.820022 L403.727923,217.651289 C405.401708,219.522263 407.021694,221.440906 408.585504,223.404881 L423.74129,214.116124 C424.243493,214.769496 424.740298,215.427103 425.23164,216.088883 L411.814934,227.634437 C413.298472,229.661693 414.724131,231.732646 416.089531,233.844955 L432.040057,226.088982 C432.474555,226.787059 432.903319,227.488962 433.326284,228.194627 L418.875399,238.354227 C420.152222,240.518719 421.367386,242.722751 422.518528,244.964001 L439.105506,238.804734 C439.467742,239.540574 439.823949,240.27982 440.174063,241.022408 L424.834294,249.710038 C425.889987,251.991438 426.880619,254.308102 427.803856,256.657738 L444.864098,252.14422 C445.150634,252.911297 445.43088,253.68136 445.704773,254.45435 L429.628126,261.597263 C430.450123,263.972604 431.204198,266.378831 431.888074,268.813707 L449.254018,265.974533 C449.462158,266.765964 449.663788,267.559969 449.858851,268.35649 L433.203277,273.896572 C433.782539,276.342033 434.291641,278.813989 434.728385,281.310277 L452.233987,280.162481 C452.361936,280.97105 452.48321,281.781791 452.597754,282.594648 L435.525527,286.490233 C435.856685,288.980584 436.116195,291.493092 436.301958,294.025693 L453.783138,294.569118 C453.830185,295.386586 453.870467,296.205834 453.903931,297.026807 L436.578999,299.251264 C436.62542,300.667695 436.648809,302.089848 436.648809,303.517372 C436.648809,304.627486 436.634665,305.734352 436.606544,306.837804 L453.90389,309.059611 C453.870448,309.879915 453.830198,310.698495 453.783196,311.5153 L436.368267,312.056735 C436.200694,314.599066 435.958834,317.121491 435.6448,319.62193 L452.597754,323.490769 C452.483257,324.303291 452.362036,325.113699 452.234145,325.921937 L434.889329,324.783869 C434.468551,327.299518 433.974365,329.790849 433.409006,332.255666 L449.859096,337.727928 C449.664039,338.52445 449.462414,339.318455 449.254281,340.109886 L432.139722,337.312157 C431.467447,339.775654 430.723442,342.210279 429.910043,344.613733 L445.704773,351.631067 C445.43088,352.404058 445.150634,353.174121 444.864098,353.941197 L428.138373,349.516546 C427.220881,351.902042 426.234102,354.254069 425.180452,356.570251 L440.174535,365.062007 C439.824269,365.804933 439.467905,366.544512 439.105506,367.280684 L422.924925,361.272678 C421.771877,363.556601 420.552574,365.802461 419.269488,368.007827 L433.326284,377.890791 C432.903319,378.596456 432.474555,379.298358 432.040057,379.996436 L416.553483,372.466809 C415.177394,374.626868 413.738566,376.744336 412.23951,378.816746 L425.23164,389.996535 C424.740298,390.658314 424.243493,391.315922 423.74129,391.969293 L409.091633,382.990142 C407.507439,385.005354 405.864415,386.973575 404.165093,388.892316 L415.974815,401.264393 C415.419743,401.876363 414.859564,402.483757 414.294345,403.086512 L400.615607,392.742933 C398.83904,394.594933 397.007791,396.395658 395.124399,398.142614 L405.644381,411.592383 C405.03132,412.148274 404.413539,412.699206 403.791103,413.245115 L391.208992,401.632527 C389.257729,403.303539 387.256148,404.91919 385.206779,406.476993 L394.338042,420.882552 C393.67346,421.376488 393.004568,421.865115 392.331433,422.348366 L380.961418,409.573286 C378.854081,411.047193 376.700931,412.461888 374.504477,413.814903 L382.161689,429.043384 C381.451962,429.470528 380.738348,429.892037 380.020909,430.307847 L369.97103,416.485003 C367.727874,417.746956 365.443522,418.946167 363.120448,420.080204 L369.230275,435.991105 C368.481781,436.347388 367.729822,436.697739 366.974462,437.042096 L358.33989,422.297426 C355.984064,423.333713 353.591773,424.30422 351.165432,425.206573 L355.66626,441.653107 C354.885954,441.934957 354.102608,442.210618 353.316284,442.480028 L346.179758,426.948635 C343.735491,427.748506 341.259523,428.480136 338.754191,429.141228 L341.598691,445.970706 C340.794033,446.175319 339.986758,446.373535 339.176925,446.565295 L333.61259,430.389223 C331.106147,430.945138 328.572743,431.431074 326.014612,431.844833 L327.171155,448.900701 C326.349346,449.026441 325.52533,449.145626 324.699165,449.2582 L320.76404,432.587893 C318.221325,432.896678 315.656255,433.134498 313.070942,433.299275 L312.520608,450.423939 C311.689352,450.470194 310.856287,450.5098 310.021468,450.542701 L307.762714,433.533609 C306.64077,433.561251 305.515356,433.575154 304.386641,433.575154 C302.9351,433.575154 301.48902,433.552161 300.048757,433.506524 L297.785397,450.542662 C296.950912,450.509768 296.11818,450.470176 295.287256,450.423939 L294.734511,433.234114 C292.159253,433.051475 289.604422,432.796331 287.07212,432.47075 L283.109699,449.258337 C282.283199,449.145722 281.45885,449.026492 280.636709,448.900701 L281.803516,431.686799 C279.264842,431.257329 276.750914,430.756702 274.263933,430.187081 L268.628942,446.564822 C267.819444,446.37313 267.012501,446.174986 266.208174,445.970452 L269.094656,428.893734 C266.618155,428.221156 264.170797,427.47953 261.754857,426.671095 L254.491581,442.480028 C253.705591,442.210732 252.922578,441.935192 252.142601,441.653467 L256.733748,424.87799 C254.344367,423.970192 251.988514,422.996128 249.668521,421.95809 L240.833403,437.042096 C240.077705,436.697585 239.325412,436.347075 238.576586,435.990628 L244.839835,419.679885 C242.561169,418.548189 240.320333,417.353569 238.119688,416.098347 L227.786955,430.307847 C227.06918,429.891842 226.355232,429.470132 225.645176,429.042782 L233.5325,413.358017 C231.384861,412.015648 229.279263,410.614049 227.218082,409.155561 L215.476431,422.348366 C214.803296,421.865115 214.134404,421.376488 213.469823,420.882552 L222.917218,405.980281 C220.919333,404.442084 218.967575,402.848612 217.064324,401.202205 L204.016761,413.245115 C203.394325,412.699206 202.776544,412.148274 202.163484,411.592383 L213.090292,397.621477 C211.260574,395.904528 209.480857,394.136502 207.753506,392.319726 L193.514459,403.087514 C192.94923,402.48476 192.389041,401.877366 191.833959,401.265396 L204.145301,388.366847 C202.498509,386.487339 200.905453,384.561012 199.368479,382.590172 L184.06581,391.968299 C183.563615,391.314927 183.066818,390.657319 182.575485,389.995539 L196.163928,378.302823 C194.715483,376.279777 193.324218,374.214292 191.992444,372.108639 L175.767808,379.996436 C175.33331,379.298358 174.904545,378.596456 174.48158,377.890791 L189.224802,367.525913 C187.987539,365.378083 186.810622,363.192215 185.696317,360.970537 L168.702359,367.280684 C168.339959,366.544512 167.983595,365.804933 167.633329,365.062007 L183.395807,356.134998 C182.382065,353.884339 181.431363,351.600105 180.545905,349.284461 L162.943766,353.941197 C162.657353,353.174451 162.377225,352.40472 162.103444,351.632065 L178.737665,344.240792 C177.956624,341.909281 177.240824,339.548628 176.592388,337.160922 L158.553583,340.109886 C158.345537,339.318786 158.143994,338.525114 157.949013,337.728928 L175.296391,331.958071 C174.754591,329.569723 174.279587,327.156605 173.873405,324.720712 L155.57356,325.920938 C155.445729,325.113031 155.32456,324.302956 155.21011,323.490769 L173.101804,319.408061 C172.801939,316.987523 172.569699,314.546459 172.406996,312.08675 L154.024668,311.5153 C153.977647,310.698163 153.937383,309.879249 153.903933,309.058611 L172.163637,306.713851 C172.137577,305.651466 172.124473,304.585924 172.124473,303.517372 C172.124473,302.131429 172.146518,300.75055 172.190284,299.375054 L153.903933,297.026807 C153.937383,296.206168 153.977647,295.387254 154.024668,294.570118 L172.473528,293.995681 C172.653805,291.545713 172.903096,289.114558 173.2195,286.704085 L155.21011,282.594648 C155.324607,281.782126 155.445829,280.971719 155.573719,280.16348 L174.033895,281.373251 C174.455424,278.956794 174.944754,276.563113 175.499889,274.19417 L157.949013,268.35649 C158.144076,267.559969 158.345707,266.765964 158.553846,265.974533 L176.842953,268.964504 C177.502506,266.60509 178.227954,264.272506 179.017229,261.968787 L162.103091,254.45435 C162.376984,253.68136 162.65723,252.911297 162.943766,252.14422 L180.878801,256.889036 C181.769605,254.608936 182.723827,252.359757 183.739344,250.14359 L167.633802,241.022408 C167.983916,240.27982 168.340122,239.540574 168.702359,238.804734 L186.100755,245.264804 C187.212802,243.085615 188.385296,240.941409 189.616073,238.834312 L174.48158,228.194627 C174.904545,227.488962 175.33331,226.787059 175.767808,226.088982 L192.454075,234.201545 C193.77506,232.143232 195.153139,230.123892 196.586124,228.145676 L182.576225,216.088883 C183.067566,215.427103 183.564371,214.769496 184.066574,214.116124 L199.871864,223.803218 C201.38842,221.88334 202.958479,220.006361 204.57984,218.174447 L191.833959,204.820022 C192.389041,204.208052 192.94923,203.600658 193.514459,202.997904 L208.280336,214.164114 C209.977675,212.399457 211.724734,210.681523 213.519308,209.01248 L202.163484,194.493034 C202.776544,193.937144 203.394325,193.386212 204.016761,192.840302 L217.597299,205.373959 C219.460208,203.77967 221.368942,202.235826 223.321301,200.744589 L213.469823,185.202866 C214.134404,184.708929 214.803296,184.220303 215.476431,183.737052 L227.736503,197.514206 C229.748641,196.104804 231.802616,194.749414 233.896242,193.450189 L225.645176,177.042635 C226.355232,176.615285 227.06918,176.193576 227.786955,175.777571 L238.607691,190.659413 C240.750305,189.449271 242.930649,188.29643 245.146562,187.203017 L238.577589,170.094313 C239.326083,169.73803 240.078042,169.387679 240.833403,169.043322 L250.109131,184.880472 C252.362873,183.881895 254.650186,182.943592 256.968944,182.067651 L252.142601,164.431951 C252.922578,164.150226 253.705591,163.874686 254.491581,163.605389 L262.133338,180.237632 C264.476362,179.461416 266.848746,178.747977 269.248421,178.09935 L266.208174,160.114966 C267.012501,159.910431 267.819444,159.712288 268.628942,159.520595 L274.566697,176.77869 C276.975811,176.232808 279.410082,175.751636 281.867515,175.337135 L280.636709,157.184717 C281.458519,157.058977 282.282534,156.939791 283.108699,156.827217 L287.289926,174.536172 C289.740732,174.225137 292.212562,173.980067 294.703515,173.802832 L295.287256,155.661479 C296.118512,155.615223 296.951577,155.575618 297.786397,155.542716 L300.174504,173.524294 C301.573184,173.481265 302.977338,173.459591 304.386641,173.459591 C305.473118,173.459591 306.556535,173.472473 307.636743,173.49809 L310.021468,155.542716 Z M303.903932,190.84051 C241.504317,190.84051 190.919434,240.636415 190.919434,302.062777 C190.919434,363.489139 241.504317,413.285044 303.903932,413.285044 C366.303547,413.285044 416.88843,363.489139 416.88843,302.062777 C416.88843,240.636415 366.303547,190.84051 303.903932,190.84051 Z" id="shadow-small" fill-opacity="0.7" fill="#000000" filter="url(#filter-7)"></path>
                    <g id="gear-small">
                        <use fill="black" fill-opacity="1" filter="url(#filter-9)" xlink:href="#path-8"></use>
                        <use stroke="#979797" stroke-width="1" fill="#9D9B9B" fill-rule="evenodd" xlink:href="#path-8"></use>
                    </g>
                    <g id="shadow" filter="url(#filter-11)" transform="translate(304.116279, 302.499752) rotate(-28.000000) translate(-304.116279, -302.499752) ">
                        <use fill="black" fill-opacity="1" filter="url(#filter-12)" xlink:href="#path-10"></use>
                        <use stroke="#282828" stroke-width="2" fill-opacity="0.13" fill="#000000" fill-rule="evenodd" xlink:href="#path-10"></use>
                    </g>
                    <g id="gear-bigg" transform="translate(304.116201, 302.500022) rotate(-30.000000) translate(-304.116201, -302.500022) ">
                        <use fill="black" fill-opacity="1" filter="url(#filter-16)" xlink:href="#path-15"></use>
                        <path stroke="url(#linearGradient-14)" stroke-width="2" d="M314.241917,83.7087066 L314.609173,83.7250515 L314.609173,83.7250515 L314.976276,83.7419755 L315.479104,121.042161 C319.147519,121.278621 322.786818,121.619591 326.393932,122.062067 L328.194793,122.29175 L336.131102,85.7189386 L336.490174,85.7697273 L336.490174,85.7697273 L336.849063,85.8210737 L333.611633,123.089128 C337.231753,123.675823 340.816511,124.365249 344.362685,125.154252 L346.132542,125.557037 L357.71746,89.8301019 L358.065122,89.9143 L358.065122,89.9143 L358.41257,89.9990298 L351.446205,126.875577 C354.983205,127.808372 358.478426,128.841099 361.928524,129.970483 L363.649796,130.543214 L378.7871,96.0164582 L379.12129,96.1328754 L379.12129,96.1328754 L379.455236,96.2497975 L368.8078,132.372082 C372.22664,133.641051 375.597249,135.006201 378.916191,136.464163 L380.57134,137.200863 L399.130246,104.21911 L399.766797,104.513908 L385.525076,139.522747 C388.792721,141.11325 392.005742,142.7954 395.160638,144.565768 L396.733226,145.458288 L418.547535,114.35179 L418.847925,114.528023 L418.847925,114.528023 L419.14801,114.704704 L401.435869,148.25009 C404.521934,150.144003 407.547101,152.124436 410.507833,154.187922 L411.982813,155.22657 L436.8538,126.307859 L437.133814,126.511218 L437.133814,126.511218 L437.413493,126.714994 L416.389801,158.460509 C419.267074,160.637685 422.077314,162.895852 424.816966,165.231529 L426.180894,166.40581 L453.875989,139.964262 L454.389389,140.420477 L430.248303,170.048727 C432.890958,172.486697 435.460658,174.999809 437.95385,177.584583 L439.194054,178.882925 L469.455513,155.187581 L469.687037,155.437498 L469.687037,155.437498 L469.918174,155.687765 L442.883581,182.900693 C445.268006,185.575703 447.573804,188.319791 449.797441,191.129494 L450.902396,192.539797 L483.441902,171.830933 L483.645845,172.099844 L483.645845,172.099844 L483.849379,172.369071 L454.17605,196.892859 C456.280273,199.779506 458.300528,202.729007 460.233313,205.737936 L461.1924,207.247337 L495.697474,189.737985 L495.872796,190.024066 L495.872796,190.024066 L496.047685,190.31043 L464.017784,211.896239 C465.821234,214.966716 467.53584,218.093687 469.158157,221.273781 L469.961609,222.868239 L506.097877,208.742618 L506.242517,209.042071 L506.242517,209.042071 L506.386708,209.341772 L472.308843,227.769189 C473.79345,230.993542 475.184943,234.267945 476.479959,237.589103 L477.119412,239.253563 L514.529972,228.656227 L514.643678,228.968254 L514.643678,228.968254 L514.756916,229.2805 L478.963838,244.361 C480.114729,247.706809 481.169016,251.096192 482.123447,254.525961 L482.592326,256.244196 L520.907296,249.286579 L520.989296,249.609665 L520.989296,249.609665 L521.070808,249.932941 L483.915421,261.5116 C484.722082,264.944318 485.429605,268.414184 486.034879,271.918145 L486.328981,273.672953 L525.169581,270.430073 L525.219002,270.762038 L525.219002,270.762038 L525.267917,271.094163 L487.118409,279.048438 C487.57615,282.533836 487.933225,286.050142 488.186686,289.594461 L488.304769,291.368942 L527.289234,291.873745 L527.3212,292.551576 L488.557227,296.803151 C488.616566,298.694251 488.646453,300.59262 488.646453,302.497833 C488.646453,304.172085 488.623373,305.841054 488.577508,307.504449 L488.524058,309.165975 L527.274696,313.416186 L527.257284,313.758452 L527.257284,313.758452 L527.239337,314.10058 L488.241779,314.606033 C488.004031,318.151417 487.662631,321.669051 487.220518,325.156052 L486.991082,326.896985 L525.127024,334.848631 L525.075154,335.190192 L525.075154,335.190192 L525.022748,335.531582 L486.169494,332.28763 C485.581127,335.78757 484.890809,339.25382 484.101629,342.68335 L483.698814,344.395042 L520.841003,355.968754 L520.754345,356.306163 L520.754345,356.306163 L520.667154,356.643364 L482.340037,349.684418 C481.405129,353.104685 480.371026,356.485174 479.240937,359.82274 L478.667909,361.487932 L514.448063,376.563284 L514.326498,376.894092 L514.326498,376.894092 L514.204407,377.224654 L476.782558,366.625107 C475.510833,369.932368 474.143596,373.193721 472.684146,376.405936 L471.946752,378.007934 L506.012202,396.42987 L505.855098,396.753052 L505.855098,396.753052 L505.697473,397.075943 L469.552233,382.944761 C467.957729,386.10813 466.272122,389.219487 464.498774,392.275541 L463.604804,393.798944 L495.623865,415.377497 L495.43128,415.690163 L495.43128,415.690163 L495.238179,416.002487 L460.724218,398.489256 C458.82486,401.479087 456.839423,404.410919 454.771308,407.281423 L453.730376,408.711549 L483.394313,433.227358 L483.167499,433.525202 L483.167499,433.525202 L482.940182,433.822656 L450.392854,413.109753 C448.208431,415.899925 445.943346,418.62623 443.601021,421.28532 L442.423437,422.609249 L469.449868,449.814168 L469.189905,450.093846 L469.189905,450.093846 L468.929456,450.373083 L438.66195,426.672889 C436.213736,429.239352 433.690552,431.736224 431.095822,434.160151 L429.79251,435.36602 L453.927343,464.985896 L453.343688,465.501441 L425.643257,439.05549 C422.955063,441.374669 420.197847,443.618782 417.375019,445.784487 L415.958154,446.860789 L436.976299,478.598923 L436.656137,478.830961 L436.656137,478.830961 L436.335539,479.062453 L411.460486,450.139355 C408.55673,452.190231 405.590042,454.160826 402.563803,456.047823 L401.045736,456.98434 L418.754361,490.522601 L418.407876,490.725597 L418.407876,490.725597 L418.060985,490.927997 L396.243835,459.817296 C393.150921,461.580151 390.001279,463.257879 386.798249,464.847205 L385.1923,465.634487 L399.432223,500.637006 L399.062804,500.807647 L399.062804,500.807647 L398.693017,500.977646 L380.131868,467.99229 C376.879534,469.448765 373.576796,470.815829 370.226927,472.090274 L368.54808,472.719764 L379.194201,508.837312 L378.804685,508.973096 L378.804685,508.973096 L378.414837,509.108193 L363.275927,474.578433 C359.895633,475.7135 356.471303,476.755557 353.006116,477.70149 L351.270132,478.166431 L358.23634,515.039684 L357.829855,515.138407 L357.829855,515.138407 L357.423076,515.236402 L345.837229,479.50709 C342.362779,480.309599 338.850632,481.016359 335.303847,481.624374 L333.527582,481.920139 L336.76493,519.186681 L336.345238,519.246508 L336.345238,519.246508 L335.925294,519.305574 L327.988405,482.73113 C324.453477,483.19527 320.887038,483.561836 317.292,483.827977 L315.492111,483.952665 L314.989289,521.253079 L314.560221,521.272826 L314.560221,521.272826 L314.130942,521.291782 L309.901392,484.231333 C307.651234,484.310563 305.390864,484.350516 303.120976,484.350516 C301.830213,484.350516 300.542528,484.337596 299.258049,484.311883 L297.333749,484.263731 L293.113312,521.246735 L292.249697,521.204055 L291.749099,484.014515 C288.136694,483.800424 284.552177,483.485017 280.998466,483.071149 L279.224191,482.856023 L271.344037,519.168288 L270.914931,519.106044 L270.914931,519.106044 L270.486091,519.043002 L273.698947,482.076577 C270.124634,481.518346 266.584355,480.860047 263.081193,480.1047 L261.332719,479.718953 L249.888264,515.012276 L249.467484,514.909012 L249.467484,514.909012 L249.047021,514.804968 L255.922353,478.413457 C252.420655,477.513237 248.959357,476.515216 245.541679,475.422552 L243.83649,474.868347 L228.956058,508.807009 L228.547447,508.663519 L228.547447,508.663519 L228.139203,508.519273 L238.594329,473.049838 C235.199126,471.815178 231.850809,470.485888 228.55271,469.065238 L226.907861,468.347314 L208.751831,500.61254 L208.358942,500.43004 L208.358942,500.43004 L207.966473,500.246814 L221.883152,466.035592 C218.627706,464.478914 215.425642,462.831585 212.28038,461.096958 L210.712498,460.222385 L189.46896,490.514643 L188.722328,490.074302 L205.952243,457.443301 C202.866845,455.580263 199.841299,453.631154 196.87909,451.599387 L195.403279,450.576631 L171.286887,478.618023 L170.936994,478.363528 L170.936994,478.363528 L170.587624,478.108381 L190.95126,447.360461 C188.064356,445.209369 185.243697,442.977256 182.492809,440.667577 L181.123197,439.50629 L154.373878,465.04291 L154.051938,464.757206 L154.051938,464.757206 L153.730568,464.470897 L177.021625,435.88816 C174.360267,433.469747 171.7714,430.975747 169.258576,428.409641 L168.008518,427.120595 L138.887305,449.922185 L138.596527,449.608627 L138.596527,449.608627 L138.306361,449.294516 L164.293165,423.135701 C161.882119,420.471854 159.549642,417.738119 157.2993,414.937985 L156.180989,413.532401 L124.970411,433.395373 L124.713835,433.057848 L124.713835,433.057848 L124.457905,432.719825 L152.888886,409.222822 C150.752369,406.338265 148.700199,403.389778 146.73593,400.380839 L145.761136,398.871348 L112.760342,415.616798 L112.540662,415.259733 L112.540662,415.259733 L112.321656,414.902225 L142.922687,394.278441 C141.082535,391.199155 139.332143,388.062067 137.675034,384.870628 L136.85427,383.270396 L102.379131,396.74762 L102.198218,396.375311 L102.198218,396.375311 L102.017999,396.002616 L134.496588,378.438355 C132.973417,375.19416 131.544822,371.898478 130.214267,368.554703 L129.557176,366.878823 L93.9380054,376.96904 L93.7964697,376.584169 L93.7964697,376.584169 L93.6556468,376.198965 L127.702382,361.853688 C126.513404,358.476966 125.423046,355.05518 124.434684,351.591638 L123.949018,349.856402 L87.5249312,356.470422 L87.3223968,355.680867 L122.612968,344.684258 C121.770897,341.209429 121.030553,337.695974 120.395191,334.147085 L120.086273,332.369702 L83.2014835,335.449546 L83.0795163,334.647136 L119.278665,327.099311 C118.790698,323.562369 118.40647,319.993145 118.129078,316.394678 L117.9993,314.593022 L80.9982315,314.113578 L80.956756,313.307337 L117.721924,309.274719 C117.637884,307.025942 117.595498,304.76674 117.595498,302.497833 C117.595498,301.041496 117.612961,299.589157 117.647693,298.141007 L117.688174,296.69426 L80.9107355,292.660544 L80.9482767,291.860734 L117.936381,291.381974 C118.163463,287.690219 118.502903,284.028173 118.951396,280.399081 L119.150275,278.845783 L82.9395022,271.295929 L82.9968341,270.904452 L82.9968341,270.904452 L83.0548698,270.513199 L119.926347,273.590736 C120.521196,269.940132 121.226887,266.325787 122.039933,262.751122 L122.394943,261.221562 L87.0938154,250.221286 L87.2855542,249.459782 L123.696117,256.070749 C124.655805,252.49766 125.723639,248.967582 126.895978,245.484081 L127.404796,243.994015 L93.3485293,229.644818 L93.4807131,229.27842 L93.4807131,229.27842 L93.613541,228.91232 L129.219375,238.998281 C130.534735,235.538667 131.954472,232.128889 133.47483,228.772627 L134.132561,227.337516 L101.645157,209.769933 L101.812678,209.419887 L101.812678,209.419887 L101.980811,209.07018 L136.442849,222.542544 C138.065642,219.298374 139.784109,216.108542 141.594643,212.976581 L142.507565,211.41544 L111.899576,190.786837 L112.100785,190.455565 L112.100785,190.455565 L112.302571,190.124669 L145.291147,206.864007 C147.23005,203.796128 149.259449,200.788987 151.375685,197.846166 L152.441023,196.380131 L124.004292,172.8783 L124.237122,172.568534 L124.237122,172.568534 L124.470493,172.259183 L155.669393,192.115826 C157.903967,189.252204 160.223391,186.455589 162.623981,183.729589 L163.831023,182.372489 L137.839501,156.209094 L138.100713,155.924504 L138.100713,155.924504 L138.362425,155.640364 L167.473042,178.434996 C169.980354,175.802154 172.566493,173.242382 175.22777,170.759293 L176.564653,169.524156 L153.269583,140.937408 L153.556603,140.680219 L153.556603,140.680219 L153.844081,140.423513 L180.584772,165.952187 C183.339904,163.574782 186.167558,161.276235 189.064061,159.060147 L190.518033,157.958992 L170.152539,127.206481 L170.46083,126.98014 L170.46083,126.98014 L170.769532,126.754307 L194.878366,154.787917 C197.855115,152.68833 200.897899,150.673067 204.003077,148.745698 L205.560848,147.789354 L188.32956,115.15457 L188.983726,114.766756 L210.221773,145.051097 C213.391169,143.250445 216.619944,141.539108 219.904514,139.920599 L221.551433,139.119096 L207.632171,104.905651 L207.973693,104.745473 L207.973693,104.745473 L208.315533,104.585846 L226.467285,136.843861 C229.797967,135.360685 233.181263,133.971192 236.613674,132.678812 L238.333956,132.040731 L227.878679,96.5689063 L228.231106,96.4438424 L228.231106,96.4438424 L228.583808,96.3193416 L243.46146,130.251641 C246.919685,129.101165 250.423721,128.04795 253.970178,127.095317 L255.746926,126.627398 L248.871109,90.2344809 L249.233111,90.1445435 L249.233111,90.1445435 L249.595347,90.0551838 L261.037675,125.343534 C264.587324,124.536599 268.176024,123.829531 271.800525,123.22551 L273.615744,122.932101 L270.403074,85.9649633 L270.770693,85.9107318 L270.770693,85.9107318 L271.138508,85.8570859 L279.017538,122.165805 C282.622364,121.707416 286.259659,121.350452 289.926347,121.097925 L291.762125,120.980379 L292.2627,83.7909437 L293.002489,83.7542258 L297.222881,120.735295 C299.181415,120.675346 301.147598,120.64515 303.120976,120.64515 C304.851326,120.64515 306.576145,120.668367 308.295125,120.714501 L310.012148,120.768264 L314.241917,83.7087066 Z M330.21354,327.937622 C315.072104,319.333491 296.582274,319.051986 281.186055,327.190782 L281.186055,327.190782 L280.673413,327.465533 L193.093628,375.055877 L192.528298,375.372199 C191.031778,376.234209 189.624343,377.243481 188.327109,378.38529 C182.937723,383.128961 179.981296,389.608026 179.558107,396.248543 C179.134917,402.889081 181.244981,409.691071 185.988577,415.080554 C195.639748,426.046393 204.119315,434.058061 211.41792,439.126663 C238.923195,458.228024 275.901571,468.637657 295.810877,469.103333 C315.655359,469.567493 349.495484,467.539846 382.23165,449.959571 C391.877759,444.779329 404.902527,435.089398 421.297151,420.875956 C423.452851,419.005971 425.286238,416.794433 426.723655,414.329464 C430.31399,408.172547 431.089893,401.14981 429.398117,394.725004 C427.716141,388.337416 423.594247,382.539128 417.367639,378.776192 L417.367639,378.776192 L330.717005,328.227509 Z M338.806634,144.267217 C331.679348,144.297206 325.233952,147.191814 320.55603,151.909524 C315.905248,156.599863 313.000379,163.093729 312.91758,170.368582 L312.91758,170.368582 L313.343111,268.325605 L313.348349,268.868606 C313.615993,286.773216 323.258009,303.229154 338.746137,312.215518 L338.746137,312.215518 L339.217345,312.485571 L426.079487,361.647989 L426.615941,361.94339 C427.875444,362.617729 429.18876,363.187287 430.542549,363.646095 C437.342325,365.950588 444.432446,365.280775 450.39882,362.334922 C456.365237,359.389047 461.20789,354.167099 463.512654,347.367361 C468.309892,333.21718 471.044081,321.677928 471.730941,312.752375 C474.267428,279.791432 464.320058,243.346318 454.470145,226.371659 C444.653868,209.454966 425.449824,182.059263 393.2131,163.602282 C383.547887,158.069352 367.996521,152.001453 346.551684,145.413722 C344.04279,144.64266 341.431442,144.256172 338.806634,144.267217 Z M285.047473,148.379419 C279.50854,144.692305 272.563013,143.118285 265.523764,144.531378 C250.528779,147.542583 238.901901,151.003456 230.637895,154.89985 C200.25685,169.224202 173.039545,195.887726 162.970607,212.734143 C152.932649,229.528728 138.331793,259.535236 138.144888,296.136884 C138.089841,307.056012 140.480538,323.187926 145.3347,344.531435 C145.904447,347.034649 146.841437,349.439634 148.115495,351.668223 C151.652815,357.855718 157.347008,362.038612 163.757068,363.785486 C170.130049,365.522254 177.212505,364.851316 183.58449,361.340089 L183.58449,361.340089 L270.94743,311.407059 L271.417508,311.135065 C286.870832,302.083842 296.445243,285.585291 296.63707,267.677662 L296.63707,267.677662 L296.639993,267.134492 L296.640007,170.023654 L296.632056,169.379498 C296.594892,167.877155 296.427529,166.380423 296.131641,164.906181 C294.718804,157.866827 290.586446,152.06656 285.047473,148.379419 Z M304.118438,291.719614 C301.090189,291.719614 298.34948,292.924348 296.365272,294.869486 C294.373795,296.82175 293.143814,299.519271 293.143814,302.497833 C293.143814,305.476394 294.373795,308.173915 296.365272,310.126179 C298.34948,312.071317 301.090189,313.276051 304.118438,313.276051 C307.146687,313.276051 309.887396,312.071317 311.871604,310.126179 C313.863081,308.173915 315.093063,305.476394 315.093063,302.497833 C315.093063,299.519271 313.863081,296.82175 311.871604,294.869486 C309.887396,292.924348 307.146687,291.719614 304.118438,291.719614 Z" stroke-linejoin="square" fill="url(#linearGradient-13)" fill-rule="evenodd"></path>
                    </g>
                    <g id="circle-in-copy">
                        <use fill="black" fill-opacity="1" filter="url(#filter-18)" xlink:href="#path-17"></use>
                        <use stroke="url(#linearGradient-4)" stroke-width="5" xlink:href="#path-17"></use>
                    </g>
                </g>
            </g>
        </g>
    </g>
</svg>