<?xml version="1.0" encoding="UTF-8" standalone="no"?> <!-- Created with Vectornator for iOS (http://vectornator.io/) --><!DOCTYPE svg PUBLIC "-//W3C//DTD SVG 1.1//EN" "http://www.w3.org/Graphics/SVG/1.1/DTD/svg11.dtd">
<svg style="fill-rule:evenodd;clip-rule:evenodd;stroke-linecap:round;stroke-linejoin:round;" xmlns:vectornator="http://vectornator.io" xmlns:xlink="http://www.w3.org/1999/xlink" xmlns="http://www.w3.org/2000/svg" xml:space="preserve" version="1.1" viewBox="0 0 437 414.721">
<metadata>
<vectornator:setting key="DimensionsVisible" value="1"/>
<vectornator:setting key="SnapToGrid" value="0"/>
<vectornator:setting key="SnapToPoints" value="0"/>
<vectornator:setting key="GuidesVisible" value="1"/>
<vectornator:setting key="RulersVisible" value="1"/>
<vectornator:setting key="SnapToEdges" value="0"/>
<vectornator:setting key="DisplayWhiteBackground" value="0"/>
<vectornator:setting key="SnapToGuides" value="1"/>
<vectornator:setting key="GridSpacing" value="36"/>
<vectornator:setting key="Units" value="Points"/>
<vectornator:setting key="DynamicGuides" value="1"/>
<vectornator:setting key="New" value="1"/>
</metadata>
<defs/>
<g id="Shape" vectornator:layerName="Shape">
<path stroke="#000000" stroke-width="17" d="M177.5+0.125L165.906+2.125C161.906+2.825+159.112+6.43125+159.312+10.5312L159.688+36.9062C159.788+40.4063+157.588+43.325+154.188+44.625C151.887+45.525+146.9+47.4125+144.5+48.3125C141.7+49.3125+138.388+48.5063+135.688+45.4062L119.188+25.125C116.787+21.825+112.313+20.9063+108.812+22.9062L98.5938+28.8125C95.0937+30.8125+93.6125+35.2063+95.3125+38.9062L104.688+63.625C105.888+66.925+104.888+70.6187+102.188+72.7188C99.6875+74.7187+97.2125+76.8063+94.8125+78.9062C92.2125+81.2063+88.4062+81.6125+85.4062+79.8125L63+66.0312C59.6+63.8312+55.1+64.4313+52.5+67.5312L45+76.5312C42.4+79.6313+42.5125+84.225+45.3125+87.125L62.5938+107.031C64.8938+109.631+65.2125+113.531+63.3125+116.531C61.6125+119.231+60+122.006+58.5+124.906C56.8+128.006+53.4063+129.631+49.9062+129.031L24+124.031C20+123.131+15.9938+125.231+14.5938+129.031L10.5938+140.031C9.19375+143.831+10.9+148.106+14.5+149.906L37.5938+162.719C40.6938+164.419+42.2+167.913+41.5+171.312C40.9+174.513+40.3125+177.613+39.8125+180.812C39.3125+184.313+36.5875+187.025+33.1875+187.625L7.09375+191.812C3.09375+192.313-3.17891e-07+195.719+0+199.719L0+211.406C0+215.506+2.99375+218.912+7.09375+219.312L33.1875+223.531C36.6875+224.131+39.3125+226.812+39.8125+230.312C40.3125+233.513+40.8+236.713+41.5+239.812C42.2+243.213+40.5937+246.706+37.5938+248.406L14.5+261.219C10.9+263.019+9.19375+267.325+10.5938+271.125L14.5938+282.125C15.9937+285.925+20+288.125+24+287.125L49.9062+282.125C53.3063+281.425+56.8+283.119+58.5+286.219C60+289.019+61.6125+291.825+63.3125+294.625C65.1125+297.625+64.8938+301.425+62.5938+304.125L45.3125+324.031C42.5125+327.031+42.4+331.525+45+334.625L52.5+343.625C55.1+346.725+59.6+347.425+63+345.125L85.6875+331.531C88.6875+329.731+92.4937+330.106+95.0938+332.406C97.4938+334.506+100+336.625+102.5+338.625C105.2+340.825+106.3+344.519+105+347.719L95.5938+372.406C93.9937+376.106+95.4062+380.531+98.9062+382.531L109.094+388.406C112.594+390.406+117.1+389.519+119.5+386.219L136.312+365.625C138.413+363.025+141.8+361.931+144.5+363.031C147.9+364.431+150.206+365.225+154.406+366.625C157.706+367.725+160.006+370.812+159.906+374.312L159.5+400.719C159.3+404.819+162.094+408.425+166.094+409.125L177.688+411.125C181.688+411.825+185.612+409.431+186.812+405.531L195.406+380.531C196.506+377.231+199.687+375.025+203.188+375.125C204.788+375.125+206.494+375.219+208.094+375.219C209.694+375.219+211.4+375.225+213+375.125C216.5+375.025+219.612+377.231+220.812+380.531L229.406+405.531C230.606+409.431+234.5+411.825+238.5+411.125L250.094+409.125C254.094+408.425+256.888+404.819+256.688+400.719L256.312+374.312C256.212+370.812+258.513+367.725+261.812+366.625C266.013+365.225+268.806+364.125+271.406+363.125C274.006+362.225+277.187+362.119+279.688+365.219L296.688+386.125C299.088+389.425+303.594+390.313+307.094+388.312L317.312+382.406C320.813+380.406+322.294+376.013+320.594+372.312L311.188+347.625C309.987+344.325+310.987+340.631+313.688+338.531C316.188+336.531+318.694+334.412+321.094+332.312C323.694+330.012+327.5+329.606+330.5+331.406L353.188+345.031C356.588+347.231+361.088+346.631+363.688+343.531L371.188+334.531C373.788+331.431+373.706+326.806+370.906+323.906L353.594+304.031C351.294+301.431+351.006+297.531+352.906+294.531C354.606+291.831+356.187+289.025+357.688+286.125C359.388+283.025+362.812+281.431+366.312+282.031L392.188+287.031C396.188+287.931+400.194+285.831+401.594+282.031L405.594+271.031C406.994+267.231+405.288+262.925+401.688+261.125L378.594+248.312C375.494+246.612+373.988+243.119+374.688+239.719C375.288+236.519+375.906+233.419+376.406+230.219C376.906+226.719+379.6+224.006+383+223.406L409.094+219.219C413.094+218.719+416.187+215.312+416.188+211.312L416.188+199.625C415.987+195.825+413.006+192.306+408.906+191.906L382.812+187.719C379.312+187.119+376.687+184.406+376.188+180.906C375.687+177.706+375.2+174.506+374.5+171.406C373.8+168.006+375.406+164.512+378.406+162.812L401.5+150.031C405.1+148.231+406.806+143.925+405.406+140.125L401.406+129.125C400.006+125.325+396+123.125+392+124.125L366.094+129.125C362.694+129.825+359.2+128.131+357.5+125.031C356+122.231+354.387+119.425+352.688+116.625C350.887+113.625+351.106+109.825+353.406+107.125L370.688+87.2188C373.487+84.2187+373.6+79.725+371+76.625L363.5+67.625C360.9+64.525+356.4+63.825+353+66.125L330.312+79.7188C327.312+81.5188+323.506+81.1125+320.906+78.8125C318.506+76.7125+316+74.625+313.5+72.625C310.8+70.425+309.7+66.7313+311+63.5312L320.406+38.8125C322.006+35.1125+320.594+30.7188+317.094+28.7188L306.906+22.8125C303.406+20.8125+298.9+21.7313+296.5+25.0312L279.906+45.8125C277.906+48.3125+275.006+49.6125+271.406+48.3125C271.406+48.3125+265.794+46.025+261.594+44.625C258.294+43.525+255.994+40.4063+256.094+36.9062L256.5+10.5312C256.7+6.43125+253.906+2.825+249.906+2.125L238.312+0.125C234.312-0.575+230.388+1.81875+229.188+5.71875L220.594+30.7188C219.494+34.0187+216.313+36.225+212.812+36.125C211.212+36.125+209.506+36.0312+207.906+36.0312C206.306+36.0312+204.6+36.025+203+36.125C199.5+36.225+196.388+34.0188+195.188+30.7188L186.594+5.71875C185.394+1.81875+181.5-0.575+177.5+0.125ZM208+61.7188C275.9+61.7188+332.9+108.731+348+172.031C350.4+182.131+342.8+191.719+332.5+191.719L220.688+191.719C217.787+191.719+215.212+190.219+213.812+187.719L157.688+91.0312C152.487+82.1312+157.006+70.625+166.906+67.625C179.906+63.725+193.7+61.7188+208+61.7188ZM118.344+97.1875C124.235+96.7188+130.25+99.5+133.5+105.125L189.5+201.719C190.9+204.219+190.9+207.219+189.5+209.719L133.812+306.625C128.612+315.625+116.413+317.319+108.812+310.219C81.2125+283.919+64+246.819+64+205.719C64+164.819+81.1+127.825+108.5+101.625C111.313+98.925+114.809+97.4687+118.344+97.1875ZM220.688+219.719L332.406+219.719C342.806+219.719+350.4+229.306+348+239.406C332.9+302.706+275.9+349.719+208+349.719C193.9+349.719+180.206+347.706+167.406+343.906C157.506+341.006+152.894+329.525+158.094+320.625L213.812+223.719C215.212+221.219+217.888+219.719+220.688+219.719Z" fill="#ffffff" stroke-linecap="butt" opacity="1" stroke-linejoin="miter"/>
</g>
<g id="Combined-Shape" vectornator:layerName="Combined-Shape">
<path stroke="#000000" stroke-width="13" d="M395.406+223.719C394.671+223.719+390.912+224.164+390.594+224.219C373.516+227.042+354.806+238.656+354.031+257.688C353.952+259.613+354.108+265.55+354.406+267.75C354.724+270.216+357.411+271.719+360.094+271.719L360.156+271.719C380.811+271.719+399.456+255.211+400.906+235.281C401.055+233.283+401.021+228.765+400.594+227.344C400.087+225.712+398.737+224.405+396.969+223.938C396.482+223.809+395.903+223.719+395.406+223.719ZM332.094+271.719C327.076+271.719+321.876+272.56+316.656+274.219C301.005+279.164+288.907+292.516+284.312+309.969C279.68+327.56+282.091+350.39+290.75+371.031C294.285+379.452+298.617+387.401+303.625+394.656C312.939+408.161+322.701+414.719+333.469+414.719C334.316+414.719+335.164+414.683+336.031+414.594C340.886+414.11+344.324+412.64+347.656+411.219C350.459+410.024+353.394+408.798+357.594+407.969C365.058+406.508+369.399+408.17+375.312+410.5C378.741+411.852+382.626+413.365+387.5+414.312C408.805+418.439+428.894+386.612+436.031+366.938L436.438+365.844C438.421+360.681+434.708+358.535+434.062+358.219C421.551+351.536+414.227+341.5+413.438+330C412.638+318.44+418.69+307.017+430.094+298.656C431.259+297.827+432.298+296.306+432.5+294.875C432.712+293.424+432.249+291.749+431.344+290.594C419.16+275.026+403.477+271.75+392.469+271.75C386.247+271.75+379.8+272.851+374.281+274.875C372.721+275.448+371.267+276.039+369.938+276.562C364.91+278.557+362.03+279.722+358.438+278.656C357.262+278.311+355.904+277.703+354.344+277.031C349.374+274.919+341.899+271.719+332.094+271.719Z" fill="#ffffff" stroke-linecap="butt" opacity="1" stroke-linejoin="miter"/>
</g>
</svg>
