<?xml version="1.0" encoding="UTF-8"?>
<svg width="492px" height="498px" viewBox="0 0 492 498" version="1.1" xmlns="http://www.w3.org/2000/svg" xmlns:xlink="http://www.w3.org/1999/xlink">
    <title>shadow-big</title>
    <defs>
        <filter x="-9.7%" y="-9.7%" width="119.5%" height="119.5%" filterUnits="objectBoundingBox" id="filter-1">
            <feOffset dx="8" dy="14" in="SourceAlpha" result="shadowOffsetOuter1"></feOffset>
            <feGaussianBlur stdDeviation="6" in="shadowOffsetOuter1" result="shadowBlurOuter1"></feGaussianBlur>
            <feColorMatrix values="0 0 0 0 0   0 0 0 0 0   0 0 0 0 0  0 0 0 0.140637805 0" type="matrix" in="shadowBlurOuter1" result="shadowMatrixOuter1"></feColorMatrix>
            <feMerge>
                <feMergeNode in="shadowMatrixOuter1"></feMergeNode>
                <feMergeNode in="SourceGraphic"></feMergeNode>
            </feMerge>
        </filter>
        <filter x="-8.3%" y="-8.3%" width="116.7%" height="116.7%" filterUnits="objectBoundingBox" id="filter-2">
            <feGaussianBlur stdDeviation="12" in="SourceGraphic"></feGaussianBlur>
        </filter>
    </defs>
    <g id="Page-1" stroke="none" stroke-width="1" fill="none" fill-rule="evenodd" fill-opacity="0.7">
        <g id="Oval-2" filter="url(#filter-1)" transform="translate(-23.000000, -24.000000)" fill="#000000">
            <path d="M273.350955,49.1987667 C274.184863,49.2342863 275.017547,49.2745339 275.848981,49.3194836 L276.770489,76.4246358 C280.636192,76.6825572 284.470083,77.0567097 288.268697,77.5436292 L294.463099,51.1314348 C295.288054,51.2478833 296.111511,51.3689921 296.933444,51.4947338 L295.193859,78.5620893 C299.013294,79.1964026 302.794024,79.9452447 306.532402,80.8049676 L315.286723,55.1254321 C316.094941,55.3222496 316.901378,55.5236142 317.706005,55.7294971 L313.320782,82.4999298 C317.05608,83.5069322 320.745587,84.6255549 324.385504,85.8519998 L335.614675,61.1550312 C336.398507,61.4303965 337.180271,61.7101549 337.959937,61.9942769 L330.972317,88.2090643 C334.586263,89.578842 338.147267,91.0562515 341.651414,92.6373796 L355.245911,69.1621753 C355.998956,69.5136378 356.749638,69.8693158 357.497927,70.2291791 L347.974094,95.6330409 C351.43221,97.3509156 354.830245,99.1715829 358.1642,101.091045 L373.991397,79.0631699 C374.707191,79.4875134 375.420324,79.9158725 376.130766,80.3482163 L364.164329,104.695145 C367.432927,106.741801 370.63445,108.88565 373.764848,111.122645 L391.674409,90.754405 C392.34609,91.2473958 393.014816,91.7441769 393.680554,92.2447167 L379.38644,115.298776 C382.436321,117.653029 385.412264,120.098408 388.310192,122.630833 L408.129416,104.116255 C408.750109,104.672685 409.367564,105.232655 409.981749,105.796133 L393.497947,127.335592 C396.302088,129.974389 399.025601,132.697902 401.664399,135.502043 L423.204034,119.018432 C423.767629,119.632747 424.327715,120.250333 424.88426,120.871159 L406.369518,140.69021 C408.902095,143.588327 411.347613,146.56447 413.701995,149.614559 L436.755283,135.319446 C437.255823,135.985184 437.752604,136.65391 438.245595,137.325591 L417.877507,155.235366 C420.11462,158.365937 422.258577,161.567641 424.305328,164.836427 L448.65143,152.868654 C449.083759,153.579065 449.512104,154.292168 449.936433,155.007933 L427.909042,170.835952 C429.828454,174.169826 431.649075,177.567775 433.366908,181.025804 L458.770821,171.502073 C459.130684,172.250362 459.486362,173.001044 459.837825,173.754089 L436.362388,187.348072 C437.94369,190.852576 439.421252,194.413948 440.79116,198.028275 L467.005723,191.040063 C467.289724,191.819396 467.569365,192.600826 467.844616,193.384321 L443.14774,204.613725 C444.374249,208.253779 445.492927,211.943427 446.499977,215.678871 L473.270759,211.294994 C473.476537,212.099229 473.677801,212.90527 473.874523,213.713091 L448.195035,222.467609 C449.054818,226.206251 449.803705,229.987252 450.438047,233.806963 L477.505419,232.067557 C477.631089,232.889047 477.752131,233.71206 477.868518,234.536569 L451.456355,240.731181 C451.943324,244.530163 452.317505,248.364429 452.575431,252.230512 L479.680553,253.151687 C479.725481,253.982775 479.765711,254.815112 479.801217,255.648672 L452.913441,259.224566 C452.97101,261.142665 453,263.067947 453,265 C453,266.932053 452.97101,268.857335 452.913441,270.775434 L479.801233,274.350955 C479.765714,275.184863 479.725466,276.017547 479.680516,276.848981 L452.575364,277.770489 C452.317443,281.636192 451.94329,285.470083 451.456371,289.268697 L477.868565,295.463099 C477.752117,296.288054 477.631008,297.111511 477.505266,297.933444 L450.437911,296.193859 C449.803597,300.013294 449.054755,303.794024 448.195032,307.532402 L473.874568,316.286723 C473.67775,317.094941 473.476386,317.901378 473.270503,318.706005 L446.50007,314.320782 C445.493068,318.05608 444.374445,321.745587 443.148,325.385504 L467.844969,336.614675 C467.569603,337.398507 467.289845,338.180271 467.005723,338.959937 L440.790936,331.972317 C439.421158,335.586263 437.943749,339.147267 436.36262,342.651414 L459.837825,356.245911 C459.486362,356.998956 459.130684,357.749638 458.770821,358.497927 L433.366959,348.974094 C431.649256,352.431866 429.82878,355.829568 427.909528,359.163204 L449.93683,374.991397 C449.512487,375.707191 449.084128,376.420324 448.651784,377.130766 L424.304855,365.164329 C422.258199,368.432927 420.11435,371.63445 417.877355,374.764848 L438.245595,392.674409 C437.75285,393.345755 437.256319,394.014148 436.756033,394.679558 L413.701224,380.38644 C411.346971,383.436321 408.901592,386.412264 406.369167,389.310192 L424.883745,409.129416 C424.327315,409.750109 423.767345,410.367564 423.203867,410.981749 L401.664408,394.497947 C399.025608,397.302091 396.302091,400.025608 393.497947,402.664408 L409.981749,424.203867 C409.367564,424.767345 408.750109,425.327315 408.129416,425.883745 L388.310192,407.369167 C385.412264,409.901592 382.436321,412.346971 379.38644,414.701224 L393.679558,437.756033 C393.014148,438.256319 392.345755,438.75285 391.674409,439.245595 L373.764848,418.877355 C370.63445,421.11435 367.432927,423.258199 364.164329,425.304855 L376.130766,449.651784 C375.420324,450.084128 374.707191,450.512487 373.991397,450.93683 L358.163204,428.909528 C354.829568,430.82878 351.431866,432.649256 347.974094,434.366959 L357.497927,459.770821 C356.749638,460.130684 355.998956,460.486362 355.245911,460.837825 L341.651414,437.36262 C338.147267,438.943749 334.586263,440.421158 330.972317,441.790936 L337.959937,468.005723 C337.180271,468.289845 336.398507,468.569603 335.614675,468.844969 L324.385504,444.148 C320.745587,445.374445 317.05608,446.493068 313.320782,447.50007 L317.706005,474.270503 C316.901378,474.476386 316.094941,474.67775 315.286723,474.874568 L306.532402,449.195032 C302.794024,450.054755 299.013294,450.803597 295.193859,451.437911 L296.933444,478.505266 C296.111511,478.631008 295.288054,478.752117 294.463099,478.868565 L288.268697,452.456371 C284.470083,452.94329 280.636192,453.317443 276.770489,453.575364 L275.848981,480.680516 C275.017547,480.725466 274.184863,480.765714 273.350955,480.801233 L269.775434,453.913441 C267.857335,453.97101 265.932053,454 264,454 C262.067947,454 260.142665,453.97101 258.224566,453.913441 L254.648672,480.801217 C253.815112,480.765711 252.982775,480.725481 252.151687,480.680553 L251.230512,453.575431 C247.364429,453.317505 243.530163,452.943324 239.731181,452.456355 L233.536569,478.868518 C232.71206,478.752131 231.889047,478.631089 231.067557,478.505419 L232.806963,451.438047 C228.987252,450.803705 225.206251,450.054818 221.467609,449.195035 L212.713091,474.874523 C211.90527,474.677801 211.099229,474.476537 210.294994,474.270759 L214.678871,447.499977 C210.943427,446.492927 207.253779,445.374249 203.613725,444.14774 L192.384321,468.844616 C191.600826,468.569365 190.819396,468.289724 190.040063,468.005723 L197.028275,441.79116 C193.413948,440.421252 189.852576,438.94369 186.348072,437.362388 L172.754089,460.837825 C172.001044,460.486362 171.250362,460.130684 170.502073,459.770821 L180.025804,434.366908 C176.567775,432.649075 173.169826,430.828454 169.835952,428.909042 L154.007933,450.936433 C153.292168,450.512104 152.579065,450.083759 151.868654,449.65143 L163.836427,425.305328 C160.567641,423.258577 157.365937,421.11462 154.235366,418.877507 L136.325591,439.245595 C135.65391,438.752604 134.985184,438.255823 134.319446,437.755283 L148.614559,414.701995 C145.56447,412.347613 142.588327,409.902095 139.69021,407.369518 L119.871159,425.88426 C119.250333,425.327715 118.632747,424.767629 118.018432,424.204034 L134.502043,402.664399 C131.697902,400.025601 128.974389,397.302088 126.335592,394.497947 L104.796133,410.981749 C104.232655,410.367564 103.672685,409.750109 103.116255,409.129416 L121.630833,389.310192 C119.098408,386.412264 116.653029,383.436321 114.298776,380.38644 L91.2447167,394.680554 C90.7441769,394.014816 90.2473958,393.34609 89.754405,392.674409 L110.122645,374.764848 C107.88565,371.63445 105.741801,368.432927 103.695145,365.164329 L79.3482163,377.130766 C78.9158725,376.420324 78.4875134,375.707191 78.0631699,374.991397 L100.091045,359.1642 C98.1715829,355.830245 96.3509156,352.43221 94.6330409,348.974094 L69.2291791,358.497927 C68.8693158,357.749638 68.5136378,356.998956 68.1621753,356.245911 L91.6373796,342.651414 C90.0562515,339.147267 88.578842,335.586263 87.2090643,331.972317 L60.9942769,338.959937 C60.7101549,338.180271 60.4303965,337.398507 60.1550312,336.614675 L84.8519998,325.385504 C83.6255549,321.745587 82.5069322,318.05608 81.4999298,314.320782 L54.7294971,318.706005 C54.5236142,317.901378 54.3222496,317.094941 54.1254321,316.286723 L79.8049676,307.532402 C78.9452447,303.794024 78.1964026,300.013294 77.5620893,296.193859 L50.4947338,297.933444 C50.3689921,297.111511 50.2478833,296.288054 50.1314348,295.463099 L76.5436292,289.268697 C76.0567097,285.470083 75.6825572,281.636192 75.4246358,277.770489 L48.3194836,276.848981 C48.2745339,276.017547 48.2342863,275.184863 48.1987667,274.350955 L75.0865595,270.775434 C75.0289902,268.857335 75,266.932053 75,265 C75,263.067947 75.0289902,261.142665 75.0865595,259.224566 L48.1987826,255.648672 C48.2342888,254.815112 48.2745191,253.982775 48.3194475,253.151687 L75.4245689,252.230512 C75.6824728,248.364767 76.0566102,244.530835 76.543517,240.732179 L50.1314817,234.536569 C50.2478685,233.71206 50.3689107,232.889047 50.4945807,232.067557 L77.5619528,233.806963 C78.1962946,229.987252 78.9451815,226.206251 79.8049651,222.467609 L54.1254774,213.713091 C54.3222806,212.904936 54.52363,212.098561 54.7294971,211.293995 L81.5000234,215.678871 C82.5070726,211.943427 83.6257509,208.253779 84.8522597,204.613725 L60.1553836,193.384321 C60.4307527,192.600491 60.7105149,191.818729 60.9946406,191.039065 L87.2088401,198.028275 C88.5787478,194.413948 90.0563098,190.852576 91.6376117,187.348072 L68.1621753,173.754089 C68.5136378,173.001044 68.8693158,172.250362 69.2291791,171.502073 L94.6330918,181.025804 C96.3509254,177.567775 98.1715464,174.169826 100.090958,170.835952 L78.0635673,155.007933 C78.4878965,154.292168 78.9162409,153.579065 79.3485697,152.868654 L103.694672,164.836427 C105.741423,161.567641 107.88538,158.365937 110.122493,155.235366 L89.754405,137.325591 C90.2473958,136.65391 90.7441769,135.985184 91.2447167,135.319446 L114.298005,149.614559 C116.652387,146.56447 119.097905,143.588327 121.630482,140.69021 L103.11574,120.871159 C103.672285,120.250333 104.232371,119.632747 104.795966,119.018432 L126.335601,135.502043 C128.974395,132.697905 131.697905,129.974395 134.502043,127.335601 L118.018432,105.795966 C118.632747,105.232371 119.250333,104.672285 119.871159,104.11574 L139.69021,122.630482 C142.588327,120.097905 145.56447,117.652387 148.614559,115.298005 L134.319446,92.2447167 C134.985184,91.7441769 135.65391,91.2473958 136.325591,90.754405 L154.235366,111.122493 C157.365937,108.88538 160.567641,106.741423 163.836427,104.694672 L151.868654,80.3485697 C152.579065,79.9162409 153.292168,79.4878965 154.007933,79.0635673 L169.835952,101.090958 C173.169826,99.1715464 176.567775,97.3509254 180.025804,95.6330918 L170.502073,70.2291791 C171.250362,69.8693158 172.001044,69.5136378 172.754089,69.1621753 L186.348072,92.6376117 C189.852576,91.0563098 193.413948,89.5787478 197.028275,88.2088401 L190.039065,61.9946406 C190.818729,61.7105149 191.600491,61.4307527 192.384321,61.1553836 L203.613725,85.8522597 C207.253779,84.6257509 210.943427,83.5070726 214.678871,82.5000234 L210.293995,55.7294971 C211.098561,55.52363 211.904936,55.3222806 212.713091,55.1254774 L221.467609,80.8049651 C225.206251,79.9451815 228.987252,79.1962946 232.806963,78.5619528 L231.067557,51.4945807 C231.889047,51.3689107 232.71206,51.2478685 233.536569,51.1314817 L239.732179,77.543517 C243.530835,77.0566102 247.364767,76.6824728 251.230512,76.4245689 L252.151687,49.3194475 C252.982775,49.2745191 253.815112,49.2342888 254.648672,49.1987826 L258.224566,76.0865595 C260.142665,76.0289902 262.067947,76 264,76 C265.932053,76 267.857335,76.0289902 269.775434,76.0865595 L273.350955,49.1987667 Z M247.681905,309.443009 L196.376767,370.314767 L203.855415,362.622838 L203.417829,363.080725 C199.805448,366.925647 197.049813,371.496405 195.336337,376.491163 C188.878517,395.315615 198.375555,415.757412 216.628276,423.098604 C231.632731,427.588262 247.53472,430 264,430 C330.207486,430 387.307262,391.00526 413.585177,334.729931 C415.322382,330.235045 416.173693,325.439863 416.083879,320.609532 C415.771874,303.829367 404.40403,289.84916 389.056649,285.486867 L307.483536,282.817608 C284.52402,282.066051 262.486304,291.877874 247.681905,309.443009 Z M215.27623,422.687946 L205.655272,419.38792 C208.817064,420.583413 212.025195,421.684567 215.27623,422.687946 Z M151.598904,144.307329 L151.126878,144.64705 C119.042791,174.749126 99,217.533941 99,265 C99,302.293722 111.372666,336.697653 132.237132,364.330926 C134.749453,366.354267 137.520931,368.048327 140.486121,369.364473 C159.090262,377.622209 180.834399,369.401242 189.360829,351.002078 L189.614767,350.440767 L188.169767,353.695767 L225.644718,293.432056 C237.775344,273.92431 240.296914,249.933177 232.48726,228.329623 L207.507767,159.230767 L209,164.5 L208.822251,163.892096 C207.298642,158.84122 204.718067,154.169392 201.249217,150.188099 C188.553323,135.616674 167.013311,133.313196 151.598904,144.307329 Z M264,253 C257.924868,253 253,257.924868 253,264 C253,270.075132 257.924868,275 264,275 C270.075132,275 275,270.075132 275,264 C275,257.924868 270.075132,253 264,253 Z M264,100 C259.078414,100 254.207156,100.215478 249.395144,100.637513 C245.547661,101.382309 241.832533,102.732351 238.390364,104.645501 C221.946204,113.785133 215.130757,133.539402 221.744101,150.598704 L257.371745,217.250336 C268.200636,237.509639 287.716782,251.688949 310.330835,255.727367 L391.35521,270.197805 C393.6026,270.015756 395.83537,269.629379 398.025478,269.039869 C415.270461,264.398044 426.410729,248.376549 425.538158,231.235505 C409.959499,156.302069 343.554776,100 264,100 Z" id="shadow-big" filter="url(#filter-2)"></path>
        </g>
    </g>
</svg>