<?xml version="1.0" encoding="UTF-8"?>
<svg width="352px" height="359px" viewBox="0 0 352 359" version="1.1" xmlns="http://www.w3.org/2000/svg" xmlns:xlink="http://www.w3.org/1999/xlink">
    <title>shadow-small</title>
    <defs>
        <filter x="-9.7%" y="-9.7%" width="119.5%" height="119.5%" filterUnits="objectBoundingBox" id="filter-1">
            <feOffset dx="8" dy="14" in="SourceAlpha" result="shadowOffsetOuter1"></feOffset>
            <feGaussianBlur stdDeviation="6" in="shadowOffsetOuter1" result="shadowBlurOuter1"></feGaussianBlur>
            <feColorMatrix values="0 0 0 0 0   0 0 0 0 0   0 0 0 0 0  0 0 0 0.140637805 0" type="matrix" in="shadowBlurOuter1" result="shadowMatrixOuter1"></feColorMatrix>
            <feMerge>
                <feMergeNode in="shadowMatrixOuter1"></feMergeNode>
                <feMergeNode in="SourceGraphic"></feMergeNode>
            </feMerge>
        </filter>
        <filter x="-10.0%" y="-10.0%" width="120.0%" height="119.9%" filterUnits="objectBoundingBox" id="filter-2">
            <feGaussianBlur stdDeviation="10" in="SourceGraphic"></feGaussianBlur>
        </filter>
    </defs>
    <g id="Page-1" stroke="none" stroke-width="1" fill="none" fill-rule="evenodd" fill-opacity="0.7">
        <g id="Oval-2" filter="url(#filter-1)" transform="translate(-95.000000, -94.000000)" fill="#000000">
            <path d="M271.119375,113.979379 C271.953811,114.01294 272.786494,114.053334 273.61737,114.100506 L274.198278,132.546618 C276.699912,132.709873 279.182585,132.9429 281.644383,133.243781 L285.797576,115.290074 C286.62369,115.404928 287.447656,115.526525 288.269416,115.65481 L287.049581,134.018323 C289.526438,134.425828 291.980143,134.902358 294.408669,135.445879 L300.278485,118.038356 C301.088645,118.2341 301.896246,118.436435 302.701228,118.645301 L299.702537,136.746902 C302.130796,137.397548 304.531544,138.115779 306.902657,138.899463 L314.420129,122.207477 C315.205911,122.482184 315.988719,122.763258 316.768492,123.050639 L312.031958,140.713793 C314.387415,141.602416 316.710919,142.556522 319.000268,143.573901 L328.079013,127.756345 C328.834534,128.10778 329.586653,128.465332 330.335306,128.828939 L323.917633,145.88203 C326.177364,147.000244 328.400671,148.181292 330.585287,149.422899 L341.12742,134.628585 C341.845294,135.05311 342.55934,135.483455 343.269493,135.919557 L335.245783,152.199816 C337.387513,153.536262 339.488387,154.932409 341.546093,156.38594 L353.438762,142.750431 C354.111948,143.243541 354.78089,143.742135 355.445522,144.246147 L345.906264,159.601265 C347.910775,161.14355 349.870013,162.742111 351.781632,164.394594 L364.900876,152.040746 C365.523175,152.597637 366.140823,153.159649 366.753752,153.726718 L355.801728,168.014966 C357.649988,169.74869 359.448644,171.534988 361.195326,173.371481 L375.405334,162.407144 C375.970667,163.022279 376.530958,163.64215 377.086141,164.26669 L364.836984,177.359038 C366.511324,179.268667 368.131837,181.22696 369.696145,183.23153 L384.854112,173.752692 C385.356341,174.419392 385.853173,175.090414 386.344541,175.765693 L372.925881,187.547536 C374.409588,189.616265 375.835411,191.729583 377.20097,193.885104 L393.153575,185.970116 C393.588233,186.68265 394.017153,187.39909 394.440271,188.119371 L379.987242,198.486757 C381.26429,200.69566 382.479665,202.944918 383.631004,205.232157 L400.220289,198.946832 C400.582704,199.698013 400.939084,200.452671 401.289366,201.210744 L385.947509,210.076349 C387.003283,212.404389 387.99399,214.768413 388.917299,217.166081 L405.979642,212.559527 C406.26612,213.342051 406.54631,214.127621 406.820152,214.916176 L390.741368,222.205567 C391.563428,224.629389 392.317564,227.084726 393.001503,229.569294 L410.370111,226.673018 C410.578225,227.480455 410.779832,228.290517 410.974875,229.103146 L394.317,234.756608 C394.896388,237.252317 395.405597,239.775069 395.842428,242.322654 L413.350588,241.152375 C413.478487,241.977115 413.599718,242.804069 413.714223,243.63318 L396.639714,247.609002 C396.970911,250.150378 397.23045,252.714367 397.41623,255.298859 L414.899823,255.853809 C414.946845,256.687568 414.98711,257.523141 415.020563,258.360473 L397.693285,260.631354 C397.739703,262.076645 397.76309,263.527775 397.76309,264.984384 C397.76309,266.117079 397.748948,267.24646 397.720831,268.372359 L415.020584,270.638998 C414.987127,271.476507 414.946855,272.312256 414.899823,273.146191 L397.482559,273.69787 C397.314958,276.292571 397.073042,278.866953 396.758926,281.418895 L413.714153,285.36733 C413.599668,286.19627 413.478461,287.023054 413.350588,287.847625 L396.003282,286.686925 C395.582406,289.254279 395.0881,291.796813 394.522601,294.312285 L410.975032,299.896201 C410.780021,300.708714 410.578446,301.518661 410.370368,302.325983 L393.253103,299.47231 C392.580787,301.985982 391.836746,304.470196 391.023318,306.922607 L406.820152,314.083824 C406.546194,314.872714 406.265882,315.658616 405.979277,316.44147 L389.251434,311.925719 C388.3337,314.360368 387.346653,316.760852 386.292709,319.124748 L401.288981,327.790088 C400.938786,328.547962 400.582495,329.302423 400.220173,330.053409 L384.037113,323.922892 C382.883995,326.253387 381.664625,328.545046 380.381475,330.795389 L394.440271,340.880629 C394.017071,341.60105 393.588066,342.317628 393.153322,343.030299 L377.665041,335.34579 C376.288813,337.550007 374.849841,339.710765 373.350638,341.825544 L386.344631,353.234182 C385.853234,353.909503 385.356372,354.580567 384.854112,355.247308 L370.202106,346.08472 C368.617721,348.141166 366.974501,350.14966 365.274976,352.107664 L377.086141,364.73331 C376.530958,365.35785 375.970667,365.977721 375.405334,366.592856 L361.725548,356.036562 C359.948521,357.926745 358.11679,359.764591 356.232894,361.54755 L366.753752,375.273282 C366.140493,375.840655 365.522511,376.402968 364.899873,376.960152 L352.316038,365.109724 C350.364507,366.814923 348.362652,368.463628 346.313004,370.0533 L355.446517,384.753098 C354.781558,385.257368 354.112284,385.756213 353.438762,386.249569 L342.068995,373.211561 C339.961307,374.715723 337.807797,376.159457 335.610975,377.540244 L343.269493,393.080443 C342.55934,393.516545 341.845294,393.94689 341.12742,394.371415 L331.076163,380.265492 C328.832737,381.553267 326.548111,382.777017 324.22476,383.934259 L330.335306,400.171061 C329.586984,400.534507 328.835199,400.891904 328.080015,401.243188 L319.442426,386.197397 C317.086599,387.254737 314.694314,388.24497 312.267985,389.165671 L316.768492,405.949361 C315.988719,406.236742 315.205911,406.517816 314.420129,406.792523 L307.282623,390.943077 C304.837934,391.75938 302.361536,392.506039 299.855768,393.180709 L302.701228,410.354699 C301.896246,410.563565 301.088645,410.7659 300.278485,410.961644 L294.712483,394.454515 C292.205451,395.021865 289.671449,395.517788 287.112712,395.940043 L288.269416,413.34519 C287.447656,413.473475 286.62369,413.595072 285.797576,413.709926 L281.862421,396.698155 C279.319358,397.013264 276.753936,397.255954 274.168268,397.424105 L273.61737,414.899494 C272.786162,414.946685 271.953146,414.987093 271.118375,415.020661 L268.859311,397.663238 C267.737213,397.691446 266.611645,397.705634 265.482775,397.705634 C264.03137,397.705634 262.585424,397.68218 261.145294,397.635631 L258.881625,415.020661 C258.04652,414.987079 257.21317,414.946653 256.38163,414.899437 L255.828877,397.357578 C253.253076,397.171175 250.697708,396.910774 248.164876,396.578481 L244.202424,413.709926 C243.37631,413.595072 242.552344,413.473475 241.730584,413.34519 L242.896552,395.778607 C240.357593,395.340353 237.843383,394.829488 235.35612,394.248219 L229.721169,410.96156 C228.91146,410.765924 228.104307,410.563703 227.299771,410.354958 L230.185948,392.928342 C227.709251,392.242031 225.261697,391.485265 222.845562,390.66033 L215.580869,406.792872 C214.794752,406.518054 214.011611,406.236863 213.231508,405.949361 L217.823344,388.83036 C215.433292,387.903838 213.076784,386.909673 210.756149,385.850207 L201.919814,401.243109 C201.164431,400.891731 200.41245,400.534237 199.663933,400.170691 L205.928123,383.525966 C203.649053,382.371055 201.40782,381.151926 199.206788,379.87095 L188.87358,394.372007 C188.155369,393.94729 187.44099,393.516748 186.730507,393.080443 L194.618913,377.074468 C192.470979,375.704608 190.365092,374.274306 188.303629,372.785949 L176.560367,386.248931 C175.887124,385.755773 175.218127,385.257129 174.55344,384.753066 L184.001169,369.544853 C182.003709,367.975672 180.052351,366.350125 178.149473,364.670595 L165.099386,376.959489 C164.476998,376.402521 163.859263,375.84043 163.246248,375.273282 L174.1739,361.015658 C172.34363,359.263258 170.563384,357.45872 168.835529,355.604417 L154.594666,366.592856 C154.029333,365.977721 153.469042,365.35785 152.913859,364.73331 L165.227438,351.571217 C163.580606,349.653424 161.987506,347.687864 160.450482,345.676888 L145.146638,355.248303 C144.644122,354.581234 144.14701,353.909839 143.655369,353.234182 L157.245454,341.301718 C155.796568,339.23691 154.404888,337.128779 153.072727,334.979645 L136.846678,343.030299 C136.412135,342.317958 135.983326,341.601713 135.560316,340.881629 L150.305005,330.303532 C149.06773,328.111985 147.890795,325.881632 146.776463,323.614744 L129.779827,330.053409 C129.417505,329.302423 129.061214,328.547962 128.711019,327.790088 L144.475867,318.680763 C143.461791,316.383633 142.510785,314.052227 141.625053,311.688759 L124.020723,316.44147 C123.734118,315.658616 123.453806,314.872714 123.179848,314.083824 L139.816539,306.541721 C139.035517,304.162841 138.319723,301.754232 137.67128,299.318023 L119.629632,302.325983 C119.421554,301.518661 119.219979,300.708714 119.024968,299.896201 L136.374807,294.007496 C135.832995,291.570511 135.357972,289.108255 134.951765,286.622763 L116.649412,287.847625 C116.521539,287.023054 116.400332,286.19627 116.285847,285.36733 L134.179859,281.199953 C133.87997,278.729901 133.647712,276.238903 133.484998,273.72888 L115.100177,273.146191 C115.053145,272.312256 115.012873,271.476507 114.979416,270.638998 L133.241631,268.246356 C133.215567,267.162203 133.20246,266.074829 133.20246,264.984384 C133.20246,263.570024 133.22451,262.160832 133.268284,260.757133 L114.979437,258.360473 C115.01289,257.523141 115.053155,256.687568 115.100177,255.853809 L133.551552,255.267855 C133.731828,252.768024 133.981112,250.287385 134.2975,247.827847 L116.285777,243.63318 C116.400282,242.804069 116.521513,241.977115 116.649412,241.152375 L135.112163,242.38666 C135.533771,239.920608 136.023194,237.4778 136.578438,235.060239 L119.025125,229.103146 C119.220168,228.290517 119.421775,227.480455 119.629889,226.673018 L137.921799,229.723134 C138.581377,227.315696 139.306843,224.935631 140.09613,222.585015 L123.179848,214.916176 C123.453806,214.127286 123.734118,213.341384 124.020723,212.55853 L141.957569,217.40224 C142.848577,215.075168 143.803027,212.779659 144.818795,210.517843 L128.711098,201.209741 C129.06123,200.452006 129.417456,199.697682 129.779711,198.946832 L147.180699,205.538775 C148.292865,203.315032 149.465481,201.126985 150.696385,198.976804 L135.559729,188.119371 C135.983045,187.398753 136.412168,186.68198 136.847034,185.969117 L153.535101,194.248633 C154.856249,192.148214 156.234495,190.087565 157.667653,188.06888 L143.655459,175.765693 C144.147071,175.090079 144.644153,174.418725 145.146638,173.751697 L160.953655,183.637759 C162.47031,181.678704 164.040467,179.763423 165.661925,177.894121 L152.913859,164.26669 C153.469042,163.64215 154.029333,163.022279 154.594666,162.407144 L169.362075,173.802533 C171.060026,172.001287 172.807728,170.247744 174.602974,168.544116 L163.246248,153.726718 C163.859263,153.15957 164.476998,152.597479 165.099386,152.040511 L178.681525,164.83108 C180.544748,163.204092 182.453804,161.628584 184.406494,160.106764 L174.554435,144.24618 C175.218794,143.742374 175.88746,143.243981 176.560367,142.751069 L188.823125,156.809649 C190.835218,155.371641 192.88914,153.988734 194.982704,152.663122 L186.730507,135.919557 C187.44066,135.483455 188.154706,135.05311 188.87258,134.628585 L199.6948,149.815194 C201.837758,148.58024 204.018454,147.403764 206.234725,146.287936 L199.663933,128.829309 C200.41245,128.465763 201.164431,128.108269 201.919814,127.756891 L211.196818,143.918358 C213.451193,142.899162 215.739153,141.941492 218.058572,141.047481 L213.231508,123.050639 C214.011611,122.763137 214.794752,122.481946 215.580869,122.207128 L223.223903,139.179907 C225.566849,138.387935 227.939149,137.660003 230.338735,136.998187 L227.299771,118.645042 C228.104307,118.436297 228.91146,118.234076 229.721169,118.03844 L235.658778,135.650197 C238.067883,135.093215 240.502142,134.60225 242.95956,134.179301 L241.729584,115.654966 C242.551676,115.526624 243.375975,115.404974 244.202424,115.290074 L248.382717,133.361892 C250.834364,133.044403 253.307047,132.794258 255.798863,132.613366 L256.38263,114.100506 C257.213838,114.053315 258.046854,114.012907 258.881625,113.979339 L261.27006,132.329163 C262.668932,132.285253 264.073279,132.263135 265.482775,132.263135 C266.569736,132.263135 267.653635,132.276289 268.734323,132.302446 L271.119375,113.979379 Z M265,150 C202.591823,150 152,200.815681 152,263.5 C152,326.184319 202.591823,377 265,377 C327.408177,377 378,326.184319 378,263.5 C378,200.815681 327.408177,150 265,150 Z" id="shadow-small" filter="url(#filter-2)"></path>
        </g>
    </g>
</svg>