<?xml version="1.0" encoding="UTF-8"?>
<svg width="38px" height="32px" viewBox="0 0 38 32" version="1.1" xmlns="http://www.w3.org/2000/svg" xmlns:xlink="http://www.w3.org/1999/xlink">
    <title>hand-mike</title>
    <g id="Page-1" stroke="none" stroke-width="1" fill="none" fill-rule="evenodd">
        <g id="hand-mike" fill="#FFFFFF" fill-rule="nonzero">
            <path d="M6.502,22 L7,22 L8,22 L8,21.996 C8,21.998 8.274,21.998 8.3,21.997 C10.318,21.887 20.746,21.682 26.97,27.646 C26.986,27.662 27.002,27.674 27.018,27.69 C27.13,27.798 27.251,27.893 27.36,28.005 C27.362,28.007 27.364,28.007 27.366,28.009 C28.349,28.891 29.448,29.395 30.621,29.395 C34.822,29.395 37.991,23.076 37.991,14.697 C37.991,6.319 34.822,0 30.621,0 C29.483,0 28.414,0.473 27.453,1.305 C19.028,8.569 8.526,8.997 8.437,9 L7,9 L6.472,9 C2.782,9 0,11.648 0,15.161 L0,15.357 C0,18.958 2.978,22 6.502,22 Z M36.991,14.698 C36.991,22.251 34.134,28.396 30.621,28.396 C27.044,28.396 24.022,22.123 24.022,14.698 C24.022,7.273 27.044,1 30.621,1 C34.133,1 36.991,7.145 36.991,14.698 Z M8.453,10 C8.55,10 17.186,9.652 25.225,4.255 C23.857,6.9 23.022,10.575 23.022,14.698 C23.022,18.704 23.815,22.279 25.115,24.905 C18.691,20.73 10.315,20.899 8.431,21 L7.369,21 C6.996,19.709 5.823,15 7.363,10 L8.453,10 Z M1,15.161 C1,12.267 3.281,10.085 6.324,10.014 C4.922,14.798 5.868,19.322 6.325,20.991 C3.421,20.89 1,18.354 1,15.356 L1,15.161 Z" id="Shape"></path>
            <path d="M25.5,11 L25,11 C24.724,11 24.5,11.224 24.5,11.5 C24.5,11.776 24.724,12 25,12 L25.5,12 C26.925,12 28,13.032 28,14.429 C28,15.847 26.878,17 25.5,17 L25,17 C24.724,17 24.5,17.224 24.5,17.5 C24.5,17.776 24.724,18 25,18 L25.5,18 C27.43,18 29,16.398 29,14.401 C29,12.494 27.462,11 25.5,11 Z" id="Path"></path>
            <path d="M8.5,23.5 C8.224,23.5 8,23.724 8,24 L8,27.951 C8,30.184 9.794,32 12,32 C14.206,32 16,30.184 16,27.951 L16,24 C16,23.724 15.776,23.5 15.5,23.5 C15.224,23.5 15,23.724 15,24 L15,27.951 C15,29.632 13.654,31 12,31 C10.346,31 9,29.632 9,27.951 L9,24 C9,23.724 8.776,23.5 8.5,23.5 Z" id="Path"></path>
        </g>
    </g>
</svg>