<?xml version="1.0" encoding="UTF-8"?>
<svg width="39px" height="32px" viewBox="0 0 39 32" version="1.1" xmlns="http://www.w3.org/2000/svg" xmlns:xlink="http://www.w3.org/1999/xlink">
    <title>chat-bubble</title>
    <g id="Page-1" stroke="none" stroke-width="1" fill="none" fill-rule="evenodd">
        <g id="chat-bubble" fill="#FFFFFF" fill-rule="nonzero">
            <path d="M7.371,20.055 L5.447,24.158 C5.358,24.347 5.397,24.574 5.545,24.722 C5.641,24.819 5.769,24.869 5.899,24.869 C5.97,24.869 6.042,24.854 6.109,24.823 L12.883,21.684 C13.66,21.779 14.372,21.825 15.053,21.825 C22.832,21.825 29.16,16.929 29.16,10.912 C29.161,4.896 22.833,0 15.054,0 C7.275,0 0.947,4.896 0.947,10.912 C0.947,14.645 3.338,18.032 7.371,20.055 Z M15.054,1 C22.281,1 28.161,5.446 28.161,10.912 C28.161,16.378 22.281,20.825 15.054,20.825 C14.373,20.825 13.658,20.776 12.867,20.675 C12.775,20.664 12.679,20.679 12.594,20.717 L6.936,23.338 L8.487,20.031 C8.544,19.911 8.549,19.773 8.504,19.648 C8.459,19.523 8.365,19.42 8.244,19.365 C4.301,17.542 1.947,14.382 1.947,10.912 C1.947,5.446 7.827,1 15.054,1 Z" id="Shape"></path>
            <path d="M8.197,13.328 C8.359,13.367 8.524,13.387 8.688,13.387 C9.305,13.387 9.878,13.109 10.26,12.624 C10.642,12.139 10.777,11.509 10.629,10.896 C10.458,10.186 9.889,9.617 9.178,9.445 C8.403,9.257 7.598,9.536 7.116,10.15 C6.734,10.635 6.599,11.265 6.747,11.877 C6.917,12.587 7.486,13.156 8.197,13.328 Z M7.901,10.77 C8.092,10.527 8.379,10.387 8.688,10.387 C8.772,10.387 8.858,10.398 8.943,10.418 C9.287,10.501 9.573,10.787 9.656,11.131 C9.732,11.448 9.667,11.759 9.473,12.005 C9.229,12.315 8.828,12.45 8.431,12.356 C8.087,12.273 7.801,11.987 7.718,11.643 C7.642,11.326 7.707,11.016 7.901,10.77 Z" id="Shape"></path>
            <path d="M14.098,13.328 C14.26,13.367 14.425,13.387 14.589,13.387 C15.206,13.387 15.778,13.109 16.16,12.624 C16.542,12.139 16.677,11.509 16.529,10.896 C16.358,10.186 15.789,9.617 15.078,9.445 C14.304,9.257 13.499,9.536 13.016,10.15 C12.634,10.635 12.499,11.264 12.646,11.877 C12.817,12.586 13.387,13.156 14.098,13.328 Z M13.802,10.77 C13.993,10.527 14.28,10.387 14.589,10.387 C14.673,10.387 14.759,10.398 14.844,10.418 C15.188,10.501 15.475,10.787 15.557,11.131 C15.634,11.448 15.569,11.759 15.374,12.005 C15.131,12.316 14.73,12.451 14.332,12.356 C13.988,12.273 13.701,11.987 13.618,11.643 C13.542,11.326 13.607,11.016 13.802,10.77 Z" id="Shape"></path>
            <path d="M19.998,13.328 C20.16,13.367 20.325,13.387 20.489,13.387 C21.106,13.387 21.679,13.109 22.061,12.624 C22.443,12.139 22.578,11.509 22.43,10.896 C22.259,10.186 21.69,9.617 20.979,9.445 C20.205,9.257 19.399,9.536 18.917,10.15 C18.535,10.635 18.4,11.264 18.548,11.877 C18.719,12.587 19.288,13.156 19.998,13.328 Z M19.702,10.77 C19.893,10.527 20.18,10.387 20.489,10.387 C20.573,10.387 20.659,10.398 20.744,10.418 C21.088,10.501 21.374,10.787 21.457,11.131 C21.533,11.448 21.468,11.759 21.274,12.005 C21.03,12.315 20.628,12.45 20.232,12.356 C19.888,12.273 19.601,11.987 19.518,11.643 C19.443,11.326 19.508,11.016 19.702,10.77 Z" id="Shape"></path>
            <path d="M30.908,12.218 C30.64,12.143 30.365,12.291 30.286,12.555 C30.207,12.82 30.357,13.098 30.622,13.177 C34.469,14.323 37.053,17.186 37.053,20.298 C37.053,22.981 35.136,25.504 32.05,26.883 C31.836,26.979 31.717,27.21 31.764,27.44 L32.354,30.301 L29.184,27.906 C29.077,27.826 28.944,27.796 28.811,27.81 C28.159,27.904 27.515,27.952 26.895,27.952 C23.234,27.952 19.692,26.082 18.282,23.404 C18.154,23.159 17.85,23.066 17.607,23.194 C17.363,23.323 17.269,23.625 17.398,23.869 C18.973,26.862 22.879,28.952 26.896,28.952 C27.497,28.952 28.119,28.911 28.747,28.829 L32.812,31.899 C32.9,31.966 33.006,32 33.113,32 C33.206,32 33.299,31.975 33.38,31.923 C33.556,31.812 33.645,31.603 33.603,31.4 L32.824,27.626 C36.06,26.049 38.053,23.272 38.053,20.299 C38.053,16.684 35.249,13.513 30.908,12.218 Z" id="Path"></path>
        </g>
    </g>
</svg>